<?xml version="1.0" encoding="UTF-8"?>
<svg width="180px" height="180px" viewBox="0 0 180 180" version="1.1" xmlns="http://www.w3.org/2000/svg" xmlns:xlink="http://www.w3.org/1999/xlink">
    <!-- Generator: Sketch 48.2 (47327) - http://www.bohemiancoding.com/sketch -->
    <title>Slice</title>
    <desc>Created with Sketch.</desc>
    <defs></defs>
    <g id="Page-1" stroke="none" stroke-width="1" fill="none" fill-rule="evenodd">
        <g id="flag-usa">
            <path d="M179.986069,14.2585486 L91.4608165,14.2585486 L91.4608165,0.000121573874 L179.986069,0.000121573874 L179.986069,14.2585486 Z M179.986069,41.8855149 L91.4810185,41.8855149 L91.4810185,27.6270879 L179.986069,27.6270879 L179.986069,41.8855149 Z M91.4608165,69.5124812 L91.4608165,55.2540542 L179.986069,55.2540542 L179.986069,69.5124812 L91.4608165,69.5124812 Z M91.4608165,97.1394474 L91.4608165,82.8607958 L179.986069,82.8607958 L179.986069,97.1394474 L91.4608165,97.1394474 Z M179.986069,110.487762 L179.986069,124.746189 L-0.0139309862,124.746189 L-0.0139309862,110.487762 L179.986069,110.487762 Z M179.986069,138.114729 L179.986069,152.373156 L-0.0139309862,152.373156 L-0.0139309862,138.114729 L179.986069,138.114729 Z M-0.0139309862,165.741695 L179.986069,165.741695 L179.986069,180.000122 L-0.0139309862,180.000122 L-0.0139309862,165.741695 Z" id="Shape" fill="#BF0A30" fill-rule="nonzero"></path>
            <path d="M91.4747475,0.0202247191 L91.4747475,97.1393258 L-8.8817842e-16,97.1393258 L-8.8817842e-16,0.0202247191 L91.4747475,0.0202247191 Z M24.2525253,79.188764 L27.5252526,76.8224719 L23.5050505,76.8224719 L22.2727273,73 L21.0202021,76.8224719 L17,76.8224719 L20.2525253,79.188764 L19,83.0112359 L22.2525253,80.6449438 L25.4848485,83.0112359 L24.2525253,79.188764 Z M24.2727273,59.1887641 L27.5252525,56.8224719 L23.5050505,56.8224719 L22.2727273,53 L21.020202,56.8224719 L17,56.8224719 L20.2525253,59.1887641 L19.020202,63.011236 L22.2727273,60.6449439 L25.5050505,63.011236 L24.2727273,59.1887641 Z M24.2525253,40.1685393 L27.5252526,37.8224719 L23.5050505,37.8224719 L22.2727273,34 L21.0202021,37.8224719 L17,37.8224719 L20.2525253,40.188764 L19,44.0112359 L22.2525253,41.6449438 L25.4848485,43.9910112 L24.2525253,40.1685393 Z M24.2727273,20.188764 L27.5252525,17.8224719 L23.5050505,17.8224719 L22.2727273,14 L21.020202,17.8224719 L17,17.8224719 L20.2727273,20.188764 L19.020202,24.011236 L22.2727273,21.6449438 L25.5050505,24.011236 L24.2727273,20.188764 Z M13.5252526,92.0314606 L12.2727273,88.2089887 L15.5252526,85.8224719 L11.5050505,85.8224719 L10.2525253,82 L9.0202021,85.8224719 L5,85.8224719 L8.2323233,88.2089887 L7,92.0314606 L10.2525253,89.6651685 L13.5252526,92.0314606 Z M12.2727273,69.188764 L15.5252526,66.8224719 L11.5050505,66.8224719 L10.2525253,63 L9.0202021,66.8224719 L5,66.8224719 L8.2323233,69.2089888 L7,73.0314607 L10.2525253,70.6651685 L13.5252526,73.011236 L12.2727273,69.188764 Z M12.2727273,50.1887641 L15.5252526,47.822472 L11.5050505,47.822472 L10.2525253,44 L9.0202021,47.822472 L5,47.822472 L8.2323233,50.1887641 L7,54.011236 L10.2525253,51.6449439 L13.5252526,54.011236 L12.2727273,50.1887641 Z M12.2727273,30.188764 L15.5252526,27.8224719 L11.5050505,27.8224719 L10.2525253,24 L9.0202021,27.8224719 L5,27.8224719 L8.2323233,30.188764 L7,34.0112359 L10.2525253,31.6449438 L13.5252526,34.0112359 L12.2727273,30.188764 Z M12.2727273,11.2089888 L15.5252526,8.82247191 L11.5050505,8.82247191 L10.2525253,5 L9.0202021,8.84269663 L5,8.84269663 L8.2323233,11.2089888 L7,15.0314607 L10.2525253,12.6651686 L13.5252526,15.0314607 L12.2727273,11.2089888 Z M48.2525253,79.188764 L51.5252526,76.8224719 L47.5050505,76.8224719 L46.2727273,73 L45.0202021,76.8224719 L41,76.8224719 L44.2525253,79.188764 L43,83.0112359 L46.2525253,80.6449438 L49.4848485,83.0112359 L48.2525253,79.188764 Z M48.2727273,59.1887641 L51.5252525,56.8224719 L47.5050505,56.8224719 L46.2727273,53 L45.020202,56.8224719 L41,56.8224719 L44.2525253,59.1887641 L43.020202,63.011236 L46.2727273,60.6449439 L49.5050505,63.011236 L48.2727273,59.1887641 Z M48.2525253,40.1685393 L51.5252526,37.8224719 L47.5050505,37.8224719 L46.2727273,34 L45.0202021,37.8224719 L41,37.8224719 L44.2525253,40.188764 L43,44.0112359 L46.2525253,41.6449438 L49.4848485,43.9910112 L48.2525253,40.1685393 Z M48.2727273,20.188764 L51.5252525,17.8224719 L47.5050505,17.8224719 L46.2727273,14 L45.020202,17.8224719 L41,17.8224719 L44.2727273,20.188764 L43.020202,24.011236 L46.2727273,21.6449438 L49.5050505,24.011236 L48.2727273,20.188764 Z M37.5252526,92.0314606 L36.2727273,88.2089887 L39.5252526,85.8224719 L35.5050505,85.8224719 L34.2525253,82 L33.0202021,85.8224719 L29,85.8224719 L32.2323233,88.2089887 L31,92.0314606 L34.2525253,89.6651685 L37.5252526,92.0314606 Z M36.2727273,69.188764 L39.5252526,66.8224719 L35.5050505,66.8224719 L34.2525253,63 L33.0202021,66.8224719 L29,66.8224719 L32.2323233,69.2089888 L31,73.0314607 L34.2525253,70.6651685 L37.5252526,73.011236 L36.2727273,69.188764 Z M36.2727273,50.1887641 L39.5252526,47.822472 L35.5050505,47.822472 L34.2525253,44 L33.0202021,47.822472 L29,47.822472 L32.2323233,50.1887641 L31,54.011236 L34.2525253,51.6449439 L37.5252526,54.011236 L36.2727273,50.1887641 Z M36.2727273,30.188764 L39.5252526,27.8224719 L35.5050505,27.8224719 L34.2525253,24 L33.0202021,27.8224719 L29,27.8224719 L32.2323233,30.188764 L31,34.0112359 L34.2525253,31.6449438 L37.5252526,34.0112359 L36.2727273,30.188764 Z M36.2727273,11.2089888 L39.5252526,8.82247191 L35.5050505,8.82247191 L34.2525253,5 L33.0202021,8.84269663 L29,8.84269663 L32.2323233,11.2089888 L31,15.0314607 L34.2525253,12.6651686 L37.5252526,15.0314607 L36.2727273,11.2089888 Z M72.2525253,79.188764 L75.5252526,76.8224719 L71.5050505,76.8224719 L70.2727273,73 L69.0202021,76.8224719 L65,76.8224719 L68.2525253,79.188764 L67,83.0112359 L70.2525253,80.6449438 L73.4848485,83.0112359 L72.2525253,79.188764 Z M72.2727273,59.1887641 L75.5252525,56.8224719 L71.5050505,56.8224719 L70.2727273,53 L69.020202,56.8224719 L65,56.8224719 L68.2525253,59.1887641 L67.020202,63.011236 L70.2727273,60.6449439 L73.5050505,63.011236 L72.2727273,59.1887641 Z M72.2525253,40.1685393 L75.5252526,37.8224719 L71.5050505,37.8224719 L70.2727273,34 L69.0202021,37.8224719 L65,37.8224719 L68.2525253,40.188764 L67,44.0112359 L70.2525253,41.6449438 L73.4848485,43.9910112 L72.2525253,40.1685393 Z M72.2727273,20.188764 L75.5252525,17.8224719 L71.5050505,17.8224719 L70.2727273,14 L69.020202,17.8224719 L65,17.8224719 L68.2727273,20.188764 L67.020202,24.011236 L70.2727273,21.6449438 L73.5050505,24.011236 L72.2727273,20.188764 Z M61.5252526,92.0314606 L60.2727273,88.2089887 L63.5252526,85.8224719 L59.5050505,85.8224719 L58.2525253,82 L57.0202021,85.8224719 L53,85.8224719 L56.2323233,88.2089887 L55,92.0314606 L58.2525253,89.6651685 L61.5252526,92.0314606 Z M60.2727273,69.188764 L63.5252526,66.8224719 L59.5050505,66.8224719 L58.2525253,63 L57.0202021,66.8224719 L53,66.8224719 L56.2323233,69.2089888 L55,73.0314607 L58.2525253,70.6651685 L61.5252526,73.011236 L60.2727273,69.188764 Z M60.2727273,50.1887641 L63.5252526,47.822472 L59.5050505,47.822472 L58.2525253,44 L57.0202021,47.822472 L53,47.822472 L56.2323233,50.1887641 L55,54.011236 L58.2525253,51.6449439 L61.5252526,54.011236 L60.2727273,50.1887641 Z M60.2727273,30.188764 L63.5252526,27.8224719 L59.5050505,27.8224719 L58.2525253,24 L57.0202021,27.8224719 L53,27.8224719 L56.2323233,30.188764 L55,34.0112359 L58.2525253,31.6449438 L61.5252526,34.0112359 L60.2727273,30.188764 Z M60.2727273,11.2089888 L63.5252526,8.82247191 L59.5050505,8.82247191 L58.2525253,5 L57.0202021,8.84269663 L53,8.84269663 L56.2323233,11.2089888 L55,15.0314607 L58.2525253,12.6651686 L61.5252526,15.0314607 L60.2727273,11.2089888 Z M85.5252526,92.0314606 L84.2727273,88.2089887 L87.5252526,85.8224719 L83.5050505,85.8224719 L82.2525253,82 L81.0202021,85.8224719 L77,85.8224719 L80.2323233,88.2089887 L79,92.0314606 L82.2525253,89.6651685 L85.5252526,92.0314606 Z M84.2727273,69.188764 L87.5252526,66.8224719 L83.5050505,66.8224719 L82.2525253,63 L81.0202021,66.8224719 L77,66.8224719 L80.2323233,69.2089888 L79,73.0314607 L82.2525253,70.6651685 L85.5252526,73.011236 L84.2727273,69.188764 Z M84.2727273,50.1887641 L87.5252526,47.822472 L83.5050505,47.822472 L82.2525253,44 L81.0202021,47.822472 L77,47.822472 L80.2323233,50.1887641 L79,54.011236 L82.2525253,51.6449439 L85.5252526,54.011236 L84.2727273,50.1887641 Z M84.2727273,30.188764 L87.5252526,27.8224719 L83.5050505,27.8224719 L82.2525253,24 L81.0202021,27.8224719 L77,27.8224719 L80.2323233,30.188764 L79,34.0112359 L82.2525253,31.6449438 L85.5252526,34.0112359 L84.2727273,30.188764 Z M84.2727273,11.2089888 L87.5252526,8.82247191 L83.5050505,8.82247191 L82.2525253,5 L81.0202021,8.84269663 L77,8.84269663 L80.2323233,11.2089888 L79,15.0314607 L82.2525253,12.6651686 L85.5252526,15.0314607 L84.2727273,11.2089888 Z" id="Combined-Shape" fill="#002868"></path>
        </g>
    </g>
</svg>