<svg width="16" height="16" viewBox="0 0 16 16" fill="none" xmlns="http://www.w3.org/2000/svg">
<g clip-path="url(#clip0_99_18180)">
<path d="M4.28664 2.25444C4.29109 0.68566 5.60849 -0.337073 7.06643 0.129827C7.75581 0.351271 8.31444 0.348603 8.98959 0.116487C9.94139 -0.209899 10.8647 0.168957 11.3913 0.955128C11.9375 1.76887 11.885 2.60395 11.3789 3.41147C11.1912 3.71028 10.9475 3.97886 10.7055 4.23944C10.0864 4.90733 10.0188 4.89132 9.4139 4.27768C9.13459 3.99398 9.08388 3.77076 9.38988 3.48795C9.5927 3.3003 9.7795 3.0922 9.95829 2.88054C10.2536 2.53103 10.5018 2.15039 10.1095 1.72529C9.72435 1.3073 9.33918 1.48695 8.95312 1.76887C8.01289 2.45632 8.00399 2.45632 7.1456 1.79288C6.76932 1.50207 6.39038 1.32509 5.97408 1.67993C5.62361 1.97786 5.65741 2.44032 6.13242 2.92056C7.21943 4.01888 8.30732 5.11899 9.45571 6.15061C10.0481 6.68244 9.45482 6.88431 9.28225 7.20003C9.0741 7.58066 8.80546 7.67582 8.43897 7.32631C7.14915 6.09281 5.88869 4.83173 4.70917 3.49151C4.37915 3.11621 4.27686 2.65376 4.28664 2.25444Z" fill="#FED88C"/>
<path d="M13.4995 8.04758C13.6507 7.56467 14.115 7.33078 14.3659 6.92969C14.5722 6.60063 14.6959 6.28937 14.3667 5.96921C14.0616 5.67306 13.7201 5.67662 13.3963 5.91051C13.141 6.0946 12.907 6.31516 12.6873 6.54194C11.6386 7.62426 10.5978 8.71547 9.56861 9.788C8.98241 9.58435 8.80095 9.17614 8.45581 8.79284C8.96729 8.08404 9.60597 7.50598 10.21 6.90034C10.8264 6.28225 11.4464 5.66594 12.0869 5.07276C13.0316 4.19765 14.2511 4.03757 15.122 4.64499C15.9893 5.25063 16.2508 6.30893 15.742 7.50598C15.5614 7.93019 15.6477 8.24857 15.79 8.63098C16.2276 9.80046 15.9679 10.7734 15.0926 11.3755C14.204 11.9873 13.0894 11.8548 12.1652 11.0197C11.9597 10.8339 11.764 10.6347 11.5763 10.4301C11.4215 10.262 11.1582 10.0886 11.313 9.83336C11.5158 9.49897 11.7942 9.20193 12.1936 9.08899C12.3662 9.04008 12.4792 9.19749 12.5868 9.30865C12.835 9.56478 13.0609 9.84403 13.326 10.0815C13.6222 10.3465 13.9691 10.3981 14.2956 10.1268C14.6345 9.84492 14.6069 9.49897 14.3748 9.17259C14.0999 8.7875 13.7939 8.42377 13.4995 8.04758Z" fill="#FED88C"/>
<path d="M4.70463 5.86158C4.61212 6.1933 4.39952 6.32137 4.2403 6.49479C3.93074 6.83184 3.64787 6.79983 3.3312 6.49212C3.07768 6.24577 2.80993 5.99765 2.5066 5.82512C2.2095 5.65525 1.88304 5.7264 1.64732 6.00032C1.40892 6.27601 1.4018 6.59706 1.62152 6.87097C1.91684 7.23827 2.25575 7.56999 2.63025 7.97642C2.31002 8.33571 1.99423 8.67187 1.6998 9.02583C1.41248 9.37267 1.35822 9.74441 1.7078 10.085C2.06184 10.4301 2.44167 10.3572 2.76279 10.0486C3.7048 9.14233 4.62547 8.21387 5.56481 7.30408C5.90283 6.97591 6.19015 6.58817 6.64737 6.33559C6.83239 6.46455 7.02186 6.60328 7.21934 6.73135C7.68012 7.03105 7.61785 7.32098 7.25492 7.67404C6.06206 8.83462 4.92346 10.0521 3.69413 11.1718C2.70319 12.0745 1.33509 11.95 0.520279 10.993C-0.085492 10.2825 -0.133527 9.46694 0.224065 8.65498C0.434884 8.17652 0.42332 7.79143 0.23296 7.3103C-0.208247 6.19241 0.0559435 5.2844 0.907225 4.66898C1.72381 4.07936 2.9229 4.16117 3.75639 4.89399C4.10687 5.20081 4.41198 5.55921 4.70463 5.86158Z" fill="#FED78C"/>
<path d="M4.29996 13.8042C4.25816 12.6534 5.09698 12.0451 5.82195 11.3817C6.0639 11.1602 6.25604 11.4119 6.40282 11.5907C6.61986 11.8548 6.97212 12.1038 6.65633 12.5076C6.43662 12.7886 6.16887 13.0314 5.95449 13.3151C5.68585 13.6708 5.65472 14.0417 6.00342 14.3814C6.33788 14.7078 6.65455 14.5495 6.96678 14.3423C7.06552 14.2765 7.15536 14.1973 7.24787 14.1226C8.01465 13.5045 8.01376 13.5045 8.82234 14.1466C8.94599 14.2453 9.07408 14.3396 9.20484 14.4294C9.50728 14.6357 9.79282 14.6233 10.065 14.3645C10.3781 14.0666 10.3897 13.7322 10.1522 13.4049C9.96717 13.1497 9.73678 12.9264 9.5144 12.7006C8.56794 11.7392 7.64015 10.7574 6.65811 9.83335C6.17332 9.37712 6.42861 9.13611 6.74884 8.77682C7.12778 8.35261 7.38219 8.486 7.71132 8.82306C8.82234 9.95696 9.96895 11.0562 11.0684 12.2008C11.8654 13.0305 11.9828 14.1822 11.4296 15.0368C10.8558 15.9226 9.83997 16.2446 8.70937 15.7874C8.17209 15.5704 7.74957 15.6558 7.24342 15.8426C5.70453 16.4073 4.27862 15.3988 4.29996 13.8042Z" fill="#FED88C"/>
</g>
<defs>
<clipPath id="clip0_99_18180">
<rect width="16" height="16" fill="white"/>
</clipPath>
</defs>
</svg>
