<svg width="25" height="24" viewBox="0 0 25 24" fill="none" xmlns="http://www.w3.org/2000/svg">
<path d="M19.9521 3.55159C19.8381 3.58626 19.7271 3.62757 19.6183 3.67626C19.4136 4.52907 18.8622 5.30368 18.3057 5.9064C19.0858 5.77508 19.9334 5.96984 19.5951 7.39291C20.6797 8.37187 20.1119 8.99968 19.4023 9.32649C20.1006 9.53231 20.8665 9.8547 21.4658 10.3563C21.6646 10.3372 21.8604 10.3003 22.0509 10.2427C22.3839 10.1417 22.966 9.93437 23.4626 9.59797C23.8706 9.32206 24.2209 8.95984 24.3259 8.4995C24.4767 7.84145 24.0956 7.09487 23.1933 6.28043L23.1528 6.24428L23.1655 6.1919C23.4446 5.01966 23.332 4.19193 22.8302 3.73159C22.5715 3.49331 21.7726 2.99977 19.9521 3.55159ZM23.8219 7.3184L23.8661 7.3907C23.9839 7.58251 24.0731 7.79719 24.1144 8.02514C24.1542 8.2531 24.1369 8.49581 24.0536 8.71491C23.9689 8.93328 23.8339 9.12804 23.6733 9.29108C23.6321 9.33091 23.5901 9.37001 23.5473 9.40764C23.5031 9.44305 23.4603 9.48141 23.4146 9.51461C23.3238 9.58322 23.2293 9.64592 23.1318 9.70199C22.7417 9.92994 22.3157 10.0827 21.8806 10.1771C22.2924 10.0111 22.693 9.82298 23.053 9.58174C23.2308 9.45928 23.4018 9.32722 23.5451 9.17157C23.6883 9.01738 23.8076 8.84328 23.8781 8.65221C23.8886 8.6286 23.8931 8.60352 23.9014 8.57991C23.9081 8.55557 23.9179 8.53196 23.9224 8.50688L23.9366 8.43237C23.9389 8.41983 23.9419 8.40728 23.9434 8.39474L23.9464 8.35712L23.9531 8.28113C23.9554 8.25605 23.9524 8.23023 23.9524 8.20515C23.9516 8.18006 23.9516 8.15424 23.9494 8.12842L23.9396 8.05244C23.9359 8.00154 23.9224 7.95137 23.9104 7.90047C23.9014 7.84956 23.8811 7.80087 23.8654 7.75071C23.8511 7.70054 23.8271 7.65333 23.8069 7.60464C23.7964 7.5803 23.7874 7.55595 23.7754 7.5316L23.7386 7.46078C23.6396 7.27193 23.5196 7.09118 23.3838 6.92151C23.3193 6.83298 23.2458 6.75257 23.176 6.66847C23.1415 6.62568 23.1033 6.58658 23.0665 6.54601C23.0298 6.50469 22.9923 6.46412 22.9562 6.42281C23.0425 6.49141 23.131 6.55929 23.2135 6.63306C23.2953 6.70757 23.3786 6.78208 23.4543 6.86323L23.5121 6.92372L23.5406 6.95397L23.5676 6.98569L23.6756 7.11405C23.7108 7.15758 23.7416 7.20406 23.7754 7.24979C23.7904 7.27266 23.8084 7.29406 23.8219 7.3184Z" fill="#FF1938"/>
<path d="M19.5959 7.39288C19.935 5.96981 19.0866 5.77506 18.3065 5.90637C18.1692 6.05465 18.032 6.19335 17.8992 6.3195C17.7334 6.47663 17.5684 6.6227 17.4102 6.75623C17.5054 6.6109 17.5872 6.45745 17.6464 6.2981C17.7004 6.15203 17.7357 6.0008 17.7454 5.84661C17.7995 4.98053 17.5317 3.78615 15.9722 4.5615C14.6401 3.68287 14.1817 4.58216 14.073 5.40546C14.1247 5.48808 14.1742 5.56923 14.2215 5.64817C14.514 6.14539 14.7353 6.62344 14.8838 6.97681C14.7473 6.76434 14.5845 6.5504 14.3963 6.36671C14.181 6.15646 13.9312 5.98457 13.6484 5.89678C12.8068 5.63636 11.5639 5.60317 11.9525 7.27927C10.6578 8.43381 11.6952 9.10735 12.5368 9.36851C12.6868 9.41498 12.8428 9.43638 13.0011 9.43933C13.1736 9.44228 13.3484 9.42236 13.5209 9.38695C13.3379 9.48507 13.1399 9.58466 12.9313 9.67983C12.7641 9.75655 12.5833 9.83327 12.3935 9.90557C11.99 10.5747 11.8707 11.4231 13.3431 11.6215C13.8832 12.9686 14.6836 12.672 15.2476 12.1372C15.2626 11.9417 15.2836 11.7536 15.3091 11.5773C15.3879 11.0195 15.5094 10.5179 15.6129 10.1512C15.5754 10.4316 15.5589 10.7392 15.5942 11.0387C15.6294 11.3463 15.7187 11.6451 15.8935 11.8945C16.393 12.6093 17.3524 13.3884 18.0957 11.8325C19.839 11.7071 19.4429 10.5481 18.9433 9.83254C18.7693 9.58318 18.5173 9.39433 18.2383 9.25121C17.9667 9.11252 17.6682 9.01661 17.3892 8.95096C17.7747 8.9871 18.2938 9.05498 18.8518 9.1826C19.0281 9.22244 19.2141 9.27039 19.4054 9.32719C20.1127 8.99965 20.6806 8.37184 19.5959 7.39288ZM15.847 6.72082L15.6632 6.17121C15.6512 6.13802 15.5462 5.83702 15.6962 5.51095C15.7704 5.34939 15.8927 5.20996 16.0622 5.09561C16.168 5.02405 16.2918 4.96208 16.4335 4.91044C16.4733 4.89569 16.5183 4.90971 16.543 4.94364C16.7703 5.25939 16.8603 5.56333 16.8101 5.84809C16.7471 6.20072 16.489 6.39179 16.4598 6.41245L15.994 6.76582C15.9692 6.78426 15.9385 6.78943 15.9092 6.78057C15.8792 6.77172 15.8567 6.74959 15.847 6.72082ZM14.5943 9.78458L14.6116 10.363C14.6138 10.3984 14.6273 10.7163 14.3895 10.9871C14.1982 11.2054 13.902 11.3301 13.5097 11.3574C13.4669 11.3604 13.4279 11.3345 13.4144 11.2954C13.2876 10.9288 13.2891 10.6123 13.4197 10.3541C13.5029 10.1889 13.6237 10.0797 13.7257 10.0103C13.8217 9.94541 13.902 9.9159 13.9185 9.91073L14.4668 9.70196C14.4953 9.69089 14.5268 9.69458 14.5523 9.71081C14.5778 9.72704 14.5935 9.75507 14.5943 9.78458ZM12.9598 8.45004C12.6718 8.39471 12.4153 8.20364 12.197 7.88126C12.1737 7.84658 12.1767 7.80011 12.2045 7.76912C12.305 7.65773 12.4078 7.56625 12.5135 7.49469C12.6831 7.38034 12.8586 7.31764 13.0386 7.30731C13.4016 7.28665 13.6507 7.491 13.6769 7.51387L14.133 7.87904C14.1562 7.89822 14.169 7.927 14.1675 7.9565C14.1652 7.98601 14.1487 8.01331 14.1225 8.0288L13.6207 8.32979C13.5914 8.34971 13.3169 8.51865 12.9598 8.45004ZM17.6584 10.1984C17.7935 10.4544 17.8002 10.7717 17.6794 11.1398C17.6667 11.1796 17.6277 11.2054 17.5849 11.2032C17.1919 11.1826 16.8941 11.0623 16.6991 10.8469C16.4575 10.5798 16.465 10.2612 16.4673 10.2265L16.4755 9.6481C16.4763 9.61786 16.4913 9.59056 16.516 9.5736C16.5408 9.55663 16.573 9.55294 16.6016 9.56327L17.1536 9.76319C17.1866 9.77352 17.4912 9.88049 17.6584 10.1984ZM16.4208 9.34121C15.88 9.70639 15.1381 9.57138 14.7668 9.03948C14.3955 8.50758 14.5328 7.77798 15.0736 7.4128C15.6144 7.04763 16.3563 7.18263 16.7276 7.71453C17.0989 8.24569 16.9616 8.9753 16.4208 9.34121ZM18.5983 8.14167C18.2563 8.26266 17.9585 8.13651 17.9262 8.12175L17.3839 7.89896C17.3561 7.88716 17.3351 7.86355 17.3284 7.83404C17.3216 7.80453 17.3299 7.77429 17.3501 7.75216L17.7447 7.32354C17.7559 7.31026 17.8122 7.24755 17.9082 7.18263C18.0102 7.11329 18.158 7.04173 18.344 7.02476C18.6358 6.99746 18.9373 7.1096 19.2396 7.35747C19.2719 7.38403 19.2824 7.42903 19.2644 7.46739C19.0986 7.81708 18.8743 8.04429 18.5983 8.14167Z" fill="#912220"/>
<path d="M15.9715 4.56152C17.5317 3.78617 17.7994 4.98055 17.7447 5.84663C17.7349 6.00082 17.6997 6.15205 17.6457 6.29812C18.509 5.50285 19.4339 4.37635 19.5104 3.15247C19.5494 2.52983 19.5434 1.01897 18.6545 0.443544C18.0815 0.0724692 17.2369 0.159521 16.144 0.703223L16.0952 0.727568L16.0495 0.697321C15.0331 0.0267303 14.2057 -0.161389 13.5907 0.138127C13.2726 0.292311 12.521 0.854456 12.4048 2.72385C12.3853 3.03517 12.4213 3.34722 12.4978 3.65338C13.1616 4.12552 13.6897 4.79833 14.073 5.40474C14.181 4.58144 14.6393 3.68289 15.9715 4.56152ZM12.635 1.5457C12.7055 1.32512 12.7963 1.10971 12.9186 0.907572C13.0423 0.707649 13.2029 0.523956 13.4016 0.383789C13.5989 0.241408 13.8404 0.159521 14.0835 0.135176C14.3273 0.110831 14.5718 0.141815 14.8028 0.202309C14.8606 0.217801 14.9191 0.231818 14.9746 0.253211C15.0308 0.27313 15.0878 0.291573 15.1426 0.313705L15.3061 0.383051L15.3474 0.400756L15.3871 0.420675L15.4666 0.459774C15.5739 0.509939 15.6744 0.569695 15.7772 0.627975C15.8289 0.656009 15.8777 0.689206 15.9272 0.719453L16.03 0.784373L16.1402 0.732732C16.1935 0.708387 16.2452 0.681091 16.3007 0.659697C16.4095 0.614696 16.5175 0.567482 16.63 0.530596L16.7133 0.501087L16.7553 0.486332L16.7981 0.473791L16.9691 0.424363C17.0268 0.409609 17.0853 0.397805 17.1439 0.384526C17.2016 0.369772 17.2616 0.363132 17.3209 0.355017C17.5579 0.323295 17.8039 0.321082 18.0432 0.374936C18.281 0.428052 18.5105 0.538711 18.689 0.703223C18.8691 0.86626 19.0056 1.06766 19.1031 1.28086C19.1991 1.49554 19.2629 1.72054 19.3056 1.94776C19.3874 2.40294 19.3904 2.86623 19.3431 3.32067C19.3491 2.86402 19.3206 2.40663 19.2164 1.96621C19.1646 1.74636 19.0934 1.53169 18.9928 1.3325C18.8908 1.13479 18.7596 0.951836 18.5923 0.810931C18.5728 0.79175 18.5495 0.776995 18.5278 0.760765C18.5053 0.745273 18.4843 0.728306 18.4618 0.712813L18.3905 0.672239L18.3553 0.651582C18.3433 0.644205 18.3305 0.640517 18.3185 0.634615C18.2682 0.613221 18.2195 0.588138 18.167 0.574121L18.089 0.549039L18.0087 0.532071C17.7934 0.487808 17.5677 0.492972 17.3471 0.526907C17.2916 0.53576 17.2361 0.543137 17.1814 0.557154C17.1266 0.570433 17.0711 0.580761 17.0171 0.595515L16.8543 0.643467L16.8138 0.655271L16.7741 0.670025L16.6938 0.698797C16.5865 0.734945 16.4823 0.781422 16.3773 0.825685C16.324 0.846341 16.2737 0.873637 16.222 0.897244L16.0675 0.971017L16.018 0.994624L15.9722 0.965115L15.8282 0.872899C15.7802 0.842653 15.7329 0.810193 15.6834 0.782897C15.5844 0.72683 15.4876 0.667812 15.3849 0.619123L15.3091 0.580761L15.2709 0.56158L15.2319 0.544612L15.0766 0.477479C14.9708 0.43838 14.8658 0.397805 14.7571 0.369772C14.5418 0.309279 14.319 0.276819 14.1 0.295262L14.0182 0.302639L13.938 0.318131C13.8832 0.325508 13.8322 0.344689 13.7797 0.360181C13.7669 0.364608 13.7534 0.366821 13.7407 0.372723L13.7032 0.388953L13.6274 0.420675C13.6034 0.433216 13.5794 0.447233 13.5554 0.459774C13.5314 0.473053 13.5066 0.484857 13.4849 0.501824C13.3019 0.622073 13.1489 0.787323 13.0228 0.971754C12.8983 1.15766 12.8008 1.36201 12.7228 1.57374C12.5645 1.99793 12.479 2.44868 12.428 2.90238C12.4363 2.4472 12.497 1.98834 12.635 1.5457Z" fill="#FF1938"/>
<path d="M13.3415 11.6207C11.8691 11.4223 11.9884 10.5739 12.3919 9.90479C11.6208 10.1999 10.6877 10.4286 9.80485 10.3113C9.72009 10.3939 9.64058 10.4809 9.56707 10.5732C9.17552 11.0638 8.30691 12.3105 8.70596 13.2806C8.96324 13.9062 9.70884 14.3068 10.9217 14.4698L10.9757 14.4772L10.996 14.5274C11.4453 15.6472 12.0176 16.2647 12.6965 16.3621C13.0475 16.4122 13.9904 16.3702 15.1665 14.897C15.2895 14.7428 15.3946 14.5761 15.4838 14.4005C15.222 13.6701 15.1913 12.8513 15.246 12.1364C14.682 12.6712 13.8824 12.9678 13.3415 11.6207ZM14.2334 15.718C14.1449 15.7881 14.0511 15.8523 13.9544 15.9106C13.9064 15.9408 13.8546 15.9667 13.8051 15.9947C13.7541 16.0205 13.7016 16.0449 13.6491 16.0685C13.4368 16.157 13.2035 16.2123 12.9657 16.2116C12.728 16.2094 12.4909 16.1378 12.2892 16.0198C12.0874 15.9003 11.9156 15.7417 11.7761 15.5646L11.7236 15.4982C11.7056 15.4768 11.6913 15.4525 11.6748 15.4296C11.6433 15.3831 11.6103 15.3381 11.5818 15.2894L11.4986 15.1441L11.4783 15.108L11.4596 15.0703L11.4228 14.9958C11.3725 14.897 11.332 14.7944 11.29 14.6919C11.2495 14.5893 11.2165 14.4846 11.1828 14.3798C11.209 14.4285 11.2345 14.4772 11.26 14.5251C11.2855 14.5738 11.3088 14.6233 11.3373 14.6697C11.3921 14.7642 11.4423 14.8608 11.5031 14.9516C11.6156 15.1375 11.7446 15.3123 11.8879 15.4702L11.9419 15.5292C11.9606 15.5484 11.9809 15.5661 11.9996 15.5838C12.0386 15.6199 12.0754 15.6583 12.1174 15.69C12.1586 15.7225 12.1984 15.7579 12.2434 15.7844C12.2869 15.8132 12.3297 15.8435 12.3769 15.8656L12.4459 15.9017C12.4692 15.9128 12.4939 15.9217 12.5172 15.9313C12.5412 15.9401 12.5644 15.9519 12.5892 15.9593L12.6635 15.9807L12.7002 15.9917C12.713 15.9947 12.7257 15.9962 12.7385 15.9991L12.8142 16.0131C12.8397 16.0183 12.8652 16.0176 12.8907 16.0205C12.9162 16.022 12.9417 16.0257 12.968 16.0249C13.175 16.0286 13.3828 15.9814 13.5808 15.9054C13.7796 15.8302 13.9664 15.7203 14.1464 15.6008C14.5049 15.3566 14.826 15.0556 15.1313 14.7376C14.8875 15.105 14.5897 15.4414 14.2334 15.718Z" fill="#FF1938"/>
<path d="M12.5359 9.36776C11.6943 9.10734 10.6562 8.43306 11.9516 7.27853C11.5631 5.60242 12.806 5.63562 13.6476 5.89603C13.9311 5.98382 14.1802 6.15571 14.3954 6.36596C13.8441 5.26528 12.8682 3.7736 11.4851 3.34498C10.9172 3.16867 9.56708 2.84186 8.75622 3.38925C8.70372 3.42466 8.65271 3.4645 8.60545 3.50728C8.34367 3.74483 8.18615 4.08197 8.13289 4.51575C8.1659 4.35567 8.21616 4.19779 8.29266 4.04951C8.40218 3.83483 8.56645 3.64229 8.77273 3.51245C8.97675 3.3804 9.20853 3.29851 9.44256 3.25646C9.67734 3.21662 9.91512 3.20998 10.1499 3.224C10.6187 3.25646 11.0763 3.3649 11.5136 3.51983C11.065 3.404 10.606 3.32064 10.1469 3.314C9.91812 3.31031 9.68859 3.32654 9.46731 3.37376C9.24753 3.42318 9.03601 3.50433 8.85599 3.62975C8.83198 3.64376 8.81248 3.66221 8.79073 3.67917C8.76972 3.69688 8.74797 3.71311 8.72772 3.73081L8.67071 3.78836L8.64221 3.81713C8.63246 3.82672 8.62496 3.83778 8.61671 3.84811C8.5837 3.8909 8.54695 3.93074 8.52069 3.97795L8.47644 4.04951L8.44043 4.12255C8.34517 4.3173 8.29567 4.53346 8.27616 4.75256C8.26341 4.86174 8.26491 4.97314 8.26416 5.08454L8.27241 5.25126L8.27466 5.29331L8.27916 5.33536L8.28816 5.41873C8.29792 5.53012 8.31892 5.64078 8.33692 5.75144C8.34517 5.80677 8.35867 5.86136 8.36992 5.91669L8.40593 6.08194L8.41718 6.13432L8.37743 6.1712L8.25141 6.28555C8.21015 6.32465 8.16665 6.36154 8.12764 6.40211C8.04813 6.48252 7.96637 6.56146 7.89361 6.64704L7.83736 6.71048L7.8096 6.7422L7.78335 6.7754L7.67909 6.90745C7.64533 6.95245 7.61533 6.99893 7.58383 7.04467C7.55082 7.08967 7.52382 7.13836 7.49606 7.18557C7.3843 7.37664 7.29879 7.58173 7.26354 7.79493L7.25078 7.87461L7.24703 7.95502C7.24178 8.00887 7.24778 8.06199 7.25003 8.11584C7.25078 8.12912 7.25078 8.14314 7.25303 8.15568L7.25978 8.19552L7.27329 8.27519C7.28004 8.30101 7.28754 8.32683 7.29504 8.35339C7.30254 8.37921 7.30854 8.40577 7.31979 8.43085C7.39405 8.6352 7.52082 8.82111 7.67159 8.98562C7.82461 9.14939 8.00313 9.29178 8.19365 9.41793C8.57395 9.6717 8.9985 9.86204 9.43356 10.0199C8.985 9.9004 8.54695 9.73146 8.14415 9.49391C7.94387 9.37366 7.7526 9.23423 7.58383 9.06898C7.41655 8.90226 7.27404 8.70529 7.18403 8.48175C7.09101 8.25896 7.06851 8.00887 7.10377 7.77133C7.13827 7.5323 7.22828 7.3073 7.3438 7.10074C7.37305 7.0491 7.4008 6.99672 7.43531 6.94877C7.46906 6.90008 7.50057 6.84991 7.53507 6.8027L7.64308 6.66327L7.67009 6.62859L7.69934 6.5954L7.7571 6.529C7.83286 6.439 7.91612 6.35711 7.99788 6.27301C8.03763 6.23022 8.08189 6.19186 8.12464 6.15202L8.21315 6.0694V6.06866C7.31604 6.87278 6.93574 7.61272 7.08201 8.26782C7.15777 8.60864 7.53057 9.46145 9.3473 10.0236C10.5362 10.3917 11.9366 9.94614 13.001 9.43858C12.842 9.43637 12.686 9.41424 12.5359 9.36776Z" fill="#FF1938"/>
<path d="M18.0934 11.8318C17.35 13.3876 16.3914 12.6086 15.8911 11.8937C15.7171 11.6444 15.6278 11.3456 15.5918 11.038C15.354 12.2338 15.2288 13.9151 16.0209 15.0475C17.0995 16.5908 18.0379 16.6919 18.3912 16.6639C19.0752 16.6093 19.6858 16.0287 20.2064 14.9391L20.2296 14.8904L20.2844 14.8867C21.5056 14.7989 22.2752 14.4463 22.5722 13.8376C22.726 13.5234 22.966 12.6256 21.8874 11.0822C21.096 9.94983 19.4548 9.4622 18.2351 9.25269C18.5149 9.3958 18.7662 9.58466 18.9402 9.83401C19.4413 10.5474 19.8366 11.7064 18.0934 11.8318ZM22.0321 14.0022C22.1161 13.8944 22.1866 13.7764 22.2301 13.6473C22.2737 13.5189 22.2992 13.3839 22.3059 13.2467C22.3119 13.1095 22.2984 12.9708 22.2759 12.8329C22.2534 12.6949 22.2159 12.5592 22.1731 12.4242C22.1289 12.2899 22.0764 12.1578 22.0179 12.0273C21.9016 11.7668 21.7591 11.5168 21.6031 11.274C21.45 11.0328 21.261 10.8167 21.0435 10.6256C20.8275 10.433 20.5859 10.2671 20.3339 10.1158C20.6054 10.2309 20.8642 10.3777 21.1028 10.5562C21.2213 10.6462 21.3338 10.7444 21.4388 10.8506C21.5438 10.9561 21.6391 11.0741 21.7246 11.1944C21.7681 11.2541 21.8093 11.3154 21.8506 11.3766C21.8709 11.4076 21.8904 11.4393 21.9099 11.4703C21.9294 11.5013 21.9489 11.533 21.9676 11.5647C22.0441 11.6909 22.1131 11.8222 22.1791 11.955C22.2429 12.0885 22.2992 12.2264 22.3487 12.3674C22.3944 12.509 22.4357 12.6536 22.4604 12.8019C22.4837 12.9509 22.4964 13.1021 22.4882 13.2548C22.4784 13.4068 22.4507 13.5603 22.3959 13.7056C22.3427 13.8517 22.2579 13.9844 22.1589 14.1032C22.0614 14.2242 21.9369 14.3186 21.8101 14.4027C21.5506 14.565 21.261 14.6617 20.9692 14.7229C20.6767 14.7819 20.3804 14.8085 20.0849 14.8114C20.3774 14.7679 20.6669 14.7177 20.9467 14.6351C21.2258 14.5554 21.4958 14.4433 21.7283 14.2832C21.7433 14.2744 21.7576 14.2633 21.7711 14.2522L21.8123 14.2198C21.8393 14.1976 21.8679 14.1777 21.8919 14.1519L21.9661 14.0796C21.9886 14.0553 22.0104 14.028 22.0321 14.0022Z" fill="#FF1938"/>
<path d="M15.7471 9.54709C16.4042 9.54709 16.9368 9.02325 16.9368 8.37706C16.9368 7.73087 16.4042 7.20703 15.7471 7.20703C15.0901 7.20703 14.5575 7.73087 14.5575 8.37706C14.5575 9.02325 15.0901 9.54709 15.7471 9.54709Z" fill="url(#paint0_linear_99_17752)"/>
<path d="M17.5849 11.2033C17.6276 11.2055 17.6659 11.1797 17.6794 11.1399C17.8001 10.7718 17.7934 10.4545 17.6584 10.1985C17.4911 9.88058 17.1866 9.77435 17.1528 9.76328L16.6007 9.56336C16.5722 9.55303 16.5407 9.55672 16.5152 9.57369C16.4897 9.59066 16.4747 9.61869 16.4747 9.6482L16.4665 10.2266C16.465 10.262 16.4567 10.5799 16.6982 10.847C16.8933 11.0624 17.1918 11.1827 17.5849 11.2033Z" fill="#F6B6A3"/>
<path d="M17.7454 7.32282L17.3508 7.75144C17.3306 7.77357 17.3223 7.80382 17.3291 7.83332C17.3358 7.86283 17.3561 7.88644 17.3846 7.89824L17.9269 8.12104C17.9592 8.13579 18.2562 8.26194 18.599 8.14095C18.875 8.04358 19.0993 7.81636 19.2658 7.4652C19.2838 7.42758 19.2733 7.38257 19.2411 7.35528C18.9388 7.1074 18.6373 6.99527 18.3455 7.02257C18.1587 7.04027 18.0117 7.11183 17.9097 7.18044C17.8129 7.24683 17.7567 7.31028 17.7454 7.32282Z" fill="#F6B6A3"/>
<path d="M15.9932 6.76514L16.459 6.41177C16.4883 6.39111 16.7463 6.20004 16.8093 5.84741C16.8596 5.56339 16.7703 5.25945 16.5423 4.94296C16.5175 4.90903 16.4725 4.89501 16.4328 4.90976C16.291 4.96214 16.1672 5.02411 16.0615 5.09493C15.8919 5.20928 15.7697 5.34797 15.6954 5.51027C15.5462 5.83635 15.6504 6.13734 15.6624 6.17053L15.8462 6.72014C15.8559 6.74817 15.8784 6.7703 15.9077 6.77916C15.9377 6.78875 15.9692 6.78358 15.9932 6.76514Z" fill="#F6B6A3"/>
<path d="M13.6206 8.33059L14.1224 8.0296C14.1487 8.01411 14.1652 7.98681 14.1674 7.9573C14.1697 7.92779 14.1569 7.89828 14.1329 7.87984L13.6769 7.51467C13.6499 7.4918 13.4016 7.28745 13.0385 7.3081C12.8585 7.31843 12.6822 7.38114 12.5135 7.49549C12.4077 7.56705 12.3049 7.65852 12.2044 7.76992C12.1759 7.8009 12.1729 7.84738 12.1969 7.88205C12.4152 8.20444 12.6717 8.39551 12.9598 8.45084C13.3168 8.51871 13.5913 8.34977 13.6206 8.33059Z" fill="#F6B6A3"/>
<path d="M13.5096 11.3575C13.9019 11.3302 14.1982 11.2055 14.3894 10.9871C14.6272 10.7164 14.6137 10.3977 14.6115 10.363L14.5942 9.78465C14.5935 9.75514 14.5777 9.72711 14.5522 9.71088C14.5267 9.69465 14.4952 9.69096 14.4667 9.70202L13.9184 9.9108C13.9019 9.9167 13.8224 9.94547 13.7256 10.0104C13.6236 10.0797 13.5028 10.1889 13.4196 10.3542C13.289 10.6124 13.2875 10.9296 13.4143 11.2955C13.4278 11.3346 13.4668 11.3604 13.5096 11.3575Z" fill="#F6B6A3"/>
<path d="M6.21156 4.20325C6.15667 4.21926 6.10321 4.23832 6.05085 4.26079C5.95225 4.6544 5.6868 5.01191 5.41882 5.29009C5.79443 5.22948 6.20253 5.31937 6.03965 5.97617C6.56188 6.428 6.28849 6.71775 5.94683 6.86859C6.28307 6.96359 6.65181 7.11238 6.94038 7.34391C7.03608 7.33506 7.13034 7.31803 7.22208 7.29148C7.38243 7.24483 7.66269 7.14915 7.90177 6.99389C8.09824 6.86655 8.2669 6.69937 8.31747 6.4869C8.39006 6.18319 8.20659 5.83862 7.77212 5.46272L7.75262 5.44603L7.75876 5.42186C7.89311 4.88082 7.83893 4.4988 7.59732 4.28633C7.47272 4.17635 7.08809 3.94857 6.21156 4.20325ZM8.07477 5.94178L8.09608 5.97515C8.15278 6.06368 8.19576 6.16276 8.21562 6.26797C8.23476 6.37318 8.22645 6.4852 8.18637 6.58633C8.14556 6.68711 8.08055 6.777 8.00326 6.85225C7.9834 6.87063 7.96317 6.88868 7.94259 6.90604C7.92128 6.92239 7.90069 6.94009 7.87866 6.95542C7.83496 6.98708 7.78946 7.01602 7.7425 7.0419C7.5547 7.14711 7.34957 7.21759 7.1401 7.26117C7.33837 7.18456 7.53123 7.09774 7.70458 6.9864C7.79018 6.92988 7.87252 6.86893 7.9415 6.79709C8.01048 6.72593 8.06791 6.64557 8.10186 6.55739C8.10691 6.54649 8.10908 6.53491 8.11305 6.52402C8.1163 6.51278 8.121 6.50189 8.12316 6.49031L8.13003 6.45592C8.13111 6.45013 8.13255 6.44434 8.13328 6.43856L8.13472 6.42119L8.13797 6.38612C8.13905 6.37454 8.13761 6.36263 8.13761 6.35105C8.13725 6.33947 8.13725 6.32756 8.13617 6.31564L8.13147 6.28057C8.12966 6.25708 8.12316 6.23392 8.11738 6.21043C8.11305 6.18693 8.1033 6.16446 8.09572 6.14131C8.08885 6.11816 8.0773 6.09636 8.06755 6.07389C8.06249 6.06266 8.05816 6.05142 8.05238 6.04018L8.03468 6.0075C7.98701 5.92033 7.92922 5.83691 7.86385 5.7586C7.83279 5.71774 7.7974 5.68063 7.76381 5.64181C7.7472 5.62206 7.72878 5.60402 7.71108 5.58529C7.69339 5.56623 7.67533 5.5475 7.65799 5.52843C7.69953 5.5601 7.74214 5.59142 7.78187 5.62547C7.82124 5.65986 7.86132 5.69425 7.8978 5.7317L7.92561 5.75962L7.93934 5.77358L7.95234 5.78822L8.00434 5.84747C8.02132 5.86756 8.03613 5.88901 8.05238 5.91012C8.0596 5.92067 8.06827 5.93055 8.07477 5.94178Z" fill="#FF1938"/>
<path d="M6.04 5.97624C6.20324 5.31944 5.79477 5.22955 5.41917 5.29016C5.35308 5.3586 5.28699 5.42261 5.22306 5.48083C5.14325 5.55336 5.06379 5.62077 4.98759 5.6824C5.03346 5.61533 5.07282 5.54451 5.10135 5.47096C5.12736 5.40354 5.14433 5.33374 5.14903 5.26258C5.17503 4.86285 5.0461 4.3116 4.29525 4.66945C3.65384 4.26393 3.43317 4.67898 3.3808 5.05897C3.40572 5.0971 3.42956 5.13456 3.45231 5.17099C3.59316 5.40048 3.6997 5.62111 3.77121 5.78421C3.70548 5.68615 3.62711 5.58741 3.53646 5.50262C3.43281 5.40559 3.31254 5.32625 3.17639 5.28573C2.77117 5.16554 2.17273 5.15022 2.35981 5.92381C1.73646 6.45667 2.23594 6.76754 2.64115 6.88807C2.71338 6.90952 2.78851 6.91939 2.86471 6.92076C2.94778 6.92212 3.03193 6.91293 3.11499 6.89658C3.02687 6.94187 2.93152 6.98783 2.83112 7.03176C2.75058 7.06717 2.66355 7.10258 2.57217 7.13595C2.37787 7.44477 2.32045 7.83633 3.0294 7.92792C3.28943 8.54965 3.67478 8.41277 3.94637 8.16592C3.9536 8.07569 3.96371 7.98887 3.97599 7.90749C4.01391 7.65008 4.07242 7.41855 4.12226 7.24933C4.1042 7.37871 4.09625 7.5207 4.11323 7.65893C4.1302 7.80092 4.17318 7.93882 4.25733 8.0539C4.49786 8.38383 4.95978 8.74339 5.31769 8.0253C6.15701 7.96742 5.96632 7.43251 5.72579 7.10224C5.642 6.98715 5.52065 6.89999 5.3863 6.83393C5.25557 6.76992 5.11183 6.72566 4.97748 6.69535C5.16311 6.71204 5.41303 6.74336 5.68173 6.80227C5.7666 6.82065 5.85617 6.84278 5.94826 6.869C6.28884 6.71783 6.56223 6.42807 6.04 5.97624ZM4.23494 5.66606L4.14645 5.4124C4.14068 5.39707 4.09011 5.25815 4.16235 5.10766C4.1981 5.03309 4.25697 4.96874 4.33859 4.91596C4.38951 4.88294 4.4491 4.85434 4.51736 4.8305C4.5365 4.82369 4.55817 4.83016 4.57009 4.84582C4.67952 4.99155 4.72286 5.13183 4.69866 5.26326C4.66833 5.42602 4.54409 5.5142 4.53 5.52374L4.30572 5.68683C4.29381 5.69534 4.279 5.69772 4.26491 5.69364C4.25047 5.68955 4.23963 5.67934 4.23494 5.66606ZM3.63181 7.08011L3.64011 7.34705C3.6412 7.36339 3.6477 7.51014 3.53321 7.6351C3.44112 7.73588 3.29846 7.79343 3.10957 7.80603C3.08899 7.80739 3.07021 7.79547 3.06371 7.77742C3.00267 7.6082 3.00339 7.46213 3.06624 7.34296C3.10632 7.26669 3.16447 7.2163 3.21359 7.18429C3.25982 7.15433 3.29846 7.14071 3.3064 7.13833L3.57041 7.04197C3.58413 7.03686 3.5993 7.03857 3.61158 7.04606C3.62386 7.05355 3.63144 7.06649 3.63181 7.08011ZM2.84485 6.46416C2.70616 6.43863 2.58265 6.35044 2.47755 6.20165C2.46635 6.18564 2.4678 6.16419 2.48116 6.14989C2.52956 6.09848 2.57903 6.05626 2.62996 6.02323C2.71158 5.97046 2.79609 5.94151 2.88277 5.93675C3.05757 5.92721 3.17747 6.02153 3.19011 6.03208L3.4097 6.20063C3.42089 6.20948 3.42703 6.22276 3.42631 6.23638C3.42522 6.25 3.41728 6.26259 3.40464 6.26974L3.16303 6.40866C3.14894 6.41786 3.01676 6.49583 2.84485 6.46416ZM5.10713 7.27112C5.17214 7.38927 5.17539 7.53568 5.11724 7.70558C5.1111 7.72397 5.09232 7.73588 5.07174 7.73486C4.88249 7.72533 4.73911 7.66983 4.64521 7.57041C4.52892 7.44715 4.53253 7.30006 4.53361 7.28406L4.53759 7.01711C4.53795 7.00315 4.54517 6.99056 4.55709 6.98273C4.56901 6.97489 4.58454 6.97319 4.59826 6.97796L4.86407 7.07023C4.87996 7.075 5.02659 7.12437 5.10713 7.27112ZM4.51122 6.87547C4.25083 7.04401 3.89364 6.9817 3.71487 6.73621C3.5361 6.49072 3.60219 6.15398 3.86259 5.98544C4.12298 5.8169 4.48016 5.8792 4.65894 6.1247C4.83771 6.36985 4.77162 6.70659 4.51122 6.87547ZM5.55966 6.32184C5.39497 6.37768 5.25159 6.31946 5.23606 6.31265L4.97495 6.20982C4.96158 6.20437 4.95147 6.19347 4.94822 6.17986C4.94497 6.16624 4.94894 6.15228 4.9587 6.14206L5.14866 5.94424C5.15408 5.93811 5.18117 5.90917 5.2274 5.8792C5.27651 5.8472 5.34766 5.81417 5.43723 5.80634C5.57772 5.79374 5.7229 5.8455 5.86845 5.9599C5.88398 5.97216 5.88903 5.99293 5.88037 6.01063C5.80055 6.17202 5.69257 6.27689 5.55966 6.32184Z" fill="#912220"/>
<path d="M4.29489 4.6694C5.04609 4.31155 5.17503 4.8628 5.14866 5.26253C5.14397 5.33369 5.12699 5.40349 5.10099 5.47091C5.51668 5.10387 5.96199 4.58394 5.99882 4.01907C6.0176 3.7317 6.01472 3.03438 5.58675 2.7688C5.31082 2.59753 4.90416 2.63771 4.37795 2.88865L4.35448 2.89989L4.33245 2.88593C3.84308 2.57642 3.44473 2.4896 3.14858 2.62784C2.99545 2.699 2.63357 2.95845 2.57759 3.82125C2.5682 3.96493 2.58553 4.10896 2.62237 4.25026C2.942 4.46817 3.19625 4.7787 3.3808 5.05858C3.43281 4.6786 3.65347 4.26388 4.29489 4.6694ZM2.68846 3.27749C2.72241 3.17568 2.76611 3.07626 2.82498 2.98297C2.88457 2.89069 2.96186 2.80591 3.05757 2.74122C3.15255 2.67551 3.26884 2.63771 3.38586 2.62648C3.50323 2.61524 3.62097 2.62954 3.73221 2.65746C3.76001 2.66461 3.78818 2.67108 3.81491 2.68095C3.842 2.69015 3.86945 2.69866 3.89581 2.70887L3.97454 2.74088L3.99441 2.74905L4.01355 2.75824L4.05183 2.77629C4.10347 2.79944 4.15187 2.82702 4.20135 2.85392C4.22627 2.86686 4.24974 2.88218 4.27358 2.89614L4.32306 2.92611L4.37615 2.90227C4.40179 2.89103 4.42671 2.87844 4.45344 2.86856C4.5058 2.84779 4.55781 2.826 4.61198 2.80898L4.65207 2.79536L4.6723 2.78855L4.69288 2.78276L4.77523 2.75995C4.80304 2.75314 4.83121 2.74769 4.85938 2.74156C4.88718 2.73475 4.91608 2.73169 4.94461 2.72794C5.05873 2.7133 5.17719 2.71228 5.2924 2.73713C5.40689 2.76165 5.5174 2.81272 5.60336 2.88865C5.69004 2.9639 5.75577 3.05685 5.80272 3.15525C5.84894 3.25434 5.87964 3.35818 5.90023 3.46305C5.93959 3.67314 5.94104 3.88696 5.91829 4.0967C5.92118 3.88594 5.90745 3.67484 5.85725 3.47157C5.83233 3.3701 5.79802 3.27102 5.74963 3.17909C5.70051 3.08784 5.63731 3.0034 5.55677 2.93836C5.54738 2.92951 5.53618 2.9227 5.52571 2.91521C5.51487 2.90806 5.50476 2.90023 5.49393 2.89308L5.45962 2.87435L5.44264 2.86482C5.43686 2.86141 5.43073 2.85971 5.42495 2.85699C5.40075 2.84711 5.37727 2.83554 5.35199 2.82907L5.31443 2.81749L5.27579 2.80966C5.17214 2.78923 5.06343 2.79161 4.95725 2.80727C4.93052 2.81136 4.9038 2.81477 4.87743 2.82123C4.85107 2.82736 4.82434 2.83213 4.79834 2.83894L4.71997 2.86107L4.70047 2.86652L4.68132 2.87333L4.64268 2.88661C4.59104 2.90329 4.54084 2.92474 4.49027 2.94517C4.46463 2.95471 4.44043 2.9673 4.41551 2.9782L4.34112 3.01225L4.31728 3.02314L4.29525 3.00952L4.22591 2.96696C4.20279 2.953 4.18004 2.93802 4.1562 2.92542C4.10853 2.89955 4.06194 2.87231 4.01246 2.84984L3.97599 2.83213L3.95757 2.82328L3.93879 2.81545L3.86403 2.78446C3.8131 2.76642 3.76254 2.74769 3.71018 2.73475C3.60652 2.70683 3.49926 2.69185 3.3938 2.70036L3.35444 2.70377L3.31579 2.71092C3.28943 2.71432 3.26487 2.72317 3.23959 2.73032C3.23345 2.73237 3.22695 2.73339 3.22081 2.73611L3.20275 2.7436L3.16627 2.75824C3.15472 2.76403 3.14316 2.7705 3.1316 2.77629C3.12005 2.78242 3.10813 2.78787 3.09765 2.7957C3.00953 2.8512 2.93586 2.92747 2.87518 3.01259C2.81523 3.09839 2.76828 3.19271 2.73072 3.29043C2.65451 3.48621 2.61334 3.69425 2.58878 3.90365C2.59276 3.69356 2.62201 3.48178 2.68846 3.27749Z" fill="#FF1938"/>
<path d="M3.02871 7.9276C2.31976 7.836 2.37718 7.44444 2.57149 7.13562C2.20022 7.27182 1.75094 7.37737 1.32586 7.32323C1.28505 7.36136 1.24676 7.40154 1.21137 7.4441C1.02285 7.67053 0.604627 8.24595 0.796763 8.69369C0.920639 8.98243 1.27963 9.16731 1.86362 9.24256L1.88962 9.24596L1.89937 9.26912C2.11571 9.78598 2.39127 10.071 2.71812 10.1159C2.88714 10.1391 3.34111 10.1197 3.9074 9.4397C3.96663 9.36854 4.0172 9.29159 4.06017 9.21055C3.93413 8.87347 3.91932 8.49553 3.94569 8.1656C3.6741 8.41245 3.2891 8.54933 3.02871 7.9276ZM3.45813 9.81866C3.41551 9.85101 3.37036 9.88063 3.32377 9.90753C3.30066 9.92149 3.27574 9.93341 3.2519 9.94635C3.22735 9.95826 3.20206 9.9695 3.17678 9.9804C3.07458 10.0213 2.96226 10.0468 2.84777 10.0465C2.73328 10.0454 2.61916 10.0124 2.52201 9.95792C2.42486 9.90276 2.34215 9.82956 2.27498 9.74784L2.2497 9.7172C2.24103 9.70732 2.23417 9.69609 2.22622 9.68553C2.21105 9.66408 2.19516 9.64331 2.18144 9.62084L2.14135 9.55377L2.1316 9.53708L2.12257 9.51972L2.10487 9.48533C2.08067 9.4397 2.06117 9.39237 2.04095 9.34505C2.02144 9.29772 2.00555 9.24937 1.9893 9.20102C2.00194 9.22349 2.01422 9.24596 2.0265 9.2681C2.03878 9.29057 2.04998 9.31338 2.0637 9.33483C2.09006 9.37841 2.11426 9.42302 2.14352 9.4649C2.19769 9.5507 2.25981 9.6314 2.32879 9.70426L2.35479 9.7315C2.36382 9.74035 2.37357 9.74852 2.3826 9.7567C2.40138 9.77338 2.41908 9.79108 2.4393 9.80573C2.45917 9.82071 2.47831 9.83705 2.49998 9.84931C2.52092 9.86259 2.54151 9.87655 2.56426 9.88676L2.59749 9.90345C2.60868 9.90855 2.6206 9.91264 2.6318 9.91707C2.64336 9.92115 2.65455 9.9266 2.66647 9.93L2.70222 9.93988L2.71992 9.94499C2.72606 9.94635 2.7322 9.94703 2.73834 9.94839L2.77482 9.95486C2.7871 9.95724 2.79938 9.9569 2.81165 9.95826C2.82393 9.95895 2.83621 9.96065 2.84885 9.96031C2.94853 9.96201 3.04857 9.94022 3.14392 9.90515C3.23963 9.87042 3.32955 9.81969 3.41623 9.76453C3.58886 9.65183 3.74344 9.51291 3.89043 9.36616C3.77305 9.53572 3.62967 9.69098 3.45813 9.81866Z" fill="#FF1938"/>
<path d="M2.64078 6.88772C2.23556 6.76752 1.73572 6.45632 2.35944 5.92345C2.17236 5.14987 2.77079 5.16519 3.17601 5.28538C3.31253 5.3259 3.43243 5.40523 3.53608 5.50227C3.27063 4.99426 2.80077 4.3058 2.1348 4.10797C1.8614 4.0266 1.21132 3.87576 0.820908 4.1284C0.795627 4.14475 0.771069 4.16313 0.748316 4.18288C0.622272 4.29252 0.546429 4.44812 0.520787 4.64833C0.536678 4.57444 0.560875 4.50158 0.597713 4.43314C0.650442 4.33406 0.729536 4.24519 0.828854 4.18526C0.927088 4.12432 1.03869 4.08652 1.15137 4.06711C1.26441 4.04873 1.3789 4.04566 1.49194 4.05213C1.71766 4.06711 1.93797 4.11717 2.14852 4.18867C1.93255 4.13521 1.71152 4.09674 1.49049 4.09367C1.38034 4.09197 1.26983 4.09946 1.16328 4.12125C1.05747 4.14406 0.95562 4.18152 0.868942 4.2394C0.857385 4.24587 0.847995 4.25438 0.837521 4.26221C0.827409 4.27039 0.816935 4.27788 0.807184 4.28605L0.779736 4.31261L0.766012 4.32589C0.761317 4.33031 0.757706 4.33542 0.753733 4.34019C0.737842 4.35993 0.720145 4.37832 0.707505 4.40011L0.686197 4.43314L0.668861 4.46685C0.622994 4.55674 0.599158 4.6565 0.589768 4.75762C0.583628 4.80802 0.584351 4.85943 0.583989 4.91084L0.587962 4.98779L0.589046 5.0072L0.591213 5.02661L0.595546 5.06508C0.600241 5.1165 0.610354 5.16757 0.619022 5.21864C0.622994 5.24418 0.629495 5.26938 0.634912 5.29491L0.652248 5.37118L0.657665 5.39536L0.638524 5.41238L0.57785 5.46516C0.557986 5.4832 0.537039 5.50023 0.518259 5.51895C0.479976 5.55607 0.44061 5.5925 0.405578 5.632L0.378491 5.66128L0.365129 5.67592L0.352488 5.69124L0.302287 5.75219C0.286035 5.77296 0.271589 5.79441 0.25642 5.81552C0.24053 5.83629 0.227528 5.85876 0.214165 5.88055C0.160353 5.96874 0.119181 6.06339 0.102207 6.1618L0.0960669 6.19857L0.0942611 6.23568C0.091733 6.26054 0.0946223 6.28505 0.0957057 6.30991C0.0960669 6.31604 0.0960669 6.32251 0.0971504 6.32829L0.100401 6.34668L0.106902 6.38345C0.110152 6.39537 0.113764 6.40729 0.117375 6.41955C0.120987 6.43146 0.123876 6.44372 0.129293 6.4553C0.165048 6.54961 0.226083 6.63541 0.298676 6.71134C0.372352 6.78693 0.458307 6.85265 0.550041 6.91087C0.733147 7.028 0.937562 7.11584 1.14703 7.18871C0.931061 7.13355 0.720145 7.05558 0.526204 6.94594C0.429776 6.89044 0.337681 6.82609 0.25642 6.74982C0.175883 6.67287 0.107263 6.58196 0.063924 6.47879C0.0191405 6.37596 0.00830584 6.26054 0.0252802 6.1509C0.0418934 6.04058 0.0852322 5.93673 0.14085 5.8414C0.154935 5.81756 0.168298 5.79339 0.184911 5.77126C0.201163 5.74878 0.216332 5.72563 0.232945 5.70384L0.284952 5.63949L0.297953 5.62348L0.312039 5.60816L0.339848 5.57752C0.376324 5.53598 0.416413 5.49818 0.455779 5.45937C0.47492 5.43962 0.496228 5.42192 0.516814 5.40353L0.559431 5.36539V5.36505C0.127488 5.73619 -0.0556189 6.0777 0.0148067 6.38005C0.0512835 6.53735 0.230778 6.93096 1.1055 7.19041C1.67793 7.36031 2.35221 7.15466 2.86469 6.9204C2.78813 6.91938 2.71301 6.90917 2.64078 6.88772Z" fill="#FF1938"/>
<path d="M5.3166 8.02494C4.95869 8.74303 4.49714 8.38347 4.25625 8.05354C4.17246 7.93846 4.12948 7.80056 4.11214 7.65858C3.99766 8.21051 3.93734 8.98648 4.31873 9.50913C4.83807 10.2214 5.28988 10.2681 5.45998 10.2551C5.78935 10.2299 6.08334 9.96198 6.33398 9.45907L6.34518 9.4366L6.37154 9.4349C6.9595 9.39438 7.33005 9.23163 7.47307 8.95073C7.5471 8.80568 7.66267 8.39131 7.14333 7.679C6.76231 7.15636 5.9721 6.93129 5.38486 6.83459C5.51957 6.90065 5.64056 6.98781 5.72435 7.1029C5.9656 7.43215 6.15593 7.96706 5.3166 8.02494ZM7.21303 9.02666C7.25348 8.97694 7.28743 8.92247 7.30838 8.86288C7.32933 8.80364 7.34161 8.74133 7.34486 8.678C7.34775 8.61466 7.34124 8.55065 7.33041 8.48698C7.31958 8.42331 7.30152 8.36066 7.28093 8.29835C7.25962 8.23638 7.23434 8.17544 7.20617 8.11517C7.15019 7.99498 7.08157 7.87955 7.00645 7.76753C6.93278 7.65619 6.84176 7.55643 6.73703 7.46824C6.63302 7.37938 6.51672 7.30277 6.39538 7.23297C6.52611 7.28608 6.65071 7.35384 6.76556 7.43624C6.82262 7.47778 6.8768 7.52306 6.92736 7.57209C6.97792 7.62078 7.02379 7.67526 7.06496 7.73076C7.08591 7.75834 7.10577 7.7866 7.12563 7.81486C7.13539 7.82916 7.14478 7.8438 7.15417 7.8581C7.16356 7.8724 7.17295 7.88704 7.18197 7.90168C7.21881 7.95991 7.25204 8.02051 7.28382 8.0818C7.31452 8.14343 7.34161 8.2071 7.36544 8.27213C7.38747 8.33751 7.40734 8.40424 7.41925 8.47268C7.43045 8.54146 7.43659 8.61126 7.43262 8.68174C7.42792 8.75188 7.41456 8.8227 7.3882 8.88978C7.36255 8.9572 7.32174 9.01848 7.27407 9.0733C7.22712 9.12914 7.16717 9.17272 7.10613 9.21154C6.98117 9.28645 6.84177 9.33105 6.70128 9.35931C6.56042 9.38655 6.41777 9.39881 6.27547 9.40017C6.41632 9.38008 6.55573 9.35693 6.69044 9.31879C6.82479 9.28202 6.95481 9.23027 7.06677 9.15638C7.07399 9.1523 7.08085 9.14719 7.08735 9.14208L7.10721 9.1271C7.12022 9.11688 7.13394 9.10769 7.1455 9.09577L7.18125 9.06241C7.19209 9.05117 7.20256 9.03857 7.21303 9.02666Z" fill="#FF1938"/>
<path d="M4.18693 6.97041C4.50328 6.97041 4.75972 6.72864 4.75972 6.43039C4.75972 6.13215 4.50328 5.89038 4.18693 5.89038C3.87058 5.89038 3.61414 6.13215 3.61414 6.43039C3.61414 6.72864 3.87058 6.97041 4.18693 6.97041Z" fill="url(#paint1_linear_99_17752)"/>
<path d="M5.07176 7.73478C5.09234 7.7358 5.11076 7.72388 5.11726 7.70549C5.17541 7.53559 5.17216 7.38918 5.10715 7.27103C5.02661 7.12428 4.87998 7.07525 4.86373 7.07014L4.59792 6.97787C4.5842 6.9731 4.56903 6.97481 4.55675 6.98264C4.54447 6.99047 4.53725 7.00341 4.53725 7.01703L4.53327 7.28397C4.53255 7.30031 4.52858 7.44706 4.64487 7.57032C4.73877 7.66974 4.88251 7.72524 5.07176 7.73478Z" fill="#F6B6A3"/>
<path d="M5.14907 5.94377L4.9591 6.1416C4.94935 6.15181 4.94537 6.16577 4.94862 6.17939C4.95187 6.19301 4.96163 6.20391 4.97535 6.20935L5.23647 6.31218C5.252 6.31899 5.39501 6.37722 5.56006 6.32138C5.69297 6.27643 5.80095 6.17156 5.88113 6.00949C5.8898 5.99212 5.88474 5.97135 5.86921 5.95876C5.72367 5.84435 5.57848 5.7926 5.43799 5.8052C5.34806 5.81337 5.27728 5.8464 5.22816 5.87806C5.18157 5.9087 5.15448 5.93799 5.14907 5.94377Z" fill="#F6B6A3"/>
<path d="M4.30547 5.68641L4.52975 5.52332C4.54384 5.51378 4.66808 5.4256 4.69841 5.26285C4.72261 5.13176 4.67963 4.99148 4.56984 4.84541C4.55792 4.82974 4.53625 4.82328 4.51711 4.83009C4.44885 4.85426 4.38926 4.88286 4.33834 4.91555C4.25672 4.96832 4.19785 5.03233 4.16209 5.10724C4.09022 5.25774 4.14043 5.39666 4.1462 5.41198L4.23469 5.66564C4.23938 5.67858 4.25022 5.6888 4.2643 5.69288C4.27875 5.69731 4.29392 5.69492 4.30547 5.68641Z" fill="#F6B6A3"/>
<path d="M3.16309 6.40887L3.40471 6.26995C3.41735 6.2628 3.42529 6.2502 3.42638 6.23658C3.42746 6.22296 3.42132 6.20935 3.40976 6.20083L3.19018 6.03229C3.17718 6.02174 3.05764 5.92742 2.88284 5.93696C2.79616 5.94172 2.71129 5.97066 2.63003 6.02344C2.5791 6.05647 2.52962 6.09869 2.48123 6.1501C2.46751 6.1644 2.46606 6.18585 2.47762 6.20185C2.58271 6.35065 2.70623 6.43883 2.84491 6.46437C3.01682 6.4957 3.14901 6.41772 3.16309 6.40887Z" fill="#F6B6A3"/>
<path d="M3.10962 7.80592C3.2985 7.79333 3.44116 7.73578 3.53326 7.635C3.64774 7.51004 3.64124 7.36295 3.64016 7.34695L3.63185 7.08C3.63149 7.06638 3.62391 7.05345 3.61163 7.04596C3.59935 7.03846 3.58418 7.03676 3.57045 7.04187L3.30645 7.13823C3.2985 7.14095 3.26022 7.15423 3.21363 7.18419C3.16452 7.2162 3.10637 7.26659 3.06628 7.34286C3.00344 7.46203 3.00272 7.60844 3.06375 7.77732C3.07025 7.79537 3.08903 7.80729 3.10962 7.80592Z" fill="#F6B6A3"/>
<path d="M22.8782 17.0237C22.8233 17.0397 22.7698 17.0588 22.7175 17.0812C22.6189 17.4748 22.3534 17.8323 22.0854 18.1105C22.4611 18.0499 22.8692 18.1398 22.7063 18.7966C23.2285 19.2484 22.9551 19.5382 22.6135 19.689C22.9497 19.784 23.3184 19.9328 23.607 20.1643C23.7027 20.1555 23.797 20.1385 23.8887 20.1119C24.0491 20.0653 24.3293 19.9696 24.5684 19.8143C24.7649 19.687 24.9335 19.5198 24.9841 19.3073C25.0567 19.0036 24.8732 18.659 24.4387 18.2832L24.4192 18.2665L24.4254 18.2423C24.5597 17.7013 24.5056 17.3192 24.2639 17.1068C24.1393 16.9968 23.7547 16.769 22.8782 17.0237ZM24.7414 18.7622L24.7627 18.7956C24.8194 18.8841 24.8624 18.9832 24.8822 19.0884C24.9014 19.1936 24.8931 19.3056 24.853 19.4068C24.8122 19.5075 24.7472 19.5974 24.6699 19.6727C24.65 19.6911 24.6298 19.7091 24.6092 19.7265C24.5879 19.7428 24.5673 19.7605 24.5453 19.7759C24.5016 19.8075 24.4561 19.8365 24.4091 19.8623C24.2213 19.9675 24.0162 20.038 23.8067 20.0816C24.005 20.005 24.1979 19.9182 24.3712 19.8068C24.4568 19.7503 24.5391 19.6894 24.6081 19.6175C24.6771 19.5464 24.7345 19.466 24.7685 19.3778C24.7735 19.3669 24.7757 19.3553 24.7797 19.3445C24.7829 19.3332 24.7876 19.3223 24.7898 19.3107L24.7967 19.2764C24.7977 19.2706 24.7992 19.2648 24.7999 19.259L24.8013 19.2416L24.8046 19.2066C24.8057 19.195 24.8042 19.1831 24.8042 19.1715C24.8039 19.1599 24.8039 19.148 24.8028 19.1361L24.7981 19.101C24.7963 19.0775 24.7898 19.0544 24.784 19.0309C24.7797 19.0074 24.7699 18.9849 24.7623 18.9617C24.7555 18.9386 24.7439 18.9168 24.7342 18.8943C24.7291 18.8831 24.7248 18.8719 24.719 18.8606L24.7013 18.8279C24.6536 18.7408 24.5958 18.6573 24.5305 18.579C24.4994 18.5382 24.464 18.5011 24.4304 18.4622C24.4138 18.4425 24.3954 18.4245 24.3777 18.4057C24.36 18.3867 24.342 18.3679 24.3246 18.3489C24.3662 18.3805 24.4088 18.4119 24.4485 18.4459C24.4879 18.4803 24.528 18.5147 24.5644 18.5521L24.5922 18.5801L24.606 18.594L24.619 18.6087L24.671 18.6679C24.6879 18.688 24.7028 18.7094 24.719 18.7306C24.7262 18.7411 24.7349 18.751 24.7414 18.7622Z" fill="#FF1938"/>
<path d="M22.7066 18.7967C22.8699 18.1399 22.4614 18.05 22.0858 18.1106C22.0197 18.179 21.9536 18.243 21.8897 18.3013C21.8099 18.3738 21.7304 18.4412 21.6542 18.5028C21.7001 18.4358 21.7394 18.3649 21.768 18.2914C21.794 18.224 21.811 18.1542 21.8157 18.083C21.8417 17.6833 21.7127 17.132 20.9619 17.4899C20.3205 17.0844 20.0998 17.4994 20.0474 17.8794C20.0723 17.9175 20.0962 17.955 20.1189 17.9914C20.2598 18.2209 20.3663 18.4415 20.4378 18.6046C20.3721 18.5066 20.2937 18.4078 20.2031 18.3231C20.0994 18.226 19.9792 18.1467 19.843 18.1062C19.4378 17.986 18.8394 17.9707 19.0264 18.7442C18.4031 19.2771 18.9026 19.588 19.3078 19.7085C19.38 19.73 19.4551 19.7398 19.5313 19.7412C19.6144 19.7426 19.6986 19.7334 19.7816 19.717C19.6935 19.7623 19.5981 19.8083 19.4977 19.8522C19.4172 19.8876 19.3302 19.923 19.2388 19.9564C19.0445 20.2652 18.9871 20.6568 19.696 20.7484C19.9561 21.3701 20.3414 21.2332 20.613 20.9864C20.6202 20.8961 20.6303 20.8093 20.6426 20.7279C20.6805 20.4705 20.739 20.239 20.7889 20.0698C20.7708 20.1991 20.7629 20.3411 20.7799 20.4794C20.7968 20.6214 20.8398 20.7592 20.924 20.8743C21.1645 21.2043 21.6264 21.5638 21.9843 20.8457C22.8236 20.7879 22.6329 20.2529 22.3924 19.9227C22.3086 19.8076 22.1873 19.7204 22.0529 19.6544C21.9222 19.5904 21.7785 19.5461 21.6441 19.5158C21.8297 19.5325 22.0797 19.5638 22.3484 19.6227C22.4332 19.6411 22.5228 19.6632 22.6149 19.6894C22.9555 19.5383 23.2289 19.2485 22.7066 18.7967ZM20.9016 18.4865L20.8131 18.2328C20.8073 18.2175 20.7567 18.0786 20.829 17.9281C20.8647 17.8535 20.9236 17.7892 21.0052 17.7364C21.0561 17.7034 21.1157 17.6748 21.184 17.6509C21.2031 17.6441 21.2248 17.6506 21.2367 17.6663C21.3461 17.812 21.3895 17.9523 21.3653 18.0837C21.335 18.2464 21.2107 18.3346 21.1966 18.3442L20.9724 18.5073C20.9604 18.5158 20.9456 18.5182 20.9315 18.5141C20.9171 18.51 20.9063 18.4998 20.9016 18.4865ZM20.2984 19.9005L20.3067 20.1675C20.3078 20.1838 20.3143 20.3306 20.1998 20.4555C20.1077 20.5563 19.9651 20.6139 19.7762 20.6265C19.7556 20.6278 19.7368 20.6159 19.7303 20.5979C19.6693 20.4286 19.67 20.2826 19.7329 20.1634C19.7729 20.0871 19.8311 20.0367 19.8802 20.0047C19.9264 19.9748 19.9651 19.9611 19.973 19.9588L20.237 19.8624C20.2508 19.8573 20.2659 19.859 20.2782 19.8665C20.2905 19.874 20.2981 19.8869 20.2984 19.9005ZM19.5115 19.2846C19.3728 19.2591 19.2493 19.1709 19.1442 19.0221C19.133 19.0061 19.1344 18.9846 19.1478 18.9703C19.1962 18.9189 19.2457 18.8767 19.2966 18.8437C19.3782 18.7909 19.4627 18.7619 19.5494 18.7572C19.7242 18.7476 19.8441 18.842 19.8567 18.8525L20.0763 19.0211C20.0875 19.0299 20.0937 19.0432 20.0929 19.0568C20.0919 19.0704 20.0839 19.083 20.0713 19.0902L19.8297 19.2291C19.8156 19.2383 19.6834 19.3163 19.5115 19.2846ZM21.7738 20.0916C21.8388 20.2097 21.842 20.3561 21.7839 20.526C21.7777 20.5444 21.7589 20.5563 21.7384 20.5553C21.5491 20.5458 21.4057 20.4903 21.3118 20.3908C21.1955 20.2676 21.1992 20.1205 21.2002 20.1045L21.2042 19.8375C21.2046 19.8236 21.2118 19.811 21.2237 19.8032C21.2356 19.7953 21.2512 19.7936 21.2649 19.7984L21.5307 19.8907C21.5466 19.8954 21.6932 19.9448 21.7738 20.0916ZM21.1778 19.6959C20.9175 19.8644 20.5603 19.8021 20.3815 19.5566C20.2027 19.3112 20.2688 18.9744 20.5292 18.8059C20.7896 18.6373 21.1468 18.6996 21.3256 18.9451C21.5043 19.1903 21.4382 19.527 21.1778 19.6959ZM22.2263 19.1423C22.0616 19.1981 21.9182 19.1399 21.9027 19.1331L21.6416 19.0303C21.6282 19.0248 21.6181 19.0139 21.6148 19.0003C21.6116 18.9867 21.6156 18.9727 21.6253 18.9625L21.8153 18.7647C21.8207 18.7585 21.8478 18.7296 21.894 18.6996C21.9431 18.6676 22.0143 18.6346 22.1039 18.6268C22.2443 18.6142 22.3895 18.6659 22.5351 18.7803C22.5506 18.7926 22.5557 18.8134 22.547 18.8311C22.4672 18.9925 22.3592 19.0973 22.2263 19.1423Z" fill="#912220"/>
<path d="M20.9615 17.4898C21.7127 17.132 21.8417 17.6832 21.8153 18.083C21.8106 18.1541 21.7936 18.2239 21.7676 18.2913C22.1833 17.9243 22.6286 17.4044 22.6655 16.8395C22.6842 16.5521 22.6813 15.8548 22.2534 15.5892C21.9774 15.418 21.5708 15.4581 21.0446 15.7091L21.0211 15.7203L20.9991 15.7064C20.5097 15.3969 20.1114 15.31 19.8152 15.4483C19.6621 15.5194 19.3002 15.7789 19.2442 16.6417C19.2348 16.7854 19.2522 16.9294 19.289 17.0707C19.6086 17.2886 19.8629 17.5991 20.0474 17.879C20.0994 17.499 20.3201 17.0843 20.9615 17.4898ZM19.3551 16.0979C19.389 15.9961 19.4327 15.8967 19.4916 15.8034C19.5512 15.7111 19.6285 15.6263 19.7242 15.5617C19.8192 15.4959 19.9355 15.4581 20.0525 15.4469C20.1699 15.4357 20.2876 15.45 20.3988 15.4779C20.4266 15.485 20.4548 15.4915 20.4815 15.5014C20.5086 15.5106 20.5361 15.5191 20.5624 15.5293L20.6412 15.5613L20.661 15.5695L20.6802 15.5787L20.7185 15.5967C20.7701 15.6199 20.8185 15.6475 20.868 15.6744C20.8929 15.6873 20.9164 15.7026 20.9402 15.7166L20.9897 15.7465L21.0428 15.7227C21.0684 15.7115 21.0933 15.6989 21.1201 15.689C21.1724 15.6682 21.2244 15.6464 21.2786 15.6294L21.3187 15.6158L21.3389 15.609L21.3595 15.6032L21.4419 15.5804C21.4697 15.5736 21.4978 15.5681 21.526 15.562C21.5538 15.5552 21.5827 15.5521 21.6112 15.5484C21.7254 15.5337 21.8438 15.5327 21.959 15.5576C22.0735 15.5821 22.184 15.6332 22.27 15.7091C22.3567 15.7843 22.4224 15.8773 22.4693 15.9757C22.5156 16.0748 22.5463 16.1786 22.5669 16.2835C22.6062 16.4936 22.6077 16.7074 22.5849 16.9171C22.5878 16.7064 22.5741 16.4953 22.5239 16.292C22.499 16.1905 22.4646 16.0915 22.4163 15.9995C22.3671 15.9083 22.3039 15.8238 22.2234 15.7588C22.214 15.7499 22.2028 15.7431 22.1923 15.7356C22.1815 15.7285 22.1714 15.7207 22.1606 15.7135L22.1262 15.6948L22.1093 15.6853C22.1035 15.6818 22.0974 15.6801 22.0916 15.6774C22.0674 15.6675 22.0439 15.656 22.0186 15.6495L21.9811 15.6379L21.9424 15.6301C21.8388 15.6097 21.7301 15.612 21.6239 15.6277C21.5971 15.6318 21.5704 15.6352 21.5441 15.6417C21.5177 15.6478 21.491 15.6526 21.465 15.6594L21.3866 15.6815L21.3671 15.687L21.348 15.6938L21.3093 15.707C21.2577 15.7237 21.2075 15.7452 21.1569 15.7656C21.1313 15.7751 21.1071 15.7877 21.0821 15.7986L21.0077 15.8327L20.9839 15.8436L20.9619 15.83L20.8925 15.7874C20.8694 15.7734 20.8467 15.7585 20.8228 15.7459C20.7752 15.72 20.7286 15.6927 20.6791 15.6703L20.6426 15.6526L20.6242 15.6437L20.6054 15.6359L20.5307 15.6049C20.4797 15.5869 20.4292 15.5681 20.3768 15.5552C20.2731 15.5273 20.1659 15.5123 20.0604 15.5208L20.0211 15.5242L19.9824 15.5314C19.9561 15.5348 19.9315 15.5436 19.9062 15.5508C19.9001 15.5528 19.8936 15.5538 19.8874 15.5565L19.8694 15.564L19.8329 15.5787C19.8213 15.5845 19.8098 15.5909 19.7982 15.5967C19.7867 15.6029 19.7748 15.6083 19.7643 15.6161C19.6762 15.6716 19.6025 15.7479 19.5418 15.833C19.4819 15.9188 19.4349 16.0131 19.3973 16.1109C19.3211 16.3066 19.28 16.5147 19.2554 16.7241C19.2594 16.514 19.2886 16.3022 19.3551 16.0979Z" fill="#FF1938"/>
<path d="M19.6953 20.748C18.9864 20.6564 19.0438 20.2649 19.2381 19.9561C18.8668 20.0922 18.4176 20.1978 17.9925 20.1437C17.9517 20.1818 17.9134 20.222 17.878 20.2645C17.6895 20.491 17.2713 21.0664 17.4634 21.5141C17.5873 21.8029 17.9463 21.9877 18.5302 22.063L18.5562 22.0664L18.566 22.0896C18.7823 22.6064 19.0579 22.8914 19.3847 22.9363C19.5538 22.9595 20.0077 22.9401 20.574 22.2601C20.6333 22.189 20.6838 22.112 20.7268 22.031C20.6008 21.6939 20.5859 21.316 20.6123 20.986C20.3407 21.2329 19.9557 21.3698 19.6953 20.748ZM20.1248 22.6391C20.0821 22.6714 20.037 22.7011 19.9904 22.728C19.9673 22.7419 19.9424 22.7538 19.9185 22.7668C19.894 22.7787 19.8687 22.7899 19.8434 22.8008C19.7412 22.8417 19.6289 22.8672 19.5144 22.8669C19.3999 22.8659 19.2858 22.8328 19.1886 22.7784C19.0915 22.7232 19.0088 22.65 18.9416 22.5683L18.9163 22.5376C18.9077 22.5278 18.9008 22.5165 18.8928 22.506C18.8777 22.4845 18.8618 22.4637 18.8481 22.4413L18.808 22.3742L18.7982 22.3575L18.7892 22.3402L18.7715 22.3058C18.7473 22.2601 18.7278 22.2128 18.7076 22.1655C18.6881 22.1182 18.6722 22.0698 18.6559 22.0215C18.6686 22.0439 18.6808 22.0664 18.6931 22.0885C18.7054 22.111 18.7166 22.1338 18.7303 22.1553C18.7567 22.1988 18.7809 22.2435 18.8101 22.2853C18.8643 22.3711 18.9264 22.4518 18.9954 22.5247L19.0214 22.5519C19.0304 22.5608 19.0402 22.569 19.0492 22.5771C19.068 22.5938 19.0857 22.6115 19.1059 22.6262C19.1258 22.6411 19.1449 22.6575 19.1666 22.6697C19.1875 22.683 19.2081 22.697 19.2309 22.7072L19.2641 22.7239C19.2753 22.729 19.2872 22.7331 19.2984 22.7375C19.31 22.7416 19.3212 22.747 19.3331 22.7504L19.3689 22.7603L19.3865 22.7654C19.3927 22.7668 19.3988 22.7675 19.405 22.7688L19.4414 22.7753C19.4537 22.7777 19.466 22.7773 19.4783 22.7787C19.4906 22.7794 19.5028 22.7811 19.5155 22.7807C19.6152 22.7824 19.7152 22.7607 19.8105 22.7256C19.9063 22.6909 19.9962 22.6401 20.0829 22.585C20.2555 22.4723 20.4101 22.3333 20.5571 22.1866C20.4397 22.3562 20.2963 22.5114 20.1248 22.6391Z" fill="#FF1938"/>
<path d="M19.3074 19.7082C18.9022 19.588 18.4023 19.2768 19.0261 18.7439C18.839 17.9703 19.4374 17.9856 19.8426 18.1058C19.9792 18.1463 20.0991 18.2257 20.2027 18.3227C19.9373 17.8147 19.4674 17.1262 18.8014 16.9284C18.528 16.847 17.8779 16.6962 17.4875 16.9488C17.4623 16.9652 17.4377 16.9836 17.4149 17.0033C17.2889 17.113 17.2131 17.2686 17.1874 17.4688C17.2033 17.3949 17.2275 17.322 17.2643 17.2536C17.3171 17.1545 17.3962 17.0656 17.4955 17.0057C17.5937 16.9448 17.7053 16.907 17.818 16.8875C17.931 16.8692 18.0455 16.8661 18.1586 16.8726C18.3843 16.8875 18.6046 16.9376 18.8151 17.0091C18.5992 16.9556 18.3781 16.9172 18.1571 16.9141C18.047 16.9124 17.9365 16.9199 17.8299 16.9417C17.7241 16.9645 17.6222 17.002 17.5356 17.0598C17.524 17.0663 17.5146 17.0748 17.5041 17.0826C17.494 17.0908 17.4836 17.0983 17.4738 17.1065L17.4464 17.133L17.4326 17.1463C17.4279 17.1507 17.4243 17.1559 17.4204 17.1606C17.4045 17.1804 17.3868 17.1988 17.3741 17.2205L17.3528 17.2536L17.3355 17.2873C17.2896 17.3772 17.2658 17.4769 17.2564 17.5781C17.2503 17.6285 17.251 17.6799 17.2506 17.7313L17.2546 17.8082L17.2557 17.8276L17.2578 17.847L17.2622 17.8855C17.2669 17.9369 17.277 17.988 17.2856 18.0391C17.2896 18.0646 17.2961 18.0898 17.3015 18.1153L17.3189 18.1916L17.3243 18.2158L17.3052 18.2328L17.2445 18.2856C17.2246 18.3036 17.2037 18.3207 17.1849 18.3394C17.1466 18.3765 17.1072 18.4129 17.0722 18.4524L17.0451 18.4817L17.0318 18.4964L17.0191 18.5117L16.9689 18.5726C16.9527 18.5934 16.9382 18.6148 16.923 18.636C16.9072 18.6567 16.8942 18.6792 16.8808 18.701C16.827 18.7892 16.7858 18.8838 16.7688 18.9822L16.7627 19.019L16.7609 19.0561C16.7584 19.081 16.7612 19.1055 16.7623 19.1303C16.7627 19.1365 16.7627 19.1429 16.7638 19.1487L16.767 19.1671L16.7735 19.2039C16.7768 19.2158 16.7804 19.2277 16.784 19.24C16.7876 19.2519 16.7905 19.2642 16.7959 19.2757C16.8317 19.37 16.8927 19.4558 16.9653 19.5318C17.039 19.6074 17.1249 19.6731 17.2167 19.7313C17.3998 19.8484 17.6042 19.9363 17.8137 20.0091C17.5977 19.954 17.3868 19.876 17.1928 19.7664C17.0964 19.7109 17.0043 19.6465 16.923 19.5703C16.8425 19.4933 16.7739 19.4024 16.7305 19.2992C16.6858 19.1964 16.6749 19.081 16.6919 18.9713C16.7085 18.861 16.7519 18.7572 16.8075 18.6618C16.8216 18.638 16.8349 18.6138 16.8515 18.5917C16.8678 18.5692 16.883 18.5461 16.8996 18.5243L16.9516 18.4599L16.9646 18.4439L16.9787 18.4286L17.0065 18.398C17.043 18.3564 17.083 18.3186 17.1224 18.2798C17.1415 18.2601 17.1629 18.2424 17.1834 18.224L17.2261 18.1858V18.1855C16.7941 18.5566 16.611 18.8981 16.6814 19.2005C16.7179 19.3578 16.8974 19.7514 17.7721 20.0108C18.3446 20.1807 19.0188 19.9751 19.5313 19.7408C19.4548 19.7398 19.3796 19.7296 19.3074 19.7082Z" fill="#FF1938"/>
<path d="M21.9832 20.8454C21.6253 21.5635 21.1638 21.2039 20.9229 20.874C20.8391 20.7589 20.7961 20.621 20.7788 20.479C20.6643 21.0309 20.604 21.8069 20.9854 22.3296C21.5047 23.0419 21.9565 23.0885 22.1266 23.0756C22.456 23.0504 22.75 22.7824 23.0006 22.2795L23.0118 22.257L23.0382 22.2553C23.6261 22.2148 23.9967 22.0521 24.1397 21.7712C24.2137 21.6261 24.3293 21.2117 23.81 20.4994C23.4289 19.9768 22.6387 19.7517 22.0515 19.655C22.1862 19.7211 22.3072 19.8082 22.391 19.9233C22.6322 20.2526 22.8226 20.7875 21.9832 20.8454ZM23.8797 21.8471C23.9201 21.7974 23.9541 21.7429 23.975 21.6833C23.996 21.6241 24.0082 21.5618 24.0115 21.4984C24.0144 21.4351 24.0079 21.3711 23.997 21.3074C23.9862 21.2437 23.9681 21.1811 23.9476 21.1188C23.9262 21.0568 23.901 20.9959 23.8728 20.9356C23.8168 20.8154 23.7482 20.7 23.6731 20.588C23.5994 20.4766 23.5084 20.3769 23.4037 20.2887C23.2996 20.1998 23.1834 20.1232 23.062 20.0534C23.1927 20.1065 23.3173 20.1743 23.4322 20.2567C23.4892 20.2982 23.5434 20.3435 23.594 20.3925C23.6445 20.4412 23.6904 20.4957 23.7316 20.5512C23.7525 20.5788 23.7724 20.607 23.7923 20.6353C23.802 20.6496 23.8114 20.6642 23.8208 20.6785C23.8302 20.6928 23.8396 20.7075 23.8486 20.7221C23.8854 20.7803 23.9187 20.8409 23.9504 20.9022C23.9811 20.9639 24.0082 21.0275 24.0321 21.0926C24.0541 21.1579 24.074 21.2247 24.0859 21.2931C24.0971 21.3619 24.1032 21.4317 24.0992 21.5022C24.0945 21.5723 24.0812 21.6431 24.0548 21.7102C24.0292 21.7776 23.9884 21.8389 23.9407 21.8937C23.8937 21.9496 23.8338 21.9932 23.7728 22.032C23.6478 22.1069 23.5084 22.1515 23.3679 22.1797C23.2271 22.207 23.0844 22.2192 22.9421 22.2206C23.0829 22.2005 23.2224 22.1774 23.3571 22.1392C23.4914 22.1025 23.6214 22.0507 23.7334 21.9768C23.7406 21.9727 23.7475 21.9676 23.754 21.9625L23.7738 21.9475C23.7868 21.9373 23.8006 21.9281 23.8121 21.9162L23.8479 21.8828C23.8587 21.8716 23.8692 21.859 23.8797 21.8471Z" fill="#FF1938"/>
<path d="M20.8536 19.7908C21.1699 19.7908 21.4264 19.5491 21.4264 19.2508C21.4264 18.9526 21.1699 18.7108 20.8536 18.7108C20.5372 18.7108 20.2808 18.9526 20.2808 19.2508C20.2808 19.5491 20.5372 19.7908 20.8536 19.7908Z" fill="url(#paint2_linear_99_17752)"/>
<path d="M21.7384 20.5552C21.759 20.5562 21.7774 20.5443 21.7839 20.5259C21.842 20.356 21.8388 20.2096 21.7738 20.0915C21.6932 19.9447 21.5466 19.8957 21.5304 19.8906L21.2645 19.7983C21.2508 19.7935 21.2357 19.7952 21.2234 19.8031C21.2111 19.8109 21.2039 19.8238 21.2039 19.8375L21.1999 20.1044C21.1992 20.1207 21.1952 20.2675 21.3115 20.3908C21.4054 20.4902 21.5491 20.5457 21.7384 20.5552Z" fill="#F6B6A3"/>
<path d="M21.8157 18.7642L21.6257 18.962C21.616 18.9722 21.612 18.9862 21.6152 18.9998C21.6185 19.0134 21.6283 19.0243 21.642 19.0298L21.9031 19.1326C21.9186 19.1394 22.0616 19.1977 22.2267 19.1418C22.3596 19.0969 22.4676 18.992 22.5478 18.8299C22.5564 18.8126 22.5514 18.7918 22.5358 18.7792C22.3903 18.6648 22.2451 18.613 22.1046 18.6256C22.0147 18.6338 21.9439 18.6668 21.8948 18.6985C21.8482 18.7291 21.8211 18.7584 21.8157 18.7642Z" fill="#F6B6A3"/>
<path d="M20.9721 18.5068L21.1964 18.3438C21.2105 18.3342 21.3347 18.246 21.365 18.0833C21.3892 17.9522 21.3463 17.8119 21.2365 17.6658C21.2245 17.6502 21.2029 17.6437 21.1837 17.6505C21.1155 17.6747 21.0559 17.7033 21.005 17.736C20.9233 17.7888 20.8645 17.8528 20.8287 17.9277C20.7569 18.0782 20.8071 18.2171 20.8128 18.2324L20.9013 18.4861C20.906 18.499 20.9168 18.5092 20.9309 18.5133C20.9454 18.5177 20.9605 18.5154 20.9721 18.5068Z" fill="#F6B6A3"/>
<path d="M19.8297 19.2293L20.0713 19.0904C20.084 19.0832 20.0919 19.0706 20.093 19.057C20.0941 19.0434 20.0879 19.0298 20.0764 19.0213L19.8568 18.8527C19.8438 18.8422 19.7243 18.7479 19.5495 18.7574C19.4628 18.7622 19.3779 18.7911 19.2967 18.8439C19.2457 18.8769 19.1963 18.9191 19.1479 18.9705C19.1341 18.9848 19.1327 19.0063 19.1442 19.0223C19.2493 19.1711 19.3729 19.2593 19.5115 19.2848C19.6835 19.3161 19.8156 19.2382 19.8297 19.2293Z" fill="#F6B6A3"/>
<path d="M19.7762 20.6264C19.9651 20.6138 20.1078 20.5562 20.1999 20.4554C20.3144 20.3305 20.3079 20.1834 20.3068 20.1674L20.2985 19.9004C20.2981 19.8868 20.2905 19.8739 20.2783 19.8664C20.266 19.8589 20.2508 19.8572 20.2371 19.8623L19.9731 19.9587C19.9651 19.9614 19.9268 19.9747 19.8803 20.0046C19.8311 20.0366 19.773 20.087 19.7329 20.1633C19.6701 20.2825 19.6693 20.4289 19.7304 20.5978C19.7369 20.6158 19.7557 20.6277 19.7762 20.6264Z" fill="#F6B6A3"/>
<defs>
<linearGradient id="paint0_linear_99_17752" x1="22.9777" y1="3.48852" x2="8.68396" y2="13.4791" gradientUnits="userSpaceOnUse">
<stop stop-color="#A57D24"/>
<stop offset="0.1507" stop-color="#A57D24"/>
<stop offset="0.4483" stop-color="#D8BE62"/>
<stop offset="0.6129" stop-color="#F1DD80"/>
<stop offset="0.7204" stop-color="#FBF2A8"/>
<stop offset="0.8387" stop-color="#F1DD80"/>
<stop offset="1" stop-color="#A57D24"/>
</linearGradient>
<linearGradient id="paint1_linear_99_17752" x1="7.66833" y1="4.17415" x2="0.979935" y2="9.05095" gradientUnits="userSpaceOnUse">
<stop stop-color="#A57D24"/>
<stop offset="0.1507" stop-color="#A57D24"/>
<stop offset="0.4483" stop-color="#D8BE62"/>
<stop offset="0.6129" stop-color="#F1DD80"/>
<stop offset="0.7204" stop-color="#FBF2A8"/>
<stop offset="0.8387" stop-color="#F1DD80"/>
<stop offset="1" stop-color="#A57D24"/>
</linearGradient>
<linearGradient id="paint2_linear_99_17752" x1="24.335" y1="16.9946" x2="17.6466" y2="21.8714" gradientUnits="userSpaceOnUse">
<stop stop-color="#A57D24"/>
<stop offset="0.1507" stop-color="#A57D24"/>
<stop offset="0.4483" stop-color="#D8BE62"/>
<stop offset="0.6129" stop-color="#F1DD80"/>
<stop offset="0.7204" stop-color="#FBF2A8"/>
<stop offset="0.8387" stop-color="#F1DD80"/>
<stop offset="1" stop-color="#A57D24"/>
</linearGradient>
</defs>
</svg>
