<svg width="26" height="22" viewBox="0 0 26 22" fill="none" xmlns="http://www.w3.org/2000/svg">
<g clip-path="url(#clip0_43_4120)">
<path d="M7.51387 18.4095C7.51387 18.4095 8.39564 19.2047 8.59393 19.6277C8.79222 20.0506 8.56839 20.411 8.55638 20.7118C8.54436 21.0126 8.54887 21.303 8.31753 21.4519C8.0862 21.6023 7.90143 21.6277 7.72267 21.8138C7.54541 22 7.19991 22.0193 6.87093 21.924C6.54196 21.8302 5.83593 21.2315 5.58657 21.0394C5.33571 20.8473 5.04429 20.6865 5.08184 20.2516C5.11939 19.8168 5.11639 19.3983 5.15244 19.0275C5.18849 18.6567 5.29665 18.4988 5.42283 17.9955C5.54902 17.4921 5.3282 16.9843 5.42434 16.8369C5.52048 16.688 7.51387 18.4095 7.51387 18.4095Z" fill="#FFF8A9"/>
<path d="M6.87245 18.2933C7.12933 18.5584 7.54543 18.8324 7.81132 19.1273C8.0772 19.4222 8.36111 20.0089 8.25145 20.5495C8.1418 21.0901 8.08321 21.0469 7.77827 21.1496C7.47333 21.2524 7.78728 21.6783 7.26002 21.6441C6.73275 21.6098 6.19497 21.2107 5.94411 20.819C5.69324 20.4274 5.44388 20.2248 5.36577 19.8347C5.28766 19.4445 5.21405 19.3224 5.29216 18.758C5.37028 18.1936 5.61363 17.5458 5.58809 17.2732C5.56256 17.0007 6.6261 18.0387 6.87245 18.2933Z" fill="#FFDF52"/>
<path d="M6.87243 18.2933C7.1293 18.5584 7.17888 18.8592 7.44476 19.1541C7.71065 19.449 7.99606 19.8779 7.8864 20.4184C7.77674 20.959 7.70314 20.7714 7.39819 20.8756C7.09325 20.9799 7.09626 20.4601 6.77629 20.8771C6.54195 21.1824 6.19345 21.2122 5.94258 20.819C5.69172 20.4259 5.44236 20.2248 5.36424 19.8347C5.28613 19.4445 5.21252 19.3224 5.29064 18.758C5.36875 18.1936 5.6121 17.5458 5.58657 17.2732C5.56253 17.0007 6.62607 18.0387 6.87243 18.2933Z" fill="#FFF375"/>
<path d="M7.51386 18.4094C7.72717 18.603 7.93296 18.8041 8.12975 19.0156C8.31902 19.2285 8.52933 19.4415 8.63148 19.7125C8.73362 19.991 8.6465 20.2844 8.58491 20.5613C8.53083 20.8383 8.61345 21.1615 8.40915 21.3938C8.3055 21.4995 8.1658 21.5532 8.03661 21.6202C7.90142 21.6797 7.79326 21.7661 7.68961 21.8689C7.57094 21.9627 7.41772 21.9954 7.27201 21.9999C6.97457 22.0148 6.68916 21.8972 6.45332 21.7274C6.09129 21.4876 5.76532 21.2002 5.41682 20.9456C5.30265 20.8577 5.18698 20.7564 5.12089 20.6209C5.05179 20.4884 5.04728 20.3305 5.0638 20.1876C5.08634 19.9031 5.09385 19.6157 5.11037 19.3283C5.12089 19.0409 5.16145 18.7505 5.26359 18.4794C5.35072 18.2084 5.45287 17.9359 5.45137 17.6485C5.45287 17.5055 5.43634 17.364 5.41832 17.2211C5.41231 17.1392 5.3402 16.7937 5.46639 16.822C5.73528 16.9336 5.95159 17.1377 6.18293 17.3074C6.63658 17.6619 7.07672 18.0342 7.51386 18.4094ZM7.51386 18.4094C7.07522 18.0357 6.63208 17.6663 6.17692 17.3119C6.00567 17.1809 5.83292 17.0498 5.65115 16.9336C5.58356 16.8964 5.51596 16.8398 5.43785 16.8368C5.43484 16.8368 5.43334 16.8398 5.43184 16.8413C5.4048 16.8919 5.4078 16.95 5.41081 17.0066C5.43033 17.2211 5.4769 17.4325 5.4754 17.6485C5.47991 17.9389 5.37926 18.2173 5.29514 18.4899C5.196 18.7624 5.16295 19.0424 5.15243 19.3298C5.13741 19.6157 5.1314 19.9031 5.11037 20.189C5.09535 20.329 5.09986 20.4705 5.16445 20.5971C5.22604 20.7222 5.3342 20.8175 5.44686 20.9024C5.79536 21.16 6.11833 21.4474 6.47735 21.6872C6.71019 21.8555 6.97908 21.9686 7.269 21.9582C7.41021 21.9552 7.55441 21.9255 7.66558 21.8391C7.76772 21.7393 7.8879 21.647 8.02159 21.5904C8.14778 21.5278 8.28898 21.4742 8.38812 21.3744C8.58791 21.1526 8.5098 20.8264 8.56688 20.5554C8.62997 20.2799 8.72311 19.991 8.62246 19.7125C8.52182 19.443 8.31301 19.2285 8.12524 19.0156C7.93146 18.8056 7.72566 18.6045 7.51386 18.4094Z" fill="#E5A316"/>
<path d="M5.62265 17.0678C5.87652 17.4058 6.10635 17.7781 6.44885 18.0342C6.67868 18.204 6.94456 18.3083 7.20895 18.414C7.47033 18.5242 7.7287 18.6508 8.00811 18.6999C8.14631 18.7237 8.28901 18.7267 8.42121 18.6806C8.68409 18.5823 8.92444 18.417 9.14526 18.2457C9.33904 18.0908 9.52981 17.9285 9.68604 17.7364C9.78819 17.592 9.85879 17.4281 9.90986 17.2599C9.97896 16.9993 10.036 16.6835 9.87531 16.4468C9.74763 16.2785 9.5869 16.1206 9.5223 15.9121C9.48174 15.7751 9.54033 15.6262 9.50428 15.4907C9.48925 15.4252 9.44719 15.373 9.3811 15.3552C9.30749 15.3403 9.23088 15.3075 9.19182 15.239C9.15277 15.172 9.14225 15.0975 9.13174 15.0275C9.13174 14.8831 9.01607 14.7893 8.89439 14.7267C8.77121 14.6642 8.63151 14.6329 8.49181 14.624C8.3506 14.618 8.20489 14.6404 8.06218 14.6255C7.84737 14.6121 7.64308 14.5361 7.43277 14.5867C7.1789 14.6314 7.14736 14.831 7.02568 15.0171C6.94306 15.1377 6.8334 15.2375 6.71173 15.3165C6.24455 15.6381 5.76535 15.9568 5.35376 16.347C5.30118 16.3961 5.26663 16.4587 5.28766 16.5316C5.34474 16.7357 5.48895 16.9054 5.62265 17.0678ZM5.61964 17.0707C5.48294 16.9099 5.33723 16.7401 5.28015 16.5331C5.25762 16.4602 5.29367 16.3872 5.34625 16.338C5.75033 15.936 6.22502 15.6098 6.68619 15.2777C6.80186 15.1988 6.90551 15.1035 6.98362 14.9888C7.11131 14.7878 7.14586 14.5882 7.42226 14.5361C7.63707 14.481 7.85939 14.557 8.06819 14.5733C8.2109 14.5897 8.3506 14.5659 8.49631 14.5748C8.64203 14.5853 8.78623 14.618 8.91843 14.685C9.01607 14.7357 9.11371 14.8071 9.15727 14.9144C9.18882 15.0171 9.1783 15.1288 9.23088 15.2197C9.25491 15.2628 9.29698 15.2911 9.34354 15.3045C9.55535 15.3403 9.56587 15.5279 9.54784 15.7007C9.49226 15.9955 9.73561 16.2144 9.89484 16.4348C10.0601 16.6821 9.99849 16.9993 9.92489 17.2673C9.87381 17.4371 9.80471 17.6039 9.70106 17.7498C9.54333 17.9434 9.35556 18.1102 9.16328 18.271C8.93946 18.4497 8.70512 18.6195 8.43473 18.7237C8.29502 18.7729 8.1433 18.7714 8.0006 18.7476C7.71518 18.6999 7.4553 18.5674 7.19393 18.4542C6.93104 18.3455 6.66366 18.2308 6.43533 18.0551C6.09884 17.7856 5.87051 17.4118 5.61964 17.0707Z" fill="#E5A316"/>
<path d="M5.62112 17.0692C5.62112 17.0692 5.99967 17.6098 6.21598 17.8406C6.4323 18.0715 6.69518 18.2293 7.10227 18.3916C7.50936 18.554 8.04864 18.8712 8.48277 18.6835C8.9154 18.4959 9.4021 18.0774 9.64996 17.7989C9.89782 17.522 10.1337 16.7446 9.87829 16.4304C9.62292 16.1147 9.50425 15.9628 9.52528 15.7558C9.54631 15.5488 9.54782 15.3686 9.36455 15.3298C9.18128 15.2911 9.17377 15.1437 9.14673 14.9605C9.11969 14.7773 8.7772 14.5659 8.32805 14.6001C7.87889 14.6344 7.68962 14.4721 7.36215 14.5808C7.03467 14.6895 7.18639 14.968 6.70569 15.2941C6.225 15.6202 5.4003 16.2323 5.29515 16.4125C5.19 16.5942 5.62112 17.0692 5.62112 17.0692Z" fill="#F2E5A0"/>
<path d="M6.10185 17.8913C6.54349 18.1951 7.02719 18.3857 7.32011 18.484C7.61304 18.5823 8.04867 18.8161 8.42572 18.6061C8.80276 18.3962 9.1047 18.1713 9.33904 17.8913C9.57338 17.6128 9.86631 17.2614 9.73412 16.8921C9.60343 16.5213 9.63197 16.1936 9.30599 15.9702C8.98002 15.7469 9.01758 15.6799 8.91693 15.3999C8.81628 15.1199 8.81628 14.8191 8.4167 14.834C8.01712 14.8474 7.9976 14.7729 7.63257 14.7834C7.26754 14.7923 6.17545 16.003 5.86 16.2279C5.54604 16.4513 5.1735 17.2525 6.10185 17.8913Z" fill="#FFF586"/>
<path d="M5.83294 16.0937C5.83294 16.0937 7.06022 15.2538 7.16087 14.5018C7.26151 13.7497 7.37718 13.1168 7.08726 12.8905C6.79734 12.6641 6.60656 12.5167 6.31664 12.2397C6.02672 11.9627 5.61963 12.0178 5.35976 12.0476C5.10138 12.0788 4.81447 12.1548 4.51553 12.1012C4.2166 12.0476 3.28224 12.6656 3.27924 13.1779C3.27623 13.6902 3.03138 14.5018 3.61272 15.224C4.19407 15.9463 5.26662 16.673 5.26662 16.673L5.83294 16.0937Z" fill="#F5E7A0"/>
<path d="M5.41682 15.7543C5.86147 15.3194 6.49238 15.3447 6.66813 15.0752C6.84389 14.8071 6.97909 14.1668 6.96857 13.8198C6.95806 13.4728 6.74625 13.1913 6.58702 12.9918C6.42779 12.7922 5.97112 11.9925 4.92411 12.417C3.87709 12.8414 4.0919 13.4028 4.00778 13.9255C3.92366 14.4482 3.6112 14.7237 4.09941 15.0439C4.58762 15.3641 4.5741 16.5763 5.41682 15.7543Z" fill="#FFF69F"/>
<path d="M6.587 12.9917C6.47284 12.8607 6.26854 12.545 5.98914 12.399C5.70973 12.2531 5.6857 12.1712 5.21401 12.2605C4.74383 12.3499 4.71229 12.2456 4.30369 12.3648C3.8951 12.4839 3.7554 12.5643 3.58866 12.8309C3.42192 13.0975 3.45046 13.9344 3.38737 14.3186C3.32427 14.7028 3.93566 15.1883 4.06034 15.3625C4.18352 15.5353 4.24661 15.6663 4.60113 15.8942C4.95564 16.122 4.79491 16.1801 5.1374 15.8063C5.4799 15.4325 5.64664 15.3179 5.78484 14.9977C5.92304 14.6775 6.34365 14.5748 5.91102 14.2784C5.4784 13.9835 5.49943 13.4698 5.09084 13.9195C4.68224 14.3692 4.5831 14.8726 4.42387 14.7981C4.26464 14.7237 4.06184 14.813 4.13545 14.3499C4.20906 13.8867 4.11592 13.7155 4.35477 13.4072C4.59211 13.1004 4.27666 13.0722 4.71078 12.7684C5.14491 12.4646 5.18097 12.1965 5.51896 12.3856C5.85695 12.5748 5.90051 12.4646 6.17391 12.7684C6.4473 13.0722 6.587 12.9917 6.587 12.9917Z" fill="#FFD94F"/>
<path d="M5.83293 16.0938C6.32715 15.7274 6.93703 15.2241 7.12931 14.6254C7.16386 14.5167 7.17137 14.3484 7.1909 14.2338C7.22395 13.9717 7.2615 13.7081 7.26 13.446C7.25549 13.2569 7.23897 13.0394 7.08424 12.9084C7.03317 12.8667 6.97909 12.8265 6.92652 12.7863C6.68767 12.6076 6.46535 12.405 6.24302 12.207C6.05826 12.067 5.81941 12.0357 5.59258 12.0506C5.32519 12.064 5.06682 12.1325 4.79793 12.1459C4.69879 12.1519 4.59213 12.1429 4.49599 12.1266C4.33526 12.1251 4.18504 12.2085 4.04534 12.2844C3.73138 12.481 3.36485 12.7639 3.30476 13.1467C3.30026 13.2762 3.29124 13.4132 3.27622 13.5428C3.16356 14.5003 3.32429 15.0007 4.03332 15.6679C4.41037 16.0372 4.84149 16.3723 5.26511 16.6746L5.83293 16.0938ZM5.83293 16.0938L5.26811 16.6761C4.83098 16.3782 4.41037 16.0417 4.0228 15.6768C3.30026 15.0126 3.13051 14.5033 3.23416 13.5368C3.24618 13.4043 3.25519 13.2762 3.2597 13.1407C3.31678 12.7401 3.69683 12.4423 4.0198 12.2382C4.16551 12.1578 4.32624 12.067 4.502 12.0729C4.60265 12.0878 4.69578 12.0983 4.79793 12.0923C5.06231 12.0804 5.32519 12.0134 5.59258 12C5.85997 11.9806 6.1559 12.0357 6.34818 12.2368C6.53895 12.4214 6.74024 12.5927 6.94905 12.758C7.00162 12.7997 7.0542 12.8399 7.10527 12.8831C7.26601 13.0201 7.28253 13.2494 7.28554 13.443C7.28403 13.7096 7.24347 13.9717 7.20742 14.2338C7.18489 14.3484 7.17738 14.5152 7.14133 14.6254C6.93703 15.2315 6.33466 15.7245 5.83293 16.0938Z" fill="#FCB116"/>
<path d="M7.91494 18.484C7.91494 18.484 7.22995 18.4393 6.96557 18.2919C6.70118 18.1445 6.38873 17.8898 6.34066 17.7409C6.29259 17.592 5.60459 16.7521 5.86297 16.4795C5.99966 16.3351 6.75075 15.175 7.27501 15.522C7.37266 15.586 7.27051 16.0521 7.36514 16.0328C7.53489 15.997 7.66708 16.0075 7.71215 16.0923C8.01409 16.6612 7.47931 16.3991 8.17182 16.8652C8.41667 17.0305 8.0246 17.0425 7.83983 17.0842C7.65507 17.1259 7.96451 17.2882 8.15529 17.4073C8.34757 17.5264 8.95595 17.8183 8.46474 17.8302C7.97353 17.8436 7.4718 17.5815 7.51687 17.793C7.56193 18.0045 7.99456 18.1743 8.17031 18.207C8.34457 18.2413 8.35959 18.627 7.91494 18.484Z" fill="#F5C55A"/>
<path d="M5.89605 17.3909C6.44585 17.6188 6.37675 17.7379 6.6922 17.86C7.00916 17.9821 7.03019 18.1147 7.55445 18.1296C8.08022 18.1445 8.48731 18.0402 8.11477 17.8243C7.74373 17.6098 7.0377 17.6098 7.35016 17.449C7.66261 17.2882 7.84287 17.3046 7.89845 17.1616C7.95403 17.0171 7.77978 16.8578 7.57248 16.8221C7.36518 16.7863 7.1729 16.8831 7.34865 16.6478C7.52591 16.4125 7.14586 16.6359 6.87096 16.5123C6.59606 16.3887 7.01818 16.1713 6.81989 16.0298C6.6201 15.8883 6.16945 16.3232 6.03876 16.271C5.90807 16.2174 6.73426 15.7186 6.43533 15.5979C6.1379 15.4788 6.00871 15.6769 5.88103 15.5443C5.75334 15.4118 6.38275 15.2286 5.91558 15.1229C5.4499 15.0171 5.5851 15.1944 5.54754 14.7789C5.50849 14.3619 5.21857 13.9851 4.99024 14.4378C4.7619 14.8906 4.88058 15.3611 4.83551 15.5354C4.79345 15.7111 4.4825 16.8042 5.89605 17.3909Z" fill="#FFDF49"/>
<path d="M5.08337 17.0053C5.08337 17.0053 2.23824 18.5108 1.53672 17.9986C0.833703 17.4863 0.830699 17.5652 0.641424 17.4044C0.45215 17.242 0.420604 17.1006 0.301932 16.8474C0.18326 16.5942 0.264378 16.6985 0.256867 16.423C0.250858 16.1475 0.0180206 15.9807 0.0210249 15.8511C0.0240293 15.7216 0.255365 15.4699 0.495713 15.1989C0.736062 14.9278 0.612883 14.767 1.08907 14.6359C1.56526 14.5049 2.06549 14.7878 2.27279 14.7566C2.48009 14.7268 2.7595 14.4394 3.12152 14.7759C3.48355 15.1125 4.24815 15.805 4.56361 16.1147C4.87907 16.423 5.60312 16.6121 5.08337 17.0053Z" fill="#F5D264"/>
<path d="M4.49602 16.2413C4.49602 16.2413 3.36938 14.9948 3.04792 14.895C2.72645 14.7953 2.53417 14.9278 2.18567 14.9248C1.83716 14.9218 1.82064 14.7685 1.43007 14.8102C1.0395 14.8519 0.669968 15.2614 0.47769 15.3939C0.285411 15.5265 0.0630885 15.7513 0.205795 16.0164C0.413096 16.4051 0.285411 16.5049 0.372537 16.7178C0.459664 16.9308 0.417603 17.2584 0.769112 17.3984C1.12062 17.5384 1.16719 17.7305 1.42556 17.9166C1.68544 18.1028 2.06249 18.0641 2.39747 17.9464C2.73096 17.8303 4.59065 17.0663 4.86555 16.9367C5.13895 16.8102 4.89259 16.5898 4.49602 16.2413Z" fill="#FFF586"/>
<path d="M5.08335 17.0052C4.27668 17.4103 2.64982 18.2129 1.77105 18.1027C1.66289 18.0864 1.56074 18.0402 1.47512 17.9732C1.24378 17.8064 1.00944 17.6515 0.758577 17.5145C0.636901 17.4386 0.525739 17.3403 0.450631 17.2137C0.377024 17.0886 0.330456 16.9546 0.268867 16.828C0.246334 16.7773 0.220797 16.7282 0.214789 16.6701C0.219295 16.5808 0.24333 16.4959 0.232815 16.4065C0.226806 16.2278 0.102125 16.0893 0.0195055 15.9374C-0.120197 15.6902 0.53325 15.2196 0.623381 14.959C0.678962 14.825 0.791625 14.7088 0.93283 14.6612C1.20322 14.5465 1.50666 14.5629 1.78456 14.6359C1.98886 14.6746 2.19316 14.7967 2.39595 14.6984C2.62578 14.5927 2.8436 14.5376 3.06292 14.7074C3.14103 14.7699 3.26421 14.8905 3.33782 14.9605C3.5361 15.1467 4.06487 15.6426 4.26917 15.8347L4.58012 16.1251C4.68377 16.2219 4.80695 16.2948 4.92562 16.3738C5.19902 16.5465 5.44387 16.7446 5.08335 17.0052ZM5.08335 17.0052C5.61662 16.618 4.81446 16.3782 4.57561 16.1295L4.26316 15.8406C4.05436 15.6485 3.52559 15.163 3.3228 14.9769C2.99081 14.6701 2.87064 14.5108 2.40797 14.7312C2.20367 14.8354 1.97835 14.7148 1.77405 14.6776C1.63585 14.6463 1.49615 14.6225 1.35644 14.6225C1.15515 14.6284 0.931328 14.6776 0.776603 14.8116C0.680464 14.9099 0.644412 15.0603 0.552779 15.1675C0.386037 15.3835 0.151697 15.5741 0.049549 15.8302C0.0360294 15.8853 0.0810947 15.9479 0.117147 16.0059C0.196762 16.1251 0.274876 16.2576 0.280884 16.405C0.285391 16.4765 0.280884 16.551 0.265863 16.621C0.25685 16.6552 0.259854 16.6805 0.271871 16.7133C0.396552 17.0007 0.491189 17.3149 0.78111 17.4802C1.02897 17.6187 1.26631 17.7796 1.49464 17.9479C1.57726 18.0149 1.6719 18.0581 1.77705 18.0759C2.67235 18.1906 4.26316 17.4132 5.08335 17.0052Z" fill="#FCB116"/>
<path d="M5.07584 16.6806C5.07584 16.6806 3.95972 15.6262 3.83053 15.4267C3.70135 15.2271 3.5331 15.0112 3.16206 15.1526C2.79103 15.2941 2.38243 15.2465 2.61677 15.5026C2.85111 15.7588 2.80154 15.9092 2.4981 15.9985C2.19466 16.0879 2.58973 16.2338 2.95627 16.3768C3.3228 16.5197 2.31183 16.1742 2.20818 16.4393C2.10453 16.7044 2.44102 16.8057 2.23973 17.1363C2.03844 17.4669 1.49465 17.446 1.91075 17.7037C2.32685 17.9613 1.64637 18.1102 2.64682 17.7588C3.64727 17.4058 4.95116 17.857 5.07584 16.6806Z" fill="#FFDF49"/>
<path d="M5.49641 17.023C5.49641 17.023 5.65865 18.3499 5.53547 18.6224C5.41079 18.895 5.09984 20.2889 4.87301 20.5614C4.64768 20.8339 4.34875 21.0975 4.11741 21.23C3.88458 21.3611 3.71032 21.4683 3.36933 21.4087C3.02833 21.3492 3.0764 21.3119 2.89013 21.2881C2.70386 21.2628 2.70086 21.3417 2.4515 21.3015C2.20214 21.2613 1.8326 20.9307 1.71693 20.7639C1.60126 20.5971 1.40147 20.5703 1.27379 20.2725C1.1461 19.9746 1.0755 19.1496 1.52616 18.6686C1.97681 18.1876 2.54313 17.8734 2.99078 17.7378C3.43843 17.6023 4.27514 17.3253 4.57107 17.1258C4.8685 16.9262 5.44534 16.5271 5.49641 17.023Z" fill="#FFF487"/>
<path d="M5.37624 17.4013C5.37173 17.4475 5.50993 18.5808 5.19447 19.3283C4.87902 20.0759 4.57558 20.4438 4.21055 20.6195C3.84552 20.7952 4.00325 20.3112 3.73736 20.2561C3.50753 20.2085 3.36783 20.2293 3.13198 20.14C2.89614 20.0506 3.04936 19.7275 3.17254 19.4043C3.24164 19.2226 3.0043 19.5264 2.78949 19.4981C2.62274 19.4758 2.50858 19.105 2.30428 19.1094C1.83711 19.1199 1.62079 19.0067 1.82809 18.7401C2.03539 18.4735 2.43197 18.1132 3.03284 17.8868C3.63371 17.6604 4.02728 17.5487 4.61013 17.172C5.19147 16.7967 5.43783 16.7059 5.37624 17.4013Z" fill="#FFF459"/>
<path d="M5.34022 17.2627C5.34022 17.3014 5.51448 18.2635 5.30117 18.877C5.08786 19.4906 4.86103 19.7824 4.57411 19.9105C4.2872 20.0386 4.34728 20.3856 4.10994 19.9358C3.8726 19.4861 3.69684 19.2702 3.50005 19.1823C3.30327 19.0944 3.44147 18.7981 3.52409 18.533C3.60671 18.2679 3.3213 18.5524 2.94275 18.5345C2.5642 18.5166 2.38243 18.4094 2.53415 18.1979C2.68587 17.985 2.98931 17.7035 3.4655 17.5457C3.9417 17.3878 4.25415 17.3148 4.7063 17.0304C5.15846 16.746 5.35224 16.6804 5.34022 17.2627Z" fill="#FFDF49"/>
<path d="M5.49944 17.023C5.5355 17.3179 5.56254 17.6127 5.58056 17.9106C5.58807 18.1503 5.61962 18.402 5.54601 18.6343C5.42734 18.9649 5.35223 19.3104 5.24858 19.647C5.15394 19.9493 5.07733 20.262 4.9151 20.5375C4.61917 20.9143 3.98975 21.4802 3.47901 21.431C3.17557 21.4221 2.90368 21.2106 2.60174 21.3223C2.44852 21.3313 2.2998 21.2762 2.17362 21.1928C1.98435 21.0721 1.8116 20.9188 1.6779 20.7401C1.63134 20.685 1.56975 20.6433 1.50966 20.5971C1.38648 20.5077 1.28884 20.3812 1.23927 20.2382C1.10257 19.8093 1.1251 19.3238 1.32189 18.9173C1.38648 18.7817 1.48863 18.6626 1.59528 18.5569C1.80859 18.3454 2.05044 18.1622 2.31032 18.0103C2.56869 17.857 2.85261 17.7423 3.14102 17.6634C3.70885 17.4817 4.2932 17.3179 4.78591 16.9753C5.00523 16.8428 5.46189 16.5926 5.49944 17.023ZM5.49343 17.0245C5.45738 16.6045 5.00373 16.8517 4.79342 16.9902C4.30972 17.3447 3.72087 17.5204 3.15605 17.7125C2.86913 17.7974 2.59423 17.9046 2.33736 18.058C2.08199 18.2084 1.84464 18.3901 1.63284 18.5971C1.52468 18.6998 1.43305 18.8115 1.36695 18.9426C1.17467 19.3342 1.15064 19.8108 1.27532 20.2263C1.32189 20.3648 1.41052 20.4839 1.52919 20.5718C1.58627 20.6179 1.64936 20.6611 1.70044 20.7207C1.83113 20.9009 1.99787 21.0513 2.18414 21.1734C2.30732 21.2553 2.44852 21.3089 2.59874 21.303C2.67234 21.303 2.74295 21.2717 2.82106 21.2747C2.89767 21.2777 2.97278 21.2911 3.04338 21.3179C3.31828 21.4176 3.63825 21.4713 3.90714 21.3298C4.29019 21.1406 4.61917 20.8503 4.87604 20.5152C5.03377 20.2456 5.10738 19.9314 5.20201 19.6366C5.30717 19.3 5.38678 18.9545 5.51597 18.6239C5.59108 18.396 5.56554 18.1488 5.56254 17.9121C5.55352 17.6142 5.52648 17.3194 5.49343 17.0245Z" fill="#FCB116"/>
<path d="M5.76837 17.0037C5.89906 17.3119 6.26409 16.8279 6.24156 17.0841C6.21903 17.3387 6.04928 17.367 6.23555 17.6098C6.42182 17.8525 6.78685 18.122 6.57654 18.0521C6.36624 17.9821 6.11838 17.9791 5.97868 17.7661C5.84048 17.5532 5.89455 17.1094 5.67524 17.2896C5.45592 17.4683 5.36879 17.3789 5.31321 17.6053C5.20055 18.0655 5.12093 18.3067 5.09239 17.9002C5.07737 17.6946 5.03982 17.4802 4.92565 17.4415C4.58315 17.3253 4.45397 17.7557 4.53659 17.583C4.57865 17.4966 4.4119 17.4251 4.42693 17.3134C4.44195 17.2002 4.63573 17.0468 4.5441 17.02C4.478 17.0007 4.43894 16.9694 4.42392 16.9352C4.4104 16.9009 3.78099 16.7118 3.66682 16.5271C3.6473 16.4958 4.52607 16.6537 4.58916 16.6492C4.81749 16.6284 4.88209 16.6343 4.7559 16.411C4.62972 16.1861 4.17606 15.8451 4.24667 15.8376C4.24667 15.8376 4.65826 16.2397 4.77393 16.1905C4.8896 16.1414 4.84003 15.8227 4.80698 15.4549C4.79196 15.2792 4.87908 14.7654 4.97973 14.7907C5.03681 14.8056 4.88659 15.09 5.02479 15.5085C5.16149 15.927 5.11042 16.1935 5.33725 16.0535C5.56408 15.9136 5.89305 15.6083 5.91108 15.8644C5.9291 16.1206 5.38381 16.4958 5.69777 16.5375C6.01172 16.5792 6.3377 16.6254 6.3422 16.7371C6.34671 16.8488 5.6512 16.7296 5.76837 17.0037Z" fill="#E28D1F"/>
<path d="M5.46338 17.1735C5.60759 17.1586 5.78785 17.0826 5.72476 17.0469C5.66167 17.0112 5.63313 17.0737 5.66768 16.968C5.70223 16.8622 5.72927 16.7103 5.57905 16.7178C5.42883 16.7252 5.4769 16.7252 5.29964 16.758C5.12239 16.7908 5.02475 16.8042 5.05179 16.7476C5.08033 16.691 5.19449 16.6389 5.14943 16.548C5.10436 16.4587 5.17797 16.3663 5.1299 16.2725C5.08183 16.1787 4.96466 15.8406 4.93762 16.0849C4.91058 16.3306 5.03526 16.3202 4.96917 16.4527C4.90307 16.5853 4.84298 16.6627 4.74234 16.6865C4.64169 16.7118 4.40585 16.8235 4.62216 16.889C4.83998 16.9531 4.84298 16.7863 5.04127 16.9501C5.23956 17.1139 5.22454 17.1571 5.29664 17.1884C5.36724 17.2211 5.46338 17.1735 5.46338 17.1735Z" fill="#F5C20C"/>
<path d="M5.48441 19.6113C5.26059 19.3596 5.15844 19.0111 5.18849 18.679C5.2005 18.5673 5.21402 18.4586 5.22153 18.3484C5.25008 17.9061 5.24256 17.4608 5.22454 17.0186C5.26359 17.4608 5.27711 17.9076 5.24707 18.3514C5.23055 18.5718 5.18097 18.7907 5.22153 19.0126C5.25608 19.227 5.34171 19.44 5.48441 19.6113Z" fill="#B76C26"/>
<path d="M6.1514 19.6053C5.98316 19.2479 5.79839 18.8667 5.64367 18.5033C5.55354 18.2278 5.49796 17.9433 5.44087 17.6604C5.40182 17.434 5.35675 17.2047 5.35675 16.9739C5.35825 17.0885 5.37928 17.2032 5.39731 17.3164C5.46941 17.7125 5.54753 18.1101 5.6677 18.4944C5.81942 18.8592 5.99968 19.2434 6.1514 19.6053Z" fill="#B76C26"/>
<path d="M6.56446 19.0572C5.98312 18.5733 5.53096 17.9418 5.28761 17.227C5.25306 17.1257 5.22001 17.023 5.211 16.9158C5.22302 17.023 5.25907 17.1243 5.29512 17.224C5.54899 17.9359 6.01466 18.5435 6.56446 19.0572Z" fill="#B76C26"/>
<path d="M6.51493 18.4794C6.27007 18.2739 6.03723 18.0535 5.81491 17.8257C5.6001 17.5919 5.36726 17.3595 5.23657 17.0662C5.27262 17.1376 5.31469 17.2047 5.36276 17.2687C5.70225 17.7095 6.11535 18.0907 6.51493 18.4794Z" fill="#B76C26"/>
<path d="M5.57153 19.6529C5.50994 19.7214 5.30414 19.5769 5.33719 19.4742C5.37023 19.3714 5.63312 19.5844 5.57153 19.6529Z" fill="#B76C26"/>
<path d="M6.32866 19.5308C6.3557 19.6186 6.12437 19.7184 6.05226 19.635C5.98016 19.5546 6.30162 19.4429 6.32866 19.5308Z" fill="#B76C26"/>
<path d="M6.69665 18.9858C6.75073 19.0602 6.56446 19.2285 6.46983 19.1749C6.37519 19.1213 6.64107 18.9113 6.69665 18.9858Z" fill="#B76C26"/>
<path d="M6.65164 18.3737C6.70271 18.4496 6.51043 18.612 6.4173 18.5539C6.32416 18.4958 6.59906 18.2977 6.65164 18.3737Z" fill="#B76C26"/>
<path d="M5.6016 14.5718C5.69323 14.7386 5.72478 14.9366 5.70224 15.1273C5.67821 15.3179 5.58958 15.4906 5.54602 15.6768C5.47091 15.9508 5.40932 16.2307 5.35374 16.5092C5.33421 16.6016 5.31618 16.6954 5.29816 16.7892C5.35524 16.4139 5.43035 16.0401 5.52649 15.6708C5.57155 15.4861 5.66168 15.3134 5.68872 15.1258C5.71276 14.9381 5.68722 14.7415 5.6016 14.5718Z" fill="#B76C26"/>
<path d="M5.3838 14.8175C5.40032 15.1168 5.41835 15.437 5.42436 15.7378C5.41084 15.9567 5.36577 16.1727 5.32371 16.3886C5.28766 16.5599 5.25311 16.7341 5.18701 16.8964C5.21856 16.8145 5.23809 16.7282 5.25761 16.6433C5.32371 16.3439 5.37929 16.0416 5.40633 15.7363C5.40483 15.4385 5.3853 15.1168 5.3838 14.8175Z" fill="#B76C26"/>
<path d="M4.93463 15.087C5.20352 15.5934 5.34172 16.1652 5.30867 16.7386C5.30267 16.819 5.29816 16.9024 5.27412 16.9798C5.29666 16.9009 5.29966 16.819 5.30417 16.7386C5.3282 16.1652 5.17498 15.6053 4.93463 15.087Z" fill="#B76C26"/>
<path d="M4.80243 15.51C4.91659 15.7245 5.01574 15.9449 5.10737 16.1697C5.19149 16.3946 5.28913 16.6254 5.29665 16.8682C5.27261 16.6269 5.17497 16.4006 5.08935 16.1772C5.00072 15.9508 4.90157 15.7304 4.80243 15.51Z" fill="#B76C26"/>
<path d="M5.54453 14.5256C5.60161 14.4854 5.7293 14.6269 5.68724 14.6984C5.64518 14.7684 5.48745 14.5658 5.54453 14.5256Z" fill="#B76C26"/>
<path d="M5.23655 14.8205C5.24256 14.7505 5.43484 14.746 5.46188 14.8249C5.48892 14.9024 5.23054 14.8904 5.23655 14.8205Z" fill="#B76C26"/>
<path d="M4.82047 15.102C4.80395 15.0335 4.98271 14.9679 5.03378 15.032C5.08636 15.0975 4.8385 15.169 4.82047 15.102Z" fill="#B76C26"/>
<path d="M4.67625 15.5442C4.66273 15.4757 4.8445 15.4162 4.89257 15.4832C4.94214 15.5502 4.69128 15.6128 4.67625 15.5442Z" fill="#B76C26"/>
<path d="M8.05615 16.2443C7.89392 16.4364 7.66709 16.5719 7.42223 16.6374C7.17588 16.7014 6.92051 16.6761 6.66964 16.7149C6.16942 16.7729 5.6737 16.8638 5.17798 16.9576C5.42283 16.901 5.67069 16.8489 5.91855 16.8042C6.29109 16.7387 6.66513 16.6746 7.04368 16.6612C7.42073 16.6627 7.80379 16.5272 8.05615 16.2443Z" fill="#B76C26"/>
<path d="M8.0862 16.1534C8.16432 16.204 8.05165 16.4274 7.9435 16.4095C7.83534 16.3931 8.00809 16.1027 8.0862 16.1534Z" fill="#B76C26"/>
<path d="M7.15185 15.8182C6.96258 15.7959 6.7673 15.8376 6.59755 15.9225C6.4278 16.0103 6.29411 16.1533 6.13338 16.2561C5.81492 16.469 5.48594 16.6656 5.14795 16.8458C5.23057 16.7981 5.31319 16.749 5.39431 16.6998C5.64066 16.5539 5.88552 16.4035 6.12136 16.2412C6.2836 16.1384 6.41879 15.9984 6.59004 15.9121C6.76279 15.8257 6.96108 15.7885 7.15185 15.8182Z" fill="#B76C26"/>
<path d="M6.98959 16.1042C6.70568 16.2025 6.39323 16.2934 6.10781 16.3932C5.8269 16.5212 5.55801 16.6746 5.29664 16.8369C5.22153 16.8846 5.14642 16.9293 5.08032 16.9873C5.21251 16.8712 5.36724 16.7803 5.51746 16.6895C5.70823 16.5778 5.89751 16.4631 6.1018 16.3768C6.39022 16.2815 6.69967 16.1906 6.98959 16.1042Z" fill="#B76C26"/>
<path d="M7.11127 17.1765C6.57048 16.9829 5.99515 16.8786 5.42132 16.9531C5.3402 16.9635 5.25758 16.9739 5.18097 17.0022C5.25758 16.971 5.3402 16.959 5.41982 16.9471C5.99365 16.8652 6.581 16.9531 7.11127 17.1765Z" fill="#B76C26"/>
<path d="M6.69968 17.3417C6.46985 17.2628 6.23851 17.1839 6.00567 17.1139C5.77283 17.0484 5.53699 16.9709 5.29364 16.968C5.5385 16.9546 5.77884 17.032 6.01168 17.096C6.24452 17.1675 6.47435 17.2479 6.69968 17.3417Z" fill="#B76C26"/>
<path d="M7.21341 15.8555C7.23294 15.7885 7.05418 15.717 7.00161 15.7796C6.94903 15.8421 7.19539 15.9225 7.21341 15.8555Z" fill="#B76C26"/>
<path d="M7.03618 16.2412C7.10078 16.2114 7.03919 16.0312 6.95657 16.0327C6.87395 16.0342 6.97309 16.271 7.03618 16.2412Z" fill="#B76C26"/>
<path d="M7.10826 17.2896C7.17736 17.3001 7.22994 17.1169 7.15934 17.0722C7.09024 17.0275 7.03766 17.2792 7.10826 17.2896Z" fill="#B76C26"/>
<path d="M6.67415 17.4698C6.74475 17.4787 6.78832 17.2926 6.71621 17.2509C6.64411 17.2092 6.60505 17.4609 6.67415 17.4698Z" fill="#B76C26"/>
<path d="M5.09383 17.0171C4.80391 17.5264 4.49146 18.0357 4.07536 18.4542C3.90561 18.6135 3.70131 18.749 3.53157 18.9069C3.44444 18.9858 3.35731 19.0677 3.30023 19.1705C3.35281 19.0647 3.43843 18.9784 3.52255 18.898C3.71333 18.7133 3.93716 18.5659 4.12042 18.3752C4.49897 17.9642 4.79941 17.4907 5.09383 17.0171Z" fill="#B76C26"/>
<path d="M5.21552 16.9813C4.88955 17.1987 4.55606 17.4072 4.21957 17.6098C3.88008 17.8034 3.5481 18.0238 3.17706 18.1578L3.24616 18.1325C3.82901 17.8421 4.6477 17.3149 5.21552 16.9813Z" fill="#B76C26"/>
<path d="M5.20052 16.9799C4.95867 17.3953 4.71682 17.8093 4.48699 18.2308C4.2902 18.6001 4.07839 18.9679 3.9447 19.3641C3.92818 19.4207 3.91165 19.4802 3.91916 19.5398C3.90865 19.4802 3.92367 19.4192 3.93869 19.3626C4.05887 18.959 4.26917 18.5897 4.46445 18.2189C4.69729 17.7989 4.94215 17.3849 5.20052 16.9799Z" fill="#B76C26"/>
<path d="M4.63116 18.8995C4.84447 18.3544 4.99469 17.7513 5.25457 17.2256C5.02624 17.7662 4.87752 18.3678 4.63116 18.8995Z" fill="#B76C26"/>
<path d="M3.45945 19.1973C3.43241 19.2851 3.18455 19.2419 3.17103 19.1347C3.15601 19.0275 3.48499 19.1094 3.45945 19.1973Z" fill="#B76C26"/>
<path d="M4.11896 19.5367C4.09192 19.6246 3.84406 19.5814 3.83054 19.4742C3.81703 19.367 4.146 19.4489 4.11896 19.5367Z" fill="#B76C26"/>
<path d="M3.13202 17.2866C3.79598 17.2166 4.4975 17.1779 5.15245 17.0632C5.19751 17.0557 5.23957 17.0423 5.28314 17.0289C4.93914 17.1436 4.57261 17.1659 4.21359 17.2091C3.85457 17.2434 3.49404 17.2717 3.13202 17.2866Z" fill="#B76C26"/>
<path d="M3.29724 16.8696C3.823 16.9098 4.56358 17.0051 5.08183 16.9932L5.11337 16.9917L5.09234 17.0141C4.89105 17.233 4.58911 17.5413 4.37881 17.7572C4.13546 17.9999 3.89961 18.2516 3.62622 18.4616C3.8921 18.2442 4.12494 17.988 4.36679 17.7453C4.54405 17.5606 4.90007 17.1853 5.07582 16.9977L5.08634 17.0185C4.93462 17.026 4.7859 17.0141 4.63718 17.0037C4.18803 16.9694 3.74189 16.9232 3.29724 16.8696Z" fill="#B76C26"/>
<path d="M3.43097 16.259C4.00931 16.4675 4.57863 16.7028 5.13294 16.9679C5.06233 16.9366 4.99173 16.9083 4.91963 16.88C4.44644 16.6894 3.89965 16.4556 3.43097 16.259Z" fill="#B76C26"/>
<path d="M2.75195 16.0267C3.63073 16.0059 4.56208 16.2784 5.17346 16.9262L5.05029 16.816L4.9887 16.7609C4.36379 16.2605 3.54661 16.0401 2.75195 16.0267Z" fill="#B76C26"/>
<path d="M3.31525 15.6381C4.09638 15.8123 4.83695 16.2486 5.26658 16.9307L5.17645 16.8116C4.72129 16.2144 4.03479 15.8346 3.31525 15.6381Z" fill="#B76C26"/>
<path d="M3.31978 17.434C3.24167 17.4832 3.08244 17.2896 3.14253 17.1987C3.20261 17.1094 3.3979 17.3849 3.31978 17.434Z" fill="#B76C26"/>
<path d="M3.25518 16.9992C3.16956 16.9634 3.24016 16.7237 3.34982 16.7207C3.45798 16.7192 3.34081 17.0349 3.25518 16.9992Z" fill="#B76C26"/>
<path d="M3.30926 15.7765C3.22364 15.7408 3.29424 15.501 3.4039 15.4981C3.51356 15.4951 3.39488 15.8123 3.30926 15.7765Z" fill="#B76C26"/>
<path d="M3.3183 16.3544C3.28075 16.271 3.49706 16.1429 3.57818 16.2144C3.6593 16.2859 3.35736 16.4378 3.3183 16.3544Z" fill="#B76C26"/>
<path d="M2.68285 15.8986C2.76547 15.8584 2.90217 16.0684 2.83307 16.1518C2.76397 16.2352 2.60023 15.9388 2.68285 15.8986Z" fill="#B76C26"/>
<path d="M4.72734 18.9471C4.67326 19.0216 4.45394 18.898 4.47647 18.7922C4.50051 18.6865 4.78292 18.8727 4.72734 18.9471Z" fill="#B76C26"/>
<path d="M3.62773 18.5569C3.5361 18.5747 3.45949 18.3365 3.54962 18.2739C3.63675 18.2114 3.71786 18.539 3.62773 18.5569Z" fill="#B76C26"/>
<path d="M3.24168 17.9999C3.3288 18.0327 3.26421 18.2754 3.15455 18.2799C3.04489 18.2843 3.15605 17.9656 3.24168 17.9999Z" fill="#B76C26"/>
<path d="M5.83293 16.0938C6.32715 15.7274 6.93703 15.2241 7.12931 14.6254C7.16386 14.5167 7.17137 14.3484 7.1909 14.2338C7.22395 13.9717 7.2615 13.7081 7.26 13.446C7.25549 13.2569 7.23897 13.0394 7.08424 12.9084C7.03317 12.8667 6.97909 12.8265 6.92652 12.7863C6.68767 12.6076 6.46535 12.405 6.24302 12.207C6.05826 12.067 5.81941 12.0357 5.59258 12.0506C5.32519 12.064 5.06682 12.1325 4.79793 12.1459C4.69879 12.1519 4.59213 12.1429 4.49599 12.1266C4.33526 12.1251 4.18504 12.2085 4.04534 12.2844C3.73138 12.481 3.36485 12.7639 3.30476 13.1467C3.30026 13.2762 3.29124 13.4132 3.27622 13.5428C3.16356 14.5003 3.32429 15.0007 4.03332 15.6679C4.41037 16.0372 4.84149 16.3723 5.26511 16.6746L5.83293 16.0938ZM5.83293 16.0938L5.26811 16.6761C4.83098 16.3782 4.41037 16.0417 4.0228 15.6768C3.30026 15.0126 3.13051 14.5033 3.23416 13.5368C3.24618 13.4043 3.25519 13.2762 3.2597 13.1407C3.31678 12.7401 3.69683 12.4423 4.0198 12.2382C4.16551 12.1578 4.32624 12.067 4.502 12.0729C4.60265 12.0878 4.69578 12.0983 4.79793 12.0923C5.06231 12.0804 5.32519 12.0134 5.59258 12C5.85997 11.9806 6.1559 12.0357 6.34818 12.2368C6.53895 12.4214 6.74024 12.5927 6.94905 12.758C7.00162 12.7997 7.0542 12.8399 7.10527 12.8831C7.26601 13.0201 7.28253 13.2494 7.28554 13.443C7.28403 13.7096 7.24347 13.9717 7.20742 14.2338C7.18489 14.3484 7.17738 14.5152 7.14133 14.6254C6.93703 15.2315 6.33466 15.7245 5.83293 16.0938Z" fill="#FCB116"/>
</g>
<g clip-path="url(#clip1_43_4120)">
<path d="M23.5139 7.40949C23.5139 7.40949 24.3956 8.20473 24.5939 8.62766C24.7922 9.05059 24.5684 9.41098 24.5564 9.7118C24.5444 10.0126 24.5489 10.303 24.3175 10.4519C24.0862 10.6023 23.9014 10.6277 23.7227 10.8138C23.5454 11 23.1999 11.0193 22.8709 10.924C22.542 10.8302 21.8359 10.2315 21.5866 10.0394C21.3357 9.84732 21.0443 9.68648 21.0818 9.25164C21.1194 8.81679 21.1164 8.39832 21.1524 8.02751C21.1885 7.6567 21.2967 7.49884 21.4228 6.99549C21.549 6.49214 21.3282 5.98432 21.4243 5.83689C21.5205 5.68797 23.5139 7.40949 23.5139 7.40949Z" fill="#FFF8A9"/>
<path d="M22.8725 7.29334C23.1293 7.55842 23.5454 7.83244 23.8113 8.1273C24.0772 8.42216 24.3611 9.00891 24.2515 9.54949C24.1418 10.0901 24.0832 10.0469 23.7783 10.1496C23.4733 10.2524 23.7873 10.6783 23.26 10.6441C22.7328 10.6098 22.195 10.2107 21.9441 9.81903C21.6932 9.42737 21.4439 9.22484 21.3658 8.83467C21.2877 8.4445 21.214 8.32238 21.2922 7.75798C21.3703 7.19357 21.6136 6.54576 21.5881 6.27324C21.5626 6.00072 22.6261 7.03869 22.8725 7.29334Z" fill="#FFDF52"/>
<path d="M22.8724 7.29334C23.1293 7.55842 23.1789 7.85924 23.4448 8.1541C23.7106 8.44897 23.9961 8.87786 23.8864 9.41844C23.7767 9.95902 23.7031 9.77138 23.3982 9.87562C23.0933 9.97987 23.0963 9.46013 22.7763 9.87711C22.542 10.1824 22.1934 10.2122 21.9426 9.81903C21.6917 9.42588 21.4424 9.22484 21.3642 8.83467C21.2861 8.4445 21.2125 8.32238 21.2906 7.75798C21.3688 7.19357 21.6121 6.54576 21.5866 6.27324C21.5625 6.00072 22.6261 7.03869 22.8724 7.29334Z" fill="#FFF375"/>
<path d="M23.5139 7.40945C23.7272 7.60304 23.933 7.80408 24.1297 8.01555C24.319 8.22851 24.5293 8.44146 24.6315 8.7125C24.7336 8.99098 24.6465 9.28435 24.5849 9.56134C24.5308 9.83834 24.6135 10.1615 24.4092 10.3938C24.3055 10.4995 24.1658 10.5532 24.0366 10.6202C23.9014 10.6797 23.7933 10.7661 23.6896 10.8689C23.5709 10.9627 23.4177 10.9954 23.272 10.9999C22.9746 11.0148 22.6892 10.8972 22.4533 10.7274C22.0913 10.4876 21.7653 10.2002 21.4168 9.94556C21.3026 9.8577 21.187 9.75643 21.1209 9.62091C21.0518 9.48837 21.0473 9.33052 21.0638 9.18755C21.0863 8.90312 21.0938 8.6157 21.1104 8.32828C21.1209 8.04087 21.1614 7.75047 21.2636 7.47944C21.3507 7.2084 21.4529 6.93588 21.4514 6.64846C21.4529 6.5055 21.4363 6.36403 21.4183 6.22106C21.4123 6.13916 21.3402 5.79366 21.4664 5.82196C21.7353 5.93365 21.9516 6.13767 22.1829 6.30744C22.6366 6.66187 23.0767 7.03417 23.5139 7.40945ZM23.5139 7.40945C23.0752 7.03566 22.6321 6.66633 22.1769 6.3119C22.0057 6.18085 21.8329 6.0498 21.6512 5.93365C21.5836 5.89642 21.516 5.83983 21.4378 5.83685C21.4348 5.83685 21.4333 5.83983 21.4318 5.84131C21.4048 5.89195 21.4078 5.95003 21.4108 6.00662C21.4303 6.22106 21.4769 6.43253 21.4754 6.64846C21.4799 6.93886 21.3793 7.21734 21.2951 7.48986C21.196 7.76239 21.1629 8.04236 21.1524 8.32977C21.1374 8.6157 21.1314 8.90312 21.1104 9.18904C21.0953 9.32903 21.0999 9.4705 21.1644 9.59709C21.226 9.72218 21.3342 9.81749 21.4469 9.90237C21.7954 10.16 22.1183 10.4474 22.4774 10.6872C22.7102 10.8555 22.9791 10.9686 23.269 10.9582C23.4102 10.9552 23.5544 10.9255 23.6656 10.8391C23.7677 10.7393 23.8879 10.647 24.0216 10.5904C24.1478 10.5278 24.289 10.4742 24.3881 10.3744C24.5879 10.1526 24.5098 9.82642 24.5669 9.55539C24.63 9.27989 24.7231 8.99098 24.6225 8.7125C24.5218 8.44295 24.313 8.22851 24.1252 8.01555C23.9315 7.80557 23.7257 7.60453 23.5139 7.40945Z" fill="#E5A316"/>
<path d="M21.6226 6.06775C21.8765 6.4058 22.1063 6.7781 22.4488 7.03425C22.6787 7.20402 22.9446 7.30826 23.2089 7.41399C23.4703 7.5242 23.7287 7.65078 24.0081 7.69992C24.1463 7.72375 24.289 7.72673 24.4212 7.68056C24.6841 7.58227 24.9244 7.41697 25.1453 7.24571C25.339 7.09084 25.5298 6.92851 25.686 6.73641C25.7882 6.59195 25.8588 6.42814 25.9099 6.25986C25.979 5.99925 26.036 5.68354 25.8753 5.44676C25.7476 5.27848 25.5869 5.12062 25.5223 4.91213C25.4817 4.77513 25.5403 4.62621 25.5043 4.49069C25.4893 4.42516 25.4472 4.37304 25.3811 4.35517C25.3075 4.34028 25.2309 4.30752 25.1918 4.23901C25.1528 4.172 25.1423 4.09754 25.1317 4.02755C25.1317 3.88309 25.0161 3.78927 24.8944 3.72673C24.7712 3.66418 24.6315 3.63291 24.4918 3.62397C24.3506 3.61802 24.2049 3.64035 24.0622 3.62546C23.8474 3.61206 23.6431 3.53611 23.4328 3.58674C23.1789 3.63142 23.1474 3.83097 23.0257 4.01712C22.9431 4.13775 22.8334 4.23752 22.7117 4.31645C22.2445 4.63812 21.7654 4.95681 21.3538 5.34698C21.3012 5.39612 21.2666 5.45867 21.2877 5.53164C21.3447 5.73566 21.489 5.90543 21.6226 6.06775ZM21.6196 6.07073C21.4829 5.9099 21.3372 5.74013 21.2802 5.53313C21.2576 5.46016 21.2937 5.38719 21.3462 5.33805C21.7503 4.93596 22.225 4.60982 22.6862 4.27773C22.8019 4.1988 22.9055 4.1035 22.9836 3.98883C23.1113 3.78778 23.1459 3.58823 23.4223 3.53611C23.6371 3.48101 23.8594 3.55696 24.0682 3.57334C24.2109 3.58972 24.3506 3.56589 24.4963 3.57483C24.642 3.58525 24.7862 3.61802 24.9184 3.68503C25.0161 3.73566 25.1137 3.80714 25.1573 3.91437C25.1888 4.01712 25.1783 4.12881 25.2309 4.21965C25.2549 4.26284 25.297 4.29114 25.3435 4.30454C25.5553 4.34028 25.5659 4.52792 25.5478 4.70067C25.4923 4.99553 25.7356 5.21444 25.8948 5.43484C26.0601 5.68205 25.9985 5.99925 25.9249 6.26731C25.8738 6.43708 25.8047 6.60387 25.7011 6.74981C25.5433 6.94341 25.3556 7.1102 25.1633 7.27103C24.9395 7.44974 24.7051 7.6195 24.4347 7.72375C24.295 7.77289 24.1433 7.7714 24.0006 7.74758C23.7152 7.69992 23.4553 7.56738 23.1939 7.4542C22.931 7.34549 22.6637 7.23082 22.4353 7.0551C22.0988 6.78555 21.8705 6.41176 21.6196 6.07073Z" fill="#E5A316"/>
<path d="M21.6211 6.06923C21.6211 6.06923 21.9997 6.60981 22.216 6.84064C22.4323 7.07147 22.6952 7.22932 23.1023 7.39165C23.5094 7.55397 24.0486 7.87117 24.4828 7.68353C24.9154 7.49589 25.4021 7.07742 25.65 6.79894C25.8978 6.52195 26.1337 5.74459 25.8783 5.43037C25.6229 5.11465 25.5043 4.96276 25.5253 4.75576C25.5463 4.54876 25.5478 4.36856 25.3645 4.32984C25.1813 4.29112 25.1738 4.14369 25.1467 3.96052C25.1197 3.77735 24.7772 3.56588 24.328 3.60013C23.8789 3.63439 23.6896 3.47206 23.3621 3.58077C23.0347 3.68949 23.1864 3.96797 22.7057 4.2941C22.225 4.62024 21.4003 5.2323 21.2951 5.41249C21.19 5.59418 21.6211 6.06923 21.6211 6.06923Z" fill="#F2E5A0"/>
<path d="M22.1018 6.89132C22.5435 7.19512 23.0272 7.38574 23.3201 7.48402C23.613 7.58231 24.0487 7.81612 24.4257 7.60614C24.8028 7.39616 25.1047 7.17129 25.339 6.89132C25.5734 6.61284 25.8663 6.26139 25.7341 5.89206C25.6034 5.52125 25.632 5.19363 25.306 4.97025C24.98 4.74687 25.0176 4.67985 24.9169 4.39988C24.8163 4.11991 24.8163 3.81909 24.4167 3.83399C24.0171 3.84739 23.9976 3.77293 23.6326 3.78335C23.2675 3.79229 22.1755 5.00301 21.86 5.22788C21.546 5.45126 21.1735 6.25245 22.1018 6.89132Z" fill="#FFF586"/>
<path d="M21.8329 5.09374C21.8329 5.09374 23.0602 4.25383 23.1609 3.50178C23.2615 2.74973 23.3772 2.11682 23.0873 1.89046C22.7973 1.6641 22.6066 1.51667 22.3166 1.23968C22.0267 0.962687 21.6196 1.01779 21.3598 1.04757C21.1014 1.07885 20.8145 1.15479 20.5155 1.10118C20.2166 1.04757 19.2822 1.66559 19.2792 2.17788C19.2762 2.69016 19.0314 3.50178 19.6127 4.22404C20.1941 4.94631 21.2666 5.67304 21.2666 5.67304L21.8329 5.09374Z" fill="#F5E7A0"/>
<path d="M21.4168 4.75427C21.8615 4.31942 22.4924 4.34473 22.6681 4.07519C22.8439 3.80713 22.9791 3.16677 22.9686 2.81979C22.9581 2.47281 22.7462 2.19135 22.587 1.99179C22.4278 1.79224 21.9711 0.992538 20.9241 1.41696C19.8771 1.84138 20.0919 2.40281 20.0078 2.92552C19.9237 3.44823 19.6112 3.72374 20.0994 4.04392C20.5876 4.36409 20.5741 5.57631 21.4168 4.75427Z" fill="#FFF69F"/>
<path d="M22.587 1.99174C22.4728 1.86069 22.2685 1.54497 21.9891 1.39903C21.7097 1.25309 21.6857 1.17118 21.214 1.26054C20.7438 1.34989 20.7123 1.24564 20.3037 1.36478C19.8951 1.48392 19.7554 1.56433 19.5887 1.8309C19.4219 2.09747 19.4505 2.9344 19.3874 3.31862C19.3243 3.70283 19.9357 4.18831 20.0603 4.36255C20.1835 4.53529 20.2466 4.66634 20.6011 4.89419C20.9556 5.12204 20.7949 5.18012 21.1374 4.80633C21.4799 4.43254 21.6466 4.31787 21.7848 3.99769C21.923 3.67751 22.3437 3.57476 21.911 3.27841C21.4784 2.98354 21.4994 2.46977 21.0908 2.91951C20.6822 3.36925 20.5831 3.8726 20.4239 3.79814C20.2646 3.72368 20.0618 3.81303 20.1355 3.34989C20.2091 2.88675 20.1159 2.71549 20.3548 2.40722C20.5921 2.10045 20.2767 2.07215 20.7108 1.76835C21.1449 1.46456 21.181 1.1965 21.519 1.38563C21.8569 1.57476 21.9005 1.46456 22.1739 1.76835C22.4473 2.07215 22.587 1.99174 22.587 1.99174Z" fill="#FFD94F"/>
<path d="M21.8329 5.09379C22.3271 4.72744 22.937 4.22409 23.1293 3.62543C23.1639 3.51672 23.1714 3.34844 23.1909 3.23377C23.2239 2.97167 23.2615 2.70809 23.26 2.44599C23.2555 2.25686 23.239 2.03943 23.0842 1.90838C23.0332 1.86669 22.9791 1.82648 22.9265 1.78627C22.6877 1.60756 22.4653 1.40503 22.243 1.20697C22.0583 1.06698 21.8194 1.03571 21.5926 1.0506C21.3252 1.064 21.0668 1.13251 20.7979 1.14591C20.6988 1.15187 20.5921 1.14293 20.496 1.12655C20.3353 1.12506 20.185 1.20846 20.0453 1.28441C19.7314 1.48098 19.3649 1.76393 19.3048 2.14666C19.3003 2.27622 19.2912 2.41322 19.2762 2.54278C19.1636 3.50034 19.3243 4.00071 20.0333 4.66788C20.4104 5.0372 20.8415 5.37227 21.2651 5.67458L21.8329 5.09379ZM21.8329 5.09379L21.2681 5.67607C20.831 5.37823 20.4104 5.04167 20.0228 4.67681C19.3003 4.01263 19.1305 3.50332 19.2342 2.53683C19.2462 2.40429 19.2552 2.27622 19.2597 2.1407C19.3168 1.7401 19.6968 1.44226 20.0198 1.23824C20.1655 1.15782 20.3262 1.06698 20.502 1.07294C20.6026 1.08783 20.6958 1.09826 20.7979 1.0923C21.0623 1.08039 21.3252 1.01337 21.5926 0.999969C21.86 0.980609 22.1559 1.03571 22.3482 1.23675C22.539 1.42141 22.7402 1.59267 22.949 1.75797C23.0016 1.79967 23.0542 1.83988 23.1053 1.88307C23.266 2.02007 23.2825 2.24941 23.2855 2.44301C23.284 2.70957 23.2435 2.97167 23.2074 3.23377C23.1849 3.34844 23.1774 3.51523 23.1413 3.62543C22.937 4.23154 22.3347 4.72447 21.8329 5.09379Z" fill="#FCB116"/>
<path d="M23.9149 7.48401C23.9149 7.48401 23.2299 7.43933 22.9656 7.2919C22.7012 7.14447 22.3887 6.88981 22.3407 6.74089C22.2926 6.59197 21.6046 5.75206 21.863 5.47954C21.9997 5.33509 22.7508 4.175 23.275 4.52198C23.3727 4.58602 23.2705 5.05214 23.3651 5.03278C23.5349 4.99704 23.6671 5.00746 23.7121 5.09235C24.0141 5.66122 23.4793 5.39912 24.1718 5.86524C24.4167 6.03054 24.0246 6.04246 23.8398 6.08415C23.6551 6.12585 23.9645 6.28818 24.1553 6.40731C24.3476 6.52645 24.956 6.81833 24.4647 6.83025C23.9735 6.84365 23.4718 6.58155 23.5169 6.79302C23.5619 7.00448 23.9946 7.17425 24.1703 7.20701C24.3446 7.24127 24.3596 7.62697 23.9149 7.48401Z" fill="#F5C55A"/>
<path d="M21.896 6.39093C22.4458 6.61878 22.3767 6.73791 22.6922 6.86003C23.0092 6.98214 23.0302 7.11468 23.5545 7.12958C24.0802 7.14447 24.4873 7.04022 24.1148 6.82429C23.7437 6.60984 23.0377 6.60984 23.3502 6.44901C23.6626 6.28818 23.8429 6.30456 23.8985 6.16159C23.954 6.01714 23.7798 5.8578 23.5725 5.82206C23.3652 5.78631 23.1729 5.88311 23.3487 5.64782C23.5259 5.41252 23.1459 5.6359 22.871 5.5123C22.5961 5.3887 23.0182 5.17127 22.8199 5.0298C22.6201 4.88832 22.1694 5.32317 22.0388 5.27105C21.9081 5.21744 22.7343 4.71856 22.4353 4.59793C22.1379 4.47879 22.0087 4.67686 21.881 4.54432C21.7533 4.41178 22.3828 4.22861 21.9156 4.12287C21.4499 4.01714 21.5851 4.19436 21.5475 3.77887C21.5085 3.36189 21.2186 2.98512 20.9902 3.43784C20.7619 3.89056 20.8806 4.36115 20.8355 4.53538C20.7934 4.71111 20.4825 5.80418 21.896 6.39093Z" fill="#FFDF49"/>
<path d="M21.0834 6.00525C21.0834 6.00525 18.2382 7.51084 17.5367 6.99855C16.8337 6.48627 16.8307 6.56519 16.6414 6.40436C16.4522 6.24204 16.4206 6.10056 16.3019 5.8474C16.1833 5.59423 16.2644 5.69848 16.2569 5.42298C16.2509 5.14747 16.018 4.98068 16.021 4.85112C16.024 4.72156 16.2554 4.46989 16.4957 4.19885C16.7361 3.92782 16.6129 3.76698 17.0891 3.63593C17.5653 3.50488 18.0655 3.78783 18.2728 3.75656C18.4801 3.72677 18.7595 3.43936 19.1215 3.77592C19.4835 4.11248 20.2482 4.80496 20.5636 5.11471C20.8791 5.42298 21.6031 5.6121 21.0834 6.00525Z" fill="#F5D264"/>
<path d="M20.496 5.24128C20.496 5.24128 19.3694 3.99482 19.0479 3.89504C18.7265 3.79527 18.5342 3.92781 18.1857 3.92483C17.8372 3.92185 17.8206 3.76846 17.4301 3.81016C17.0395 3.85186 16.67 4.26139 16.4777 4.39393C16.2854 4.52647 16.0631 4.75134 16.2058 5.01641C16.4131 5.4051 16.2854 5.50487 16.3725 5.71783C16.4597 5.93078 16.4176 6.25841 16.7691 6.39839C17.1206 6.53838 17.1672 6.73049 17.4256 6.91664C17.6854 7.10279 18.0625 7.06407 18.3975 6.94642C18.731 6.83026 20.5907 6.0663 20.8656 5.93674C21.1389 5.81016 20.8926 5.58976 20.496 5.24128Z" fill="#FFF586"/>
<path d="M21.0833 6.00519C20.2767 6.41026 18.6498 7.21294 17.771 7.10274C17.6629 7.08636 17.5607 7.04019 17.4751 6.97318C17.2438 6.80639 17.0094 6.65151 16.7586 6.5145C16.6369 6.43855 16.5257 6.34026 16.4506 6.21368C16.377 6.08859 16.3305 5.95456 16.2689 5.82798C16.2463 5.77735 16.2208 5.7282 16.2148 5.67012C16.2193 5.58077 16.2433 5.49589 16.2328 5.40653C16.2268 5.22783 16.1021 5.08933 16.0195 4.93744C15.8798 4.69023 16.5333 4.21964 16.6234 3.95903C16.679 3.825 16.7916 3.70884 16.9328 3.66119C17.2032 3.54652 17.5067 3.5629 17.7846 3.63587C17.9889 3.67459 18.1932 3.79671 18.396 3.69842C18.6258 3.59268 18.8436 3.53758 19.0629 3.70735C19.141 3.7699 19.2642 3.89053 19.3378 3.96052C19.5361 4.14667 20.0649 4.64257 20.2692 4.83468L20.5801 5.12507C20.6838 5.22187 20.8069 5.29484 20.9256 5.37377C21.199 5.54652 21.4439 5.74458 21.0833 6.00519ZM21.0833 6.00519C21.6166 5.618 20.8145 5.37824 20.5756 5.12954L20.2632 4.84064C20.0544 4.64853 19.5256 4.16305 19.3228 3.9769C18.9908 3.67012 18.8706 3.51078 18.408 3.73118C18.2037 3.83542 17.9783 3.7148 17.774 3.67757C17.6358 3.6463 17.4961 3.62247 17.3564 3.62247C17.1552 3.62843 16.9313 3.67757 16.7766 3.8116C16.6805 3.90988 16.6444 4.06029 16.5528 4.16752C16.386 4.38345 16.1517 4.57407 16.0495 4.83021C16.036 4.88531 16.0811 4.94786 16.1171 5.00594C16.1968 5.12507 16.2749 5.25761 16.2809 5.40505C16.2854 5.47653 16.2809 5.55099 16.2659 5.62098C16.2568 5.65523 16.2599 5.68055 16.2719 5.71331C16.3966 6.00073 16.4912 6.31495 16.7811 6.48025C17.029 6.61875 17.2663 6.77958 17.4946 6.94786C17.5773 7.01487 17.6719 7.05806 17.7771 7.07593C18.6724 7.1906 20.2632 6.41324 21.0833 6.00519Z" fill="#FCB116"/>
<path d="M21.0758 5.68057C21.0758 5.68057 19.9597 4.62622 19.8305 4.42666C19.7013 4.22711 19.5331 4.01118 19.1621 4.15265C18.791 4.29412 18.3824 4.24647 18.6168 4.50261C18.8511 4.75876 18.8015 4.90917 18.4981 4.99852C18.1947 5.08787 18.5897 5.23381 18.9563 5.37677C19.3228 5.51974 18.3118 5.17424 18.2082 5.43932C18.1045 5.7044 18.441 5.80567 18.2397 6.13627C18.0384 6.46687 17.4946 6.44602 17.9108 6.70366C18.3269 6.96129 17.6464 7.11021 18.6468 6.75876C19.6473 6.40581 20.9512 6.85704 21.0758 5.68057Z" fill="#FFDF49"/>
<path d="M21.4964 6.02303C21.4964 6.02303 21.6586 7.34991 21.5355 7.62244C21.4108 7.89496 21.0998 9.28886 20.873 9.56138C20.6477 9.8339 20.3487 10.0975 20.1174 10.23C19.8846 10.3611 19.7103 10.4683 19.3693 10.4087C19.0283 10.3492 19.0764 10.3119 18.8901 10.2881C18.7039 10.2628 18.7009 10.3417 18.4515 10.3015C18.2021 10.2613 17.8326 9.9307 17.7169 9.76391C17.6013 9.59712 17.4015 9.57031 17.2738 9.27247C17.1461 8.97463 17.0755 8.14961 17.5262 7.6686C17.9768 7.18759 18.5431 6.87337 18.9908 6.73785C19.4384 6.60233 20.2751 6.32534 20.5711 6.12579C20.8685 5.92623 21.4453 5.52713 21.4964 6.02303Z" fill="#FFF487"/>
<path d="M21.3762 6.40131C21.3717 6.44748 21.5099 7.58076 21.1945 8.32834C20.879 9.07592 20.5756 9.44376 20.2105 9.61948C19.8455 9.79521 20.0032 9.31122 19.7374 9.25612C19.5075 9.20846 19.3678 9.22931 19.132 9.13996C18.8961 9.05061 19.0494 8.72745 19.1725 8.40429C19.2416 8.22261 19.0043 8.52641 18.7895 8.49811C18.6227 8.47577 18.5086 8.10496 18.3043 8.10943C17.8371 8.11986 17.6208 8.00668 17.8281 7.74011C18.0354 7.47354 18.432 7.11315 19.0328 6.88679C19.6337 6.66044 20.0273 6.54875 20.6101 6.17198C21.1915 5.7967 21.4378 5.70586 21.3762 6.40131Z" fill="#FFF459"/>
<path d="M21.3402 6.26272C21.3402 6.30144 21.5145 7.26346 21.3012 7.87701C21.0879 8.49056 20.861 8.78245 20.5741 8.91052C20.2872 9.03859 20.3473 9.38558 20.1099 8.93584C19.8726 8.4861 19.6968 8.27016 19.5001 8.1823C19.3033 8.09444 19.4415 7.79809 19.5241 7.53301C19.6067 7.26793 19.3213 7.55237 18.9427 7.5345C18.5642 7.51663 18.3824 7.4094 18.5342 7.19794C18.6859 6.98498 18.9893 6.70352 19.4655 6.54567C19.9417 6.38781 20.2541 6.31484 20.7063 6.0304C21.1585 5.74596 21.3522 5.68044 21.3402 6.26272Z" fill="#FFDF49"/>
<path d="M21.4994 6.023C21.5355 6.31786 21.5625 6.61272 21.5806 6.91056C21.5881 7.15033 21.6196 7.402 21.546 7.63432C21.4273 7.96492 21.3522 8.31042 21.2486 8.64698C21.1539 8.94928 21.0773 9.26202 20.9151 9.53752C20.6192 9.91429 19.9898 10.4802 19.479 10.431C19.1756 10.4221 18.9037 10.2106 18.6017 10.3223C18.4485 10.3313 18.2998 10.2762 18.1736 10.1928C17.9843 10.0721 17.8116 9.91876 17.6779 9.74005C17.6313 9.68495 17.5697 9.64325 17.5097 9.59709C17.3865 9.50774 17.2888 9.38115 17.2393 9.23819C17.1026 8.8093 17.1251 8.32382 17.3219 7.91727C17.3865 7.78175 17.4886 7.66261 17.5953 7.55688C17.8086 7.34541 18.0504 7.16224 18.3103 7.01034C18.5687 6.85695 18.8526 6.74228 19.141 6.66336C19.7088 6.48167 20.2932 6.31786 20.7859 5.97535C21.0052 5.84281 21.4619 5.59262 21.4994 6.023ZM21.4934 6.02449C21.4574 5.60453 21.0037 5.85174 20.7934 5.99024C20.3097 6.34467 19.7209 6.52039 19.156 6.7125C18.8691 6.79739 18.5942 6.90461 18.3374 7.058C18.082 7.20841 17.8446 7.39009 17.6328 7.59709C17.5247 7.69984 17.433 7.81153 17.367 7.94258C17.1747 8.33424 17.1506 8.81079 17.2753 9.22628C17.3219 9.36477 17.4105 9.48391 17.5292 9.57177C17.5863 9.61794 17.6494 9.66112 17.7004 9.72069C17.8311 9.90089 17.9979 10.0513 18.1841 10.1734C18.3073 10.2553 18.4485 10.3089 18.5987 10.303C18.6723 10.303 18.7429 10.2717 18.8211 10.2747C18.8977 10.2777 18.9728 10.2911 19.0434 10.3179C19.3183 10.4176 19.6382 10.4713 19.9071 10.3298C20.2902 10.1406 20.6192 9.85025 20.876 9.51518C21.0338 9.24564 21.1074 8.93141 21.202 8.63655C21.3072 8.29999 21.3868 7.9545 21.516 7.62389C21.5911 7.39605 21.5655 7.14884 21.5625 6.91205C21.5535 6.61421 21.5265 6.31935 21.4934 6.02449Z" fill="#FCB116"/>
<path d="M21.7684 6.00365C21.8991 6.31192 22.2641 5.82793 22.2416 6.08407C22.219 6.33873 22.0493 6.36702 22.2355 6.60976C22.4218 6.8525 22.7868 7.12205 22.5765 7.05205C22.3662 6.98206 22.1184 6.97908 21.9787 6.76613C21.8405 6.55317 21.8946 6.10939 21.6752 6.28958C21.4559 6.46829 21.3688 6.37893 21.3132 6.60529C21.2005 7.06546 21.1209 7.30671 21.0924 6.90015C21.0774 6.69464 21.0398 6.4802 20.9257 6.44148C20.5832 6.32532 20.454 6.7557 20.5366 6.58295C20.5786 6.49658 20.4119 6.4251 20.4269 6.31341C20.4419 6.20023 20.6357 6.04684 20.5441 6.02004C20.478 6.00068 20.4389 5.9694 20.4239 5.93515C20.4104 5.9009 19.781 5.71177 19.6668 5.52711C19.6473 5.49584 20.5261 5.65369 20.5892 5.64922C20.8175 5.62838 20.8821 5.63433 20.7559 5.41095C20.6297 5.18608 20.1761 4.84505 20.2467 4.83761C20.2467 4.83761 20.6583 5.23969 20.7739 5.19055C20.8896 5.14141 20.84 4.82272 20.807 4.45488C20.792 4.27916 20.8791 3.76538 20.9797 3.7907C21.0368 3.80559 20.8866 4.09003 21.0248 4.50849C21.1615 4.92696 21.1104 5.19353 21.3372 5.05354C21.5641 4.91356 21.8931 4.60827 21.9111 4.86441C21.9291 5.12056 21.3838 5.49584 21.6978 5.53753C22.0117 5.57923 22.3377 5.6254 22.3422 5.73709C22.3467 5.84878 21.6512 5.72964 21.7684 6.00365Z" fill="#E28D1F"/>
<path d="M21.4634 6.17349C21.6076 6.15859 21.7879 6.08265 21.7248 6.0469C21.6617 6.01116 21.6331 6.07371 21.6677 5.96798C21.7022 5.86224 21.7293 5.71034 21.579 5.71779C21.4288 5.72524 21.4769 5.72524 21.2996 5.758C21.1224 5.79076 21.0247 5.80416 21.0518 5.74757C21.0803 5.69098 21.1945 5.63886 21.1494 5.54802C21.1044 5.45867 21.178 5.36634 21.1299 5.27252C21.0818 5.1787 20.9647 4.84065 20.9376 5.08488C20.9106 5.3306 21.0353 5.32017 20.9692 5.45271C20.9031 5.58525 20.843 5.66269 20.7423 5.68652C20.6417 5.71183 20.4058 5.82352 20.6222 5.88905C20.84 5.95308 20.843 5.78629 21.0413 5.95011C21.2396 6.11392 21.2245 6.15711 21.2966 6.18838C21.3672 6.22114 21.4634 6.17349 21.4634 6.17349Z" fill="#F5C20C"/>
<path d="M21.4844 8.61126C21.2606 8.35958 21.1584 8.01111 21.1885 7.67902C21.2005 7.56733 21.214 7.45861 21.2215 7.34841C21.2501 6.90612 21.2426 6.46085 21.2245 6.01855C21.2636 6.46085 21.2771 6.90761 21.2471 7.35139C21.2305 7.57179 21.181 7.79071 21.2215 8.0126C21.2561 8.22704 21.3417 8.44 21.4844 8.61126Z" fill="#B76C26"/>
<path d="M22.1514 8.6053C21.9832 8.24789 21.7984 7.86665 21.6437 7.50329C21.5535 7.22779 21.498 6.94335 21.4409 6.6604C21.4018 6.43404 21.3568 6.2047 21.3568 5.97388C21.3583 6.08855 21.3793 6.20321 21.3973 6.31639C21.4694 6.71252 21.5475 7.11014 21.6677 7.49435C21.8194 7.85921 21.9997 8.24342 22.1514 8.6053Z" fill="#B76C26"/>
<path d="M22.5645 8.05725C21.9831 7.57325 21.531 6.94183 21.2876 6.22701C21.2531 6.12575 21.22 6.02299 21.211 5.91577C21.223 6.02299 21.2591 6.12426 21.2951 6.22404C21.549 6.93588 22.0147 7.54347 22.5645 8.05725Z" fill="#B76C26"/>
<path d="M22.5149 7.47942C22.2701 7.27391 22.0372 7.0535 21.8149 6.82566C21.6001 6.59185 21.3673 6.35954 21.2366 6.06616C21.2726 6.13764 21.3147 6.20466 21.3628 6.26869C21.7022 6.7095 22.1153 7.09073 22.5149 7.47942Z" fill="#B76C26"/>
<path d="M21.5715 8.6529C21.5099 8.7214 21.3041 8.57695 21.3372 8.47419C21.3702 8.37144 21.6331 8.58439 21.5715 8.6529Z" fill="#B76C26"/>
<path d="M22.3287 8.53078C22.3557 8.61864 22.1244 8.71842 22.0523 8.63502C21.9802 8.55461 22.3016 8.44292 22.3287 8.53078Z" fill="#B76C26"/>
<path d="M22.6967 7.98577C22.7507 8.06023 22.5645 8.22851 22.4698 8.1749C22.3752 8.12129 22.6411 7.91131 22.6967 7.98577Z" fill="#B76C26"/>
<path d="M22.6516 7.37368C22.7027 7.44963 22.5104 7.61195 22.4173 7.55387C22.3242 7.49579 22.5991 7.29773 22.6516 7.37368Z" fill="#B76C26"/>
<path d="M21.6016 3.57178C21.6932 3.73857 21.7248 3.93663 21.7022 4.12725C21.6782 4.31787 21.5896 4.49062 21.546 4.67677C21.4709 4.95078 21.4093 5.23075 21.3537 5.50923C21.3342 5.60156 21.3162 5.69538 21.2982 5.7892C21.3552 5.41392 21.4303 5.04013 21.5265 4.67081C21.5716 4.48615 21.6617 4.3134 21.6887 4.12576C21.7128 3.93812 21.6872 3.74155 21.6016 3.57178Z" fill="#B76C26"/>
<path d="M21.3838 3.8175C21.4003 4.11683 21.4183 4.43701 21.4244 4.73783C21.4108 4.95675 21.3658 5.17268 21.3237 5.38861C21.2877 5.55987 21.2531 5.73411 21.187 5.89643C21.2186 5.81453 21.2381 5.72815 21.2576 5.64327C21.3237 5.34394 21.3793 5.04163 21.4063 4.73634C21.4048 4.4385 21.3853 4.11683 21.3838 3.8175Z" fill="#B76C26"/>
<path d="M20.9346 4.08704C21.2035 4.59337 21.3417 5.16522 21.3087 5.73856C21.3027 5.81898 21.2982 5.90237 21.2741 5.97981C21.2967 5.90089 21.2997 5.81898 21.3042 5.73856C21.3282 5.16522 21.175 4.60528 20.9346 4.08704Z" fill="#B76C26"/>
<path d="M20.8024 4.51001C20.9166 4.72446 21.0157 4.94486 21.1074 5.16973C21.1915 5.3946 21.2891 5.62542 21.2966 5.86816C21.2726 5.62691 21.175 5.40055 21.0893 5.17717C21.0007 4.95081 20.9016 4.73041 20.8024 4.51001Z" fill="#B76C26"/>
<path d="M21.5445 3.52562C21.6016 3.48541 21.7293 3.62688 21.6872 3.69836C21.6452 3.76836 21.4874 3.56582 21.5445 3.52562Z" fill="#B76C26"/>
<path d="M21.2366 3.82046C21.2426 3.75046 21.4348 3.746 21.4619 3.82492C21.4889 3.90236 21.2305 3.89045 21.2366 3.82046Z" fill="#B76C26"/>
<path d="M20.8205 4.10196C20.8039 4.03346 20.9827 3.96794 21.0338 4.03197C21.0864 4.0975 20.8385 4.16898 20.8205 4.10196Z" fill="#B76C26"/>
<path d="M20.6763 4.54425C20.6627 4.47575 20.8445 4.41618 20.8926 4.48319C20.9421 4.55021 20.6913 4.61275 20.6763 4.54425Z" fill="#B76C26"/>
<path d="M24.0562 5.24426C23.8939 5.43637 23.6671 5.57189 23.4222 5.63741C23.1759 5.70145 22.9205 5.67613 22.6696 5.71485C22.1694 5.77293 21.6737 5.86377 21.178 5.95759C21.4228 5.901 21.6707 5.84888 21.9186 5.8042C22.2911 5.73868 22.6651 5.67464 23.0437 5.66124C23.4207 5.66273 23.8038 5.52721 24.0562 5.24426Z" fill="#B76C26"/>
<path d="M24.0862 5.15338C24.1643 5.20401 24.0517 5.42739 23.9435 5.40952C23.8353 5.39314 24.0081 5.10275 24.0862 5.15338Z" fill="#B76C26"/>
<path d="M23.1519 4.81824C22.9626 4.7959 22.7673 4.8376 22.5976 4.92248C22.4278 5.01035 22.2941 5.15331 22.1334 5.25606C21.8149 5.46902 21.4859 5.6656 21.1479 5.84579C21.2306 5.79813 21.3132 5.74899 21.3943 5.69985C21.6407 5.55391 21.8855 5.4035 22.1214 5.24117C22.2836 5.13842 22.4188 4.99843 22.59 4.91206C22.7628 4.82569 22.9611 4.78845 23.1519 4.81824Z" fill="#B76C26"/>
<path d="M22.9896 5.10425C22.7057 5.20254 22.3932 5.29338 22.1078 5.39315C21.8269 5.52123 21.558 5.67461 21.2966 5.83694C21.2215 5.88459 21.1464 5.92927 21.0803 5.98735C21.2125 5.87119 21.3672 5.78035 21.5175 5.6895C21.7082 5.57781 21.8975 5.46315 22.1018 5.37677C22.3902 5.28146 22.6997 5.19062 22.9896 5.10425Z" fill="#B76C26"/>
<path d="M23.1113 6.17647C22.5705 5.98287 21.9951 5.87862 21.4213 5.95308C21.3402 5.96351 21.2576 5.97393 21.181 6.00223C21.2576 5.97096 21.3402 5.95904 21.4198 5.94713C21.9936 5.86522 22.581 5.95308 23.1113 6.17647Z" fill="#B76C26"/>
<path d="M22.6997 6.34175C22.4698 6.26282 22.2385 6.18389 22.0057 6.1139C21.7728 6.04838 21.537 5.97094 21.2936 5.96796C21.5385 5.95456 21.7788 6.03199 22.0117 6.09603C22.2445 6.16751 22.4744 6.24793 22.6997 6.34175Z" fill="#B76C26"/>
<path d="M23.2134 4.85552C23.2329 4.78851 23.0542 4.71702 23.0016 4.77957C22.949 4.84212 23.1954 4.92253 23.2134 4.85552Z" fill="#B76C26"/>
<path d="M23.0362 5.24121C23.1008 5.21143 23.0392 5.03123 22.9566 5.03272C22.8739 5.03421 22.9731 5.271 23.0362 5.24121Z" fill="#B76C26"/>
<path d="M23.1083 6.28963C23.1774 6.30005 23.2299 6.11688 23.1593 6.0722C23.0902 6.02753 23.0377 6.2792 23.1083 6.28963Z" fill="#B76C26"/>
<path d="M22.6742 6.46979C22.7448 6.47872 22.7883 6.29257 22.7162 6.25087C22.6441 6.20918 22.6051 6.46085 22.6742 6.46979Z" fill="#B76C26"/>
<path d="M21.0938 6.01709C20.8039 6.5264 20.4915 7.03571 20.0754 7.45417C19.9056 7.61352 19.7013 7.74903 19.5316 7.90689C19.4444 7.98582 19.3573 8.06772 19.3002 8.17048C19.3528 8.06474 19.4384 7.97837 19.5226 7.89795C19.7133 7.71329 19.9372 7.56586 20.1204 7.37524C20.499 6.96422 20.7994 6.49066 21.0938 6.01709Z" fill="#B76C26"/>
<path d="M21.2155 5.98132C20.8895 6.19875 20.5561 6.40723 20.2196 6.60977C19.8801 6.80336 19.5481 7.02377 19.1771 7.15779L19.2462 7.13248C19.829 6.84208 20.6477 6.3149 21.2155 5.98132Z" fill="#B76C26"/>
<path d="M21.2005 5.97986C20.9587 6.39535 20.7168 6.80934 20.487 7.23079C20.2902 7.60011 20.0784 7.96794 19.9447 8.36407C19.9282 8.42066 19.9117 8.48023 19.9192 8.5398C19.9086 8.48023 19.9237 8.41917 19.9387 8.36258C20.0589 7.95901 20.2692 7.58969 20.4645 7.21888C20.6973 6.79892 20.9421 6.38492 21.2005 5.97986Z" fill="#B76C26"/>
<path d="M20.6312 7.89945C20.8445 7.3544 20.9947 6.75127 21.2546 6.22559C21.0262 6.76617 20.8775 7.36781 20.6312 7.89945Z" fill="#B76C26"/>
<path d="M19.4594 8.19726C19.4324 8.28513 19.1846 8.24194 19.171 8.13472C19.156 8.02749 19.485 8.1094 19.4594 8.19726Z" fill="#B76C26"/>
<path d="M20.119 8.53674C20.0919 8.6246 19.8441 8.58142 19.8305 8.47419C19.817 8.36697 20.146 8.44888 20.119 8.53674Z" fill="#B76C26"/>
<path d="M19.132 6.28656C19.796 6.21657 20.4975 6.17785 21.1524 6.06318C21.1975 6.05574 21.2396 6.04233 21.2831 6.02893C20.9391 6.1436 20.5726 6.16594 20.2136 6.20912C19.8546 6.24338 19.494 6.27167 19.132 6.28656Z" fill="#B76C26"/>
<path d="M19.2972 5.86963C19.823 5.90984 20.5636 6.00515 21.0818 5.99323L21.1134 5.99174L21.0923 6.01408C20.8911 6.23299 20.5891 6.54126 20.3788 6.75719C20.1355 6.99993 19.8996 7.25161 19.6262 7.46159C19.8921 7.24416 20.1249 6.98802 20.3668 6.74528C20.544 6.56062 20.9001 6.18534 21.0758 5.9977L21.0863 6.01855C20.9346 6.026 20.7859 6.01408 20.6372 6.00366C20.188 5.96941 19.7419 5.92324 19.2972 5.86963Z" fill="#B76C26"/>
<path d="M19.431 5.25903C20.0093 5.46752 20.5786 5.70282 21.1329 5.96789C21.0623 5.93662 20.9917 5.90833 20.9196 5.88003C20.4464 5.68941 19.8996 5.45561 19.431 5.25903Z" fill="#B76C26"/>
<path d="M18.752 5.02674C19.6307 5.00589 20.5621 5.27842 21.1735 5.92622L21.0503 5.81602L20.9887 5.76092C20.3638 5.26055 19.5466 5.04015 18.752 5.02674Z" fill="#B76C26"/>
<path d="M19.3152 4.63806C20.0964 4.8123 20.837 5.24863 21.2666 5.93069L21.1764 5.81155C20.7213 5.21438 20.0348 4.83464 19.3152 4.63806Z" fill="#B76C26"/>
<path d="M19.3198 6.43403C19.2417 6.48317 19.0824 6.28957 19.1425 6.19873C19.2026 6.10938 19.3979 6.38488 19.3198 6.43403Z" fill="#B76C26"/>
<path d="M19.2552 5.99919C19.1696 5.96345 19.2402 5.72369 19.3498 5.72071C19.458 5.71922 19.3408 6.03493 19.2552 5.99919Z" fill="#B76C26"/>
<path d="M19.3093 4.77655C19.2236 4.74081 19.2942 4.50105 19.4039 4.49807C19.5136 4.49509 19.3949 4.81229 19.3093 4.77655Z" fill="#B76C26"/>
<path d="M19.3183 5.35437C19.2807 5.27098 19.4971 5.14291 19.5782 5.21439C19.6593 5.28587 19.3574 5.43777 19.3183 5.35437Z" fill="#B76C26"/>
<path d="M18.6829 4.89862C18.7655 4.85841 18.9022 5.06839 18.8331 5.15178C18.764 5.23518 18.6002 4.93883 18.6829 4.89862Z" fill="#B76C26"/>
<path d="M20.7273 7.94711C20.6733 8.02157 20.4539 7.89797 20.4765 7.79223C20.5005 7.6865 20.7829 7.87265 20.7273 7.94711Z" fill="#B76C26"/>
<path d="M19.6277 7.55687C19.5361 7.57474 19.4595 7.33646 19.5496 7.27392C19.6367 7.21137 19.7179 7.53899 19.6277 7.55687Z" fill="#B76C26"/>
<path d="M19.2417 6.99989C19.3288 7.03265 19.2642 7.27539 19.1546 7.27986C19.0449 7.28433 19.1561 6.96564 19.2417 6.99989Z" fill="#B76C26"/>
<path d="M21.8329 5.09379C22.3271 4.72744 22.937 4.22409 23.1293 3.62543C23.1639 3.51672 23.1714 3.34844 23.1909 3.23377C23.2239 2.97167 23.2615 2.70809 23.26 2.44599C23.2555 2.25686 23.239 2.03943 23.0842 1.90838C23.0332 1.86669 22.9791 1.82648 22.9265 1.78627C22.6877 1.60756 22.4653 1.40503 22.243 1.20697C22.0583 1.06698 21.8194 1.03571 21.5926 1.0506C21.3252 1.064 21.0668 1.13251 20.7979 1.14591C20.6988 1.15187 20.5921 1.14293 20.496 1.12655C20.3353 1.12506 20.185 1.20846 20.0453 1.28441C19.7314 1.48098 19.3649 1.76393 19.3048 2.14666C19.3003 2.27622 19.2912 2.41322 19.2762 2.54278C19.1636 3.50034 19.3243 4.00071 20.0333 4.66788C20.4104 5.0372 20.8415 5.37227 21.2651 5.67458L21.8329 5.09379ZM21.8329 5.09379L21.2681 5.67607C20.831 5.37823 20.4104 5.04167 20.0228 4.67681C19.3003 4.01263 19.1305 3.50332 19.2342 2.53683C19.2462 2.40429 19.2552 2.27622 19.2597 2.1407C19.3168 1.7401 19.6968 1.44226 20.0198 1.23824C20.1655 1.15782 20.3262 1.06698 20.502 1.07294C20.6026 1.08783 20.6958 1.09826 20.7979 1.0923C21.0623 1.08039 21.3252 1.01337 21.5926 0.999969C21.86 0.980609 22.1559 1.03571 22.3482 1.23675C22.539 1.42141 22.7402 1.59267 22.949 1.75797C23.0016 1.79967 23.0542 1.83988 23.1053 1.88307C23.266 2.02007 23.2825 2.24941 23.2855 2.44301C23.284 2.70957 23.2435 2.97167 23.2074 3.23377C23.1849 3.34844 23.1774 3.51523 23.1413 3.62543C22.937 4.23154 22.3347 4.72447 21.8329 5.09379Z" fill="#FCB116"/>
</g>
<g clip-path="url(#clip2_43_4120)">
<path d="M16.525 11.5371C16.525 11.5371 18.1122 12.9685 18.4692 13.7298C18.8261 14.491 18.4232 15.1397 18.4016 15.6812C18.3799 16.2227 18.388 16.7454 17.9716 17.0135C17.5552 17.2842 17.2227 17.3298 16.9009 17.6648C16.5818 17.9999 15.9599 18.0348 15.3678 17.8632C14.7756 17.6943 13.5048 16.6167 13.0559 16.2709C12.6044 15.9251 12.0798 15.6356 12.1474 14.8529C12.215 14.0702 12.2096 13.317 12.2745 12.6495C12.3394 11.982 12.5341 11.6979 12.7612 10.7919C12.9883 9.88583 12.5908 8.97176 12.7639 8.70638C12.9369 8.43832 16.525 11.5371 16.525 11.5371Z" fill="#FFF8A9"/>
<path d="M15.3705 11.328C15.8329 11.8051 16.5818 12.2983 17.0604 12.8291C17.539 13.3598 18.0501 14.416 17.8527 15.389C17.6553 16.3621 17.5499 16.2843 17.001 16.4693C16.4521 16.6543 17.0172 17.4209 16.0681 17.3592C15.119 17.2976 14.151 16.5792 13.6995 15.8742C13.2479 15.1692 12.7991 14.8047 12.6585 14.1024C12.5179 13.4 12.3854 13.1802 12.526 12.1643C12.6666 11.1484 13.1046 9.98233 13.0586 9.49178C13.0127 9.00124 14.927 10.8696 15.3705 11.328Z" fill="#FFDF52"/>
<path d="M15.3704 11.328C15.8328 11.8051 15.922 12.3466 16.4006 12.8773C16.8792 13.4081 17.393 14.1801 17.1956 15.1531C16.9982 16.1262 16.8657 15.7884 16.3168 15.9761C15.7679 16.1637 15.7733 15.2282 15.1974 15.9788C14.7756 16.5283 14.1483 16.5819 13.6967 15.8742C13.2452 15.1665 12.7963 14.8047 12.6557 14.1024C12.5151 13.4 12.3826 13.1802 12.5232 12.1643C12.6638 11.1484 13.1019 9.98233 13.0559 9.49178C13.0126 9.00124 14.927 10.8696 15.3704 11.328Z" fill="#FFF375"/>
<path d="M16.5251 11.5371C16.909 11.8855 17.2794 12.2474 17.6337 12.6281C17.9744 13.0114 18.3529 13.3947 18.5368 13.8826C18.7206 14.3838 18.5638 14.9119 18.4529 15.4105C18.3556 15.9091 18.5043 16.4908 18.1366 16.9089C17.95 17.0992 17.6986 17.1957 17.466 17.3164C17.2227 17.4236 17.028 17.5791 16.8414 17.764C16.6278 17.9329 16.352 17.9919 16.0897 17.9999C15.5543 18.0267 15.0406 17.815 14.6161 17.5094C13.9644 17.0778 13.3777 16.5605 12.7504 16.1021C12.5449 15.9439 12.3367 15.7616 12.2177 15.5177C12.0933 15.2791 12.0852 14.995 12.115 14.7377C12.1555 14.2257 12.169 13.7083 12.1988 13.191C12.2177 12.6736 12.2907 12.1509 12.4746 11.6631C12.6314 11.1752 12.8153 10.6847 12.8126 10.1673C12.8153 9.90997 12.7855 9.65532 12.7531 9.39798C12.7423 9.25055 12.6125 8.62866 12.8396 8.67959C13.3236 8.88064 13.713 9.24787 14.1294 9.55346C14.946 10.1914 15.7382 10.8616 16.5251 11.5371ZM16.5251 11.5371C15.7355 10.8643 14.9378 10.1995 14.1186 9.5615C13.8103 9.32561 13.4994 9.08972 13.1722 8.88064C13.0505 8.81362 12.9288 8.71176 12.7882 8.7064C12.7828 8.7064 12.7801 8.71176 12.7774 8.71444C12.7287 8.80558 12.7342 8.91012 12.7396 9.01198C12.7747 9.39798 12.8585 9.77862 12.8558 10.1673C12.8639 10.69 12.6828 11.1913 12.5314 11.6818C12.3529 12.1724 12.2934 12.6763 12.2745 13.1937C12.2474 13.7083 12.2366 14.2257 12.1988 14.7404C12.1717 14.9923 12.1799 15.247 12.2961 15.4748C12.407 15.7 12.6017 15.8715 12.8045 16.0243C13.4318 16.4881 14.0131 17.0054 14.6593 17.437C15.0785 17.7399 15.5625 17.9436 16.0843 17.9249C16.3385 17.9195 16.5981 17.8659 16.7981 17.7104C16.982 17.5308 17.1983 17.3646 17.439 17.2628C17.6661 17.1502 17.9203 17.0537 18.0987 16.8741C18.4584 16.4747 18.3177 15.8876 18.4205 15.3998C18.5341 14.9039 18.7017 14.3838 18.5205 13.8826C18.3394 13.3974 17.9635 13.0114 17.6255 12.6281C17.2767 12.2501 16.9063 11.8882 16.5251 11.5371Z" fill="#E5A316"/>
<path d="M13.1208 9.12193C13.5778 9.73042 13.9915 10.4006 14.608 10.8616C15.0217 11.1672 15.5003 11.3548 15.9761 11.5452C16.4466 11.7435 16.9117 11.9714 17.4146 12.0598C17.6634 12.1027 17.9203 12.1081 18.1582 12.025C18.6314 11.8481 19.064 11.5505 19.4615 11.2423C19.8103 10.9635 20.1537 10.6713 20.4349 10.3255C20.6188 10.0655 20.7459 9.77063 20.8378 9.46773C20.9622 8.99863 21.0649 8.43035 20.7756 8.00414C20.5458 7.70123 20.2564 7.41709 20.1402 7.04182C20.0672 6.7952 20.1726 6.52715 20.1077 6.28322C20.0807 6.16527 20.005 6.07145 19.886 6.03928C19.7535 6.01248 19.6156 5.95351 19.5453 5.8302C19.475 5.70957 19.4561 5.57555 19.4372 5.44956C19.4372 5.18954 19.229 5.02067 19.0099 4.90808C18.7882 4.7955 18.5368 4.73921 18.2853 4.72313C18.0311 4.7124 17.7688 4.75261 17.512 4.72581C17.1253 4.70168 16.7576 4.56497 16.379 4.65611C15.9221 4.73653 15.8653 5.09572 15.6463 5.4308C15.4975 5.64792 15.3002 5.82752 15.0811 5.96959C14.2402 6.54859 13.3777 7.12223 12.6368 7.82454C12.5422 7.913 12.48 8.02558 12.5178 8.15693C12.6206 8.52417 12.8802 8.82975 13.1208 9.12193ZM13.1154 9.1273C12.8693 8.83779 12.6071 8.53221 12.5043 8.15961C12.4637 8.02826 12.5286 7.89692 12.6233 7.80846C13.3506 7.0847 14.2051 6.49766 15.0352 5.89989C15.2434 5.75782 15.4299 5.58627 15.5706 5.37986C15.8004 5.01799 15.8626 4.65879 16.3601 4.56497C16.7468 4.46579 17.1469 4.6025 17.5228 4.63199C17.7797 4.66147 18.0311 4.61858 18.2934 4.63467C18.5557 4.65343 18.8153 4.7124 19.0532 4.83303C19.229 4.92417 19.4047 5.05284 19.4831 5.24584C19.5399 5.4308 19.521 5.63184 19.6156 5.79535C19.6589 5.87309 19.7346 5.92402 19.8184 5.94814C20.1997 6.01248 20.2186 6.35023 20.1861 6.66117C20.0861 7.19193 20.5241 7.58597 20.8108 7.98269C21.1082 8.42767 20.9973 8.99863 20.8648 9.48113C20.7729 9.78671 20.6485 10.0869 20.4619 10.3496C20.178 10.6981 19.84 10.9983 19.4939 11.2878C19.0911 11.6095 18.6692 11.9151 18.1825 12.1027C17.9311 12.1912 17.658 12.1885 17.4011 12.1456C16.8874 12.0598 16.4196 11.8213 15.9491 11.6175C15.4759 11.4219 14.9946 11.2155 14.5836 10.8991C13.9779 10.414 13.5669 9.74114 13.1154 9.1273Z" fill="#E5A316"/>
<path d="M13.1181 9.12462C13.1181 9.12462 13.7995 10.0977 14.1888 10.5132C14.5782 10.9286 15.0514 11.2128 15.7841 11.505C16.5169 11.7971 17.4876 12.3681 18.269 12.0304C19.0478 11.6926 19.9238 10.9394 20.37 10.4381C20.8161 9.93951 21.2407 8.54026 20.781 7.97466C20.3213 7.40638 20.1077 7.13296 20.1456 6.76036C20.1834 6.38776 20.1861 6.06341 19.8562 5.99372C19.5264 5.92402 19.5129 5.65865 19.4642 5.32894C19.4155 4.99923 18.799 4.61859 17.9905 4.68024C17.1821 4.74189 16.8414 4.44971 16.2519 4.64539C15.6625 4.84108 15.9356 5.34234 15.0703 5.92939C14.2051 6.51643 12.7206 7.61814 12.5313 7.94249C12.3421 8.26952 13.1181 9.12462 13.1181 9.12462Z" fill="#F2E5A0"/>
<path d="M13.9834 10.6043C14.7783 11.1512 15.649 11.4943 16.1762 11.6712C16.7035 11.8481 17.4876 12.269 18.1663 11.891C18.845 11.513 19.3885 11.1083 19.8103 10.6043C20.2321 10.1031 20.7594 9.47045 20.5214 8.80567C20.2862 8.13821 20.3376 7.54848 19.7508 7.1464C19.1641 6.74431 19.2317 6.62369 19.0505 6.11974C18.8693 5.61579 18.8693 5.07432 18.1501 5.10113C17.4309 5.12525 17.3957 4.99122 16.7387 5.00999C16.0816 5.02607 14.1159 7.20537 13.548 7.61014C12.9829 8.01222 12.3123 9.45436 13.9834 10.6043Z" fill="#FFF586"/>
<path d="M13.4994 7.36878C13.4994 7.36878 15.7085 5.85694 15.8896 4.50325C16.0708 3.14956 16.279 2.01032 15.7572 1.60288C15.2353 1.19543 14.8919 0.930057 14.37 0.431471C13.8482 -0.0671139 13.1154 0.032067 12.6476 0.0856783C12.1826 0.14197 11.6661 0.278679 11.128 0.182179C10.59 0.0856783 8.90812 1.19811 8.90272 2.12023C8.89731 3.04234 8.45657 4.50325 9.50299 5.80332C10.5494 7.1034 12.48 8.41152 12.48 8.41152L13.4994 7.36878Z" fill="#F5E7A0"/>
<path d="M12.7504 6.75763C13.5507 5.9749 14.6864 6.02047 15.0028 5.53529C15.3191 5.05279 15.5625 3.90015 15.5435 3.27557C15.5246 2.651 15.1434 2.14438 14.8567 1.78518C14.5701 1.42598 13.7481 -0.0134801 11.8635 0.750481C9.97887 1.51444 10.3655 2.52502 10.2141 3.46589C10.0627 4.40677 9.50027 4.90268 10.379 5.479C11.2578 6.05532 11.2335 8.2373 12.7504 6.75763Z" fill="#FFF69F"/>
<path d="M14.8567 1.78525C14.6512 1.54936 14.2835 0.981076 13.7806 0.718381C13.2776 0.455685 13.2344 0.308254 12.3853 0.469088C11.539 0.629922 11.4822 0.442282 10.7468 0.656728C10.0113 0.871173 9.75983 1.01592 9.45969 1.49574C9.15956 1.97557 9.21093 3.48204 9.09737 4.17363C8.9838 4.86522 10.0843 5.73908 10.3087 6.05271C10.5304 6.36365 10.644 6.59954 11.2821 7.00967C11.9203 7.4198 11.6309 7.52434 12.2474 6.85151C12.8639 6.17869 13.1641 5.97229 13.4128 5.39597C13.6616 4.81965 14.4187 4.63469 13.64 4.10125C12.8612 3.5705 12.8991 2.64571 12.1636 3.45524C11.4281 4.26477 11.2497 5.1708 10.9631 5.03677C10.6765 4.90274 10.3114 5.06358 10.4439 4.22992C10.5764 3.39627 10.4088 3.088 10.8387 2.53312C11.2659 1.98093 10.6981 1.93 11.4795 1.38316C12.261 0.836325 12.3258 0.353824 12.9342 0.694255C13.5426 1.03469 13.621 0.836325 14.1131 1.38316C14.6053 1.93 14.8567 1.78525 14.8567 1.78525Z" fill="#FFD94F"/>
<path d="M13.4994 7.36882C14.389 6.7094 15.4868 5.80337 15.8329 4.72578C15.895 4.5301 15.9086 4.2272 15.9437 4.02079C16.0032 3.54901 16.0708 3.07455 16.0681 2.60277C16.06 2.26234 16.0302 1.87098 15.7517 1.63509C15.6598 1.56003 15.5625 1.48766 15.4678 1.41528C15.0379 1.09362 14.6377 0.729058 14.2375 0.372543C13.905 0.12057 13.475 0.0642779 13.0667 0.0910836C12.5854 0.115209 12.1204 0.238515 11.6364 0.26264C11.4579 0.273362 11.2659 0.257279 11.0929 0.227792C10.8036 0.225112 10.5332 0.375224 10.2817 0.511932C9.71659 0.865767 9.05683 1.37507 8.94867 2.06398C8.94056 2.29719 8.92434 2.5438 8.8973 2.77701C8.6945 4.50061 8.98382 5.40128 10.2601 6.60218C10.9388 7.26696 11.7148 7.87009 12.4773 8.41424L13.4994 7.36882ZM13.4994 7.36882L12.4827 8.41692C11.6959 7.88081 10.9388 7.275 10.2411 6.61826C8.94056 5.42273 8.63502 4.50598 8.82159 2.76629C8.84322 2.52772 8.85944 2.29719 8.86755 2.05326C8.9703 1.33219 9.6544 0.796072 10.2357 0.428835C10.498 0.284084 10.7873 0.12057 11.1037 0.131292C11.2849 0.158098 11.4525 0.176862 11.6364 0.166139C12.1123 0.144695 12.5854 0.0240694 13.0667 -5.56735e-05C13.548 -0.034903 14.0807 0.0642779 14.4268 0.426154C14.7702 0.758544 15.1325 1.06681 15.5084 1.36435C15.603 1.43941 15.6977 1.51178 15.7896 1.58952C16.0789 1.83613 16.1087 2.24894 16.1141 2.59741C16.1114 3.07723 16.0384 3.54901 15.9735 4.02079C15.9329 4.2272 15.9194 4.52742 15.8545 4.72578C15.4868 5.81677 14.4025 6.70404 13.4994 7.36882Z" fill="#FCB116"/>
<path d="M17.247 11.6712C17.247 11.6712 16.014 11.5908 15.5381 11.3254C15.0622 11.06 14.4998 10.6016 14.4133 10.3336C14.3267 10.0655 13.0883 8.55369 13.5534 8.06314C13.7995 7.80313 15.1514 5.71497 16.0951 6.33954C16.2709 6.4548 16.087 7.29382 16.2573 7.25897C16.5629 7.19464 16.8008 7.2134 16.8819 7.3662C17.4254 8.39017 16.4628 7.91839 17.7093 8.75741C18.1501 9.05495 17.4444 9.0764 17.1118 9.15145C16.7792 9.22651 17.3362 9.51869 17.6796 9.73314C18.0257 9.94758 19.1208 10.473 18.2366 10.4944C17.3524 10.5185 16.4493 10.0468 16.5304 10.4274C16.6115 10.808 17.3903 11.1136 17.7066 11.1726C18.0203 11.2343 18.0473 11.9285 17.247 11.6712Z" fill="#F5C55A"/>
<path d="M13.6129 9.70358C14.6025 10.1137 14.4782 10.3281 15.046 10.548C15.6165 10.7678 15.6544 11.0063 16.598 11.0331C17.5444 11.0599 18.2772 10.8723 17.6066 10.4836C16.9387 10.0976 15.6679 10.0976 16.2303 9.80812C16.7927 9.51862 17.1172 9.5481 17.2172 9.29077C17.3173 9.03076 17.0036 8.74394 16.6305 8.6796C16.2573 8.61527 15.9112 8.7895 16.2276 8.36598C16.5467 7.94245 15.8626 8.34453 15.3678 8.12204C14.8729 7.89956 15.6327 7.50819 15.2758 7.25354C14.9162 6.99889 14.105 7.78161 13.8698 7.68779C13.6345 7.59129 15.1217 6.6933 14.5836 6.47618C14.0482 6.26173 13.8157 6.61825 13.5859 6.37968C13.356 6.14111 14.489 5.8114 13.6481 5.62108C12.8098 5.43076 13.0532 5.74974 12.9856 5.00187C12.9153 4.25131 12.3934 3.57312 11.9824 4.38802C11.5715 5.20291 11.7851 6.04997 11.7039 6.36359C11.6282 6.6799 11.0685 8.64744 13.6129 9.70358Z" fill="#FFDF49"/>
<path d="M12.1501 9.00941C12.1501 9.00941 7.02888 11.7195 5.76615 10.7973C4.50071 9.87523 4.49531 10.0173 4.15461 9.7278C3.81392 9.43562 3.75714 9.18096 3.54353 8.72527C3.32992 8.26957 3.47593 8.45721 3.46241 7.96131C3.45159 7.4654 3.03249 7.16518 3.03789 6.93197C3.0433 6.69876 3.45971 6.24574 3.89233 5.75788C4.32496 5.27002 4.10324 4.98052 4.96038 4.74463C5.81752 4.50874 6.71793 5.01805 7.09107 4.96175C7.46421 4.90814 7.96714 4.39079 8.61879 4.9966C9.27043 5.60241 10.6467 6.84887 11.2146 7.40643C11.7824 7.96131 13.0857 8.30174 12.1501 9.00941Z" fill="#F5D264"/>
<path d="M11.0929 7.63424C11.0929 7.63424 9.06493 5.3906 8.48629 5.21101C7.90765 5.03141 7.56155 5.26998 6.93424 5.26462C6.30693 5.25926 6.27718 4.98316 5.57416 5.05821C4.87114 5.13327 4.20598 5.87042 3.85988 6.10899C3.51378 6.34757 3.1136 6.75233 3.37047 7.22947C3.74361 7.9291 3.51378 8.1087 3.6706 8.49202C3.82743 8.87534 3.75172 9.46506 4.38444 9.71704C5.01716 9.96901 5.10098 10.3148 5.56605 10.6499C6.03383 10.9849 6.71251 10.9152 7.31549 10.7035C7.91576 10.4944 11.2632 9.11927 11.758 8.88606C12.2501 8.65821 11.8067 8.26149 11.0929 7.63424Z" fill="#FFF586"/>
<path d="M12.1501 9.00935C10.6981 9.73846 7.76974 11.1833 6.18794 10.9849C5.99326 10.9554 5.80939 10.8723 5.65527 10.7517C5.23887 10.4515 4.81705 10.1727 4.3655 9.9261C4.14648 9.78939 3.94639 9.61248 3.8112 9.38463C3.6787 9.15946 3.59488 8.91821 3.48402 8.69036C3.44346 8.59922 3.3975 8.51076 3.38668 8.40622C3.39479 8.24539 3.43806 8.0926 3.41913 7.93176C3.40831 7.61009 3.18389 7.3608 3.03517 7.08738C2.78371 6.64241 3.95991 5.79535 4.12215 5.32625C4.22219 5.085 4.42499 4.87592 4.67915 4.79014C5.16586 4.58374 5.71205 4.61322 6.21228 4.74457C6.58001 4.81426 6.94774 5.03407 7.31277 4.85715C7.72647 4.66683 8.11854 4.56765 8.51331 4.87324C8.65392 4.98582 8.87564 5.20295 9.00813 5.32893C9.36505 5.664 10.3168 6.55663 10.6846 6.90242L11.2443 7.42513C11.4308 7.59937 11.6526 7.73072 11.8662 7.87279C12.3583 8.18374 12.799 8.54025 12.1501 9.00935ZM12.1501 9.00935C13.11 8.3124 11.6661 7.88083 11.2362 7.43318L10.6737 6.91315C10.2979 6.56735 9.34612 5.69349 8.98109 5.35842C8.38353 4.80622 8.16721 4.5194 7.3344 4.91612C6.96667 5.10376 6.56108 4.88664 6.19335 4.81962C5.94459 4.76333 5.69312 4.72044 5.44166 4.72044C5.07933 4.73117 4.67645 4.81962 4.39795 5.06088C4.2249 5.23779 4.16 5.50853 3.99506 5.70153C3.69493 6.09021 3.27312 6.43333 3.08925 6.89438C3.06491 6.99356 3.14603 7.10615 3.21093 7.21069C3.35423 7.42513 3.49484 7.66371 3.50565 7.92908C3.51376 8.05775 3.50565 8.19178 3.47861 8.31776C3.46239 8.37942 3.4678 8.42499 3.48943 8.48396C3.71385 9.00131 3.8842 9.56691 4.40606 9.86445C4.85221 10.1137 5.27942 10.4032 5.69042 10.7061C5.83914 10.8268 6.00948 10.9045 6.19876 10.9367C7.81029 11.1431 10.6737 9.74382 12.1501 9.00935Z" fill="#FCB116"/>
<path d="M12.1366 8.42501C12.1366 8.42501 10.1276 6.52717 9.89505 6.16797C9.66251 5.80877 9.35967 5.42009 8.6918 5.67474C8.02393 5.9294 7.28847 5.84362 7.71028 6.30468C8.13209 6.76574 8.04286 7.03647 7.49667 7.19731C6.95048 7.35814 7.66161 7.62084 8.32136 7.87817C8.98112 8.1355 7.16138 7.51361 6.97481 7.99075C6.78824 8.46789 7.39392 8.65017 7.03159 9.24526C6.66927 9.84035 5.69045 9.80282 6.43944 10.2666C7.18842 10.7303 5.96355 10.9983 7.76436 10.3657C9.56517 9.73044 11.9122 10.5427 12.1366 8.42501Z" fill="#FFDF49"/>
<path d="M12.8937 9.04141C12.8937 9.04141 13.1857 11.4298 12.964 11.9203C12.7396 12.4109 12.1799 14.9199 11.7716 15.4104C11.366 15.901 10.8279 16.3754 10.4115 16.614C9.99238 16.8499 9.67873 17.0429 9.06494 16.9357C8.45115 16.8285 8.53767 16.7614 8.20239 16.7186C7.8671 16.673 7.86169 16.8151 7.41284 16.7427C6.96399 16.6703 6.29883 16.0752 6.09062 15.775C5.88242 15.4748 5.5228 15.4265 5.29297 14.8904C5.06313 14.3543 4.93605 12.8693 5.74723 12.0034C6.5584 11.1376 7.57778 10.572 8.38355 10.3281C9.18932 10.0841 10.6954 9.58556 11.2281 9.22637C11.7635 8.86717 12.8018 8.14878 12.8937 9.04141Z" fill="#FFF487"/>
<path d="M12.6773 9.72237C12.6692 9.80546 12.918 11.8454 12.3502 13.191C11.7824 14.5367 11.2362 15.1988 10.5791 15.5151C9.92205 15.8314 10.206 14.9602 9.72737 14.861C9.31367 14.7752 9.06221 14.8128 8.63769 14.6519C8.21318 14.4911 8.48898 13.9094 8.7107 13.3277C8.83508 13.0007 8.40786 13.5475 8.0212 13.4966C7.72106 13.4564 7.51556 12.7889 7.14783 12.797C6.30691 12.8157 5.91755 12.612 6.29069 12.1322C6.66383 11.6524 7.37767 11.0037 8.45923 10.5962C9.5408 10.1888 10.2492 9.98774 11.2983 9.30956C12.3448 8.63406 12.7882 8.47054 12.6773 9.72237Z" fill="#FFF459"/>
<path d="M12.6124 9.47296C12.6124 9.54266 12.9261 11.2743 12.5421 12.3787C12.1582 13.4831 11.7499 14.0085 11.2334 14.239C10.717 14.4695 10.8251 15.0941 10.3979 14.2846C9.97071 13.475 9.65435 13.0864 9.30014 12.9282C8.94592 12.7701 9.19468 12.2366 9.3434 11.7595C9.49211 11.2823 8.97837 11.7943 8.29698 11.7622C7.61559 11.73 7.28842 11.537 7.56151 11.1564C7.83461 10.773 8.3808 10.2664 9.23795 9.98227C10.0951 9.69813 10.6575 9.56678 11.4714 9.05479C12.2853 8.54281 12.6341 8.42486 12.6124 9.47296Z" fill="#FFDF49"/>
<path d="M12.8991 9.04145C12.964 9.5722 13.0126 10.103 13.0451 10.6391C13.0586 11.0706 13.1154 11.5237 12.9829 11.9418C12.7693 12.5369 12.6341 13.1588 12.4475 13.7646C12.2772 14.3088 12.1393 14.8717 11.8472 15.3676C11.3146 16.0458 10.1816 17.0644 9.2623 16.9759C8.71611 16.9598 8.2267 16.5792 7.68321 16.7802C7.40741 16.7963 7.13972 16.6971 6.91259 16.547C6.5719 16.3299 6.26095 16.0538 6.0203 15.7321C5.93648 15.633 5.82562 15.5579 5.71746 15.4748C5.49574 15.314 5.31998 15.0861 5.23075 14.8288C4.9847 14.0568 5.02526 13.1829 5.37947 12.4511C5.49574 12.2072 5.6796 11.9928 5.87158 11.8024C6.25554 11.4218 6.69087 11.0921 7.15865 10.8187C7.62372 10.5426 8.13476 10.3362 8.65392 10.1941C9.676 9.86706 10.7278 9.5722 11.6147 8.95567C12.0095 8.7171 12.8315 8.26676 12.8991 9.04145ZM12.8883 9.04413C12.8234 8.28821 12.0068 8.73318 11.6282 8.98248C10.7576 9.62045 9.69763 9.93676 8.68096 10.2826C8.16451 10.4353 7.66969 10.6283 7.20732 10.9044C6.74765 11.1752 6.32043 11.5022 5.93918 11.8748C5.7445 12.0598 5.57956 12.2608 5.46059 12.4967C5.11449 13.2017 5.07122 14.0595 5.29565 14.8073C5.37947 15.0566 5.539 15.2711 5.75261 15.4292C5.85536 15.5123 5.96892 15.5901 6.06086 15.6973C6.2961 16.0216 6.59623 16.2924 6.93152 16.5122C7.15324 16.6596 7.40741 16.7561 7.6778 16.7454C7.81029 16.7454 7.93738 16.6891 8.07798 16.6945C8.21588 16.6998 8.35108 16.724 8.47816 16.7722C8.97298 16.9518 9.54891 17.0483 10.0329 16.7936C10.7224 16.4532 11.3146 15.9305 11.7769 15.3274C12.0609 14.8422 12.1933 14.2766 12.3637 13.7458C12.553 13.14 12.6963 12.5181 12.9288 11.9231C13.064 11.5129 13.018 11.068 13.0126 10.6417C12.9964 10.1056 12.9477 9.57488 12.8883 9.04413Z" fill="#FCB116"/>
<path d="M13.3831 9.00668C13.6183 9.56155 14.2754 8.69037 14.2348 9.15143C14.1943 9.6098 13.8887 9.66073 14.224 10.0977C14.5593 10.5346 15.2164 11.0198 14.8378 10.8938C14.4593 10.7678 14.0131 10.7624 13.7616 10.3791C13.5129 9.9958 13.6102 9.197 13.2155 9.52134C12.8207 9.84301 12.6639 9.68218 12.5638 10.0896C12.361 10.9179 12.2177 11.3522 12.1663 10.6204C12.1393 10.2505 12.0717 9.86446 11.8662 9.79476C11.2497 9.58568 11.0172 10.3604 11.1659 10.0494C11.2416 9.89394 10.9415 9.76528 10.9685 9.56423C10.9955 9.36051 11.3443 9.08441 11.1794 9.03616C11.0604 9.00131 10.9901 8.94502 10.9631 8.88337C10.9387 8.82172 9.80581 8.48128 9.60031 8.14889C9.56516 8.0926 11.147 8.37674 11.2605 8.3687C11.6715 8.33117 11.7878 8.3419 11.5607 7.93981C11.3335 7.53504 10.5169 6.9212 10.644 6.90779C10.644 6.90779 11.3849 7.63155 11.5931 7.54309C11.8013 7.45463 11.7121 6.88099 11.6526 6.21889C11.6255 5.90258 11.7824 4.97778 11.9635 5.02335C12.0663 5.05016 11.7959 5.56215 12.0447 6.31539C12.2907 7.06863 12.1988 7.54845 12.6071 7.29647C13.0154 7.0445 13.6075 6.49499 13.64 6.95604C13.6724 7.4171 12.6909 8.0926 13.256 8.16766C13.8211 8.24271 14.4079 8.32581 14.416 8.52685C14.4241 8.7279 13.1722 8.51345 13.3831 9.00668Z" fill="#E28D1F"/>
<path d="M12.8342 9.31218C13.0938 9.28537 13.4183 9.14866 13.3047 9.08433C13.1911 9.02 13.1398 9.13258 13.2019 8.94226C13.2641 8.75194 13.3128 8.47852 13.0424 8.49192C12.772 8.50533 12.8585 8.50533 12.5395 8.5643C12.2204 8.62327 12.0447 8.6474 12.0933 8.54554C12.1447 8.44367 12.3502 8.34986 12.2691 8.18634C12.188 8.02551 12.3205 7.85931 12.2339 7.69044C12.1474 7.52156 11.9365 6.91307 11.8878 7.35268C11.8392 7.79498 12.0636 7.77621 11.9446 8.01478C11.8256 8.25335 11.7175 8.39274 11.5363 8.43563C11.3552 8.4812 10.9306 8.68225 11.32 8.80019C11.7121 8.91545 11.7175 8.61523 12.0744 8.91009C12.4313 9.20496 12.4043 9.28269 12.5341 9.33898C12.6612 9.39796 12.8342 9.31218 12.8342 9.31218Z" fill="#F5C20C"/>
<path d="M12.8721 13.7003C12.4692 13.2473 12.2853 12.62 12.3394 12.0223C12.361 11.8212 12.3854 11.6256 12.3989 11.4272C12.4502 10.6311 12.4367 9.82958 12.4043 9.03345C12.4746 9.82958 12.4989 10.6337 12.4448 11.4326C12.4151 11.8293 12.3259 12.2233 12.3989 12.6227C12.4611 13.0087 12.6152 13.392 12.8721 13.7003Z" fill="#B76C26"/>
<path d="M14.0726 13.6896C13.7697 13.0462 13.4372 12.36 13.1587 11.7059C12.9964 11.21 12.8964 10.6981 12.7936 10.1887C12.7233 9.7813 12.6422 9.36849 12.6422 8.953C12.6449 9.15941 12.6828 9.36581 12.7152 9.56953C12.845 10.2826 12.9856 10.9983 13.2019 11.6899C13.475 12.3466 13.7995 13.0382 14.0726 13.6896Z" fill="#B76C26"/>
<path d="M14.8162 12.7032C13.7698 11.832 12.9559 10.6954 12.5178 9.40875C12.4557 9.22647 12.3962 9.04151 12.3799 8.84851C12.4016 9.04151 12.4665 9.22379 12.5314 9.40339C12.9883 10.6847 13.8265 11.7784 14.8162 12.7032Z" fill="#B76C26"/>
<path d="M14.7269 11.6631C14.2862 11.2932 13.8671 10.8965 13.4669 10.4864C13.0803 10.0655 12.6611 9.64733 12.4259 9.11926C12.4908 9.24793 12.5665 9.36856 12.653 9.48382C13.2641 10.2773 14.0077 10.9635 14.7269 11.6631Z" fill="#B76C26"/>
<path d="M13.0289 13.7753C12.918 13.8986 12.5476 13.6386 12.6071 13.4536C12.6666 13.2687 13.1397 13.652 13.0289 13.7753Z" fill="#B76C26"/>
<path d="M14.3916 13.5555C14.4403 13.7137 14.0239 13.8933 13.8941 13.7431C13.7643 13.5984 14.343 13.3973 14.3916 13.5555Z" fill="#B76C26"/>
<path d="M15.0541 12.5745C15.1515 12.7085 14.8162 13.0114 14.6458 12.9149C14.4755 12.8184 14.9541 12.4404 15.0541 12.5745Z" fill="#B76C26"/>
<path d="M14.973 11.4727C15.0649 11.6094 14.7188 11.9016 14.5512 11.797C14.3835 11.6925 14.8783 11.336 14.973 11.4727Z" fill="#B76C26"/>
<path d="M13.083 4.62927C13.2479 4.9295 13.3047 5.28601 13.2642 5.62912C13.2209 5.97224 13.0614 6.28318 12.983 6.61825C12.8478 7.11148 12.7369 7.61542 12.6368 8.11669C12.6017 8.28288 12.5693 8.45176 12.5368 8.62063C12.6396 7.94513 12.7747 7.27231 12.9478 6.60753C13.0289 6.27514 13.1912 5.96419 13.2398 5.62644C13.2831 5.28869 13.2371 4.93486 13.083 4.62927Z" fill="#B76C26"/>
<path d="M12.6909 5.07153C12.7206 5.61033 12.7531 6.18665 12.7639 6.72812C12.7396 7.12217 12.6584 7.51085 12.5827 7.89953C12.5178 8.20779 12.4556 8.52142 12.3367 8.8136C12.3935 8.66617 12.4286 8.5107 12.4638 8.35791C12.5827 7.81911 12.6828 7.27496 12.7314 6.72544C12.7287 6.18933 12.6936 5.61033 12.6909 5.07153Z" fill="#B76C26"/>
<path d="M11.8824 5.55676C12.3664 6.46816 12.6152 7.49749 12.5557 8.52951C12.5449 8.67426 12.5368 8.82437 12.4935 8.96376C12.5341 8.82169 12.5395 8.67426 12.5476 8.52951C12.5909 7.49749 12.3151 6.4896 11.8824 5.55676Z" fill="#B76C26"/>
<path d="M11.6445 6.31799C11.85 6.70399 12.0284 7.10072 12.1934 7.50548C12.3448 7.91025 12.5205 8.32574 12.5341 8.76267C12.4908 8.32842 12.315 7.92097 12.1609 7.51889C12.0014 7.11144 11.8229 6.71472 11.6445 6.31799Z" fill="#B76C26"/>
<path d="M12.9802 4.54616C13.083 4.47378 13.3128 4.72844 13.2371 4.8571C13.1614 4.98309 12.8775 4.61853 12.9802 4.54616Z" fill="#B76C26"/>
<path d="M12.4259 5.07697C12.4367 4.95098 12.7828 4.94294 12.8315 5.08501C12.8802 5.2244 12.4151 5.20296 12.4259 5.07697Z" fill="#B76C26"/>
<path d="M11.6769 5.58351C11.6472 5.4602 11.9689 5.34226 12.0609 5.45752C12.1555 5.57547 11.7094 5.70414 11.6769 5.58351Z" fill="#B76C26"/>
<path d="M11.4174 6.37962C11.393 6.25632 11.7202 6.1491 11.8067 6.26972C11.896 6.39035 11.4444 6.50293 11.4174 6.37962Z" fill="#B76C26"/>
<path d="M17.5012 7.63953C17.2092 7.98532 16.8009 8.22925 16.3602 8.3472C15.9167 8.46246 15.457 8.41689 15.0055 8.48659C14.1051 8.59113 13.2128 8.75464 12.3205 8.92352C12.7612 8.82166 13.2074 8.72784 13.6535 8.64742C14.3241 8.52947 14.9974 8.41421 15.6788 8.39008C16.3574 8.39277 17.0469 8.14883 17.5012 7.63953Z" fill="#B76C26"/>
<path d="M17.5553 7.47611C17.6959 7.56725 17.4931 7.96933 17.2984 7.93717C17.1037 7.90768 17.4147 7.38497 17.5553 7.47611Z" fill="#B76C26"/>
<path d="M15.8734 6.87298C15.5328 6.83277 15.1812 6.90782 14.8757 7.06062C14.5702 7.21877 14.3295 7.4761 14.0402 7.66106C13.467 8.04438 12.8748 8.39822 12.2664 8.72257C12.4151 8.63679 12.5638 8.54833 12.7099 8.45987C13.1533 8.19718 13.594 7.92644 14.0186 7.63426C14.3106 7.4493 14.5539 7.19733 14.8622 7.04185C15.1731 6.88638 15.5301 6.81937 15.8734 6.87298Z" fill="#B76C26"/>
<path d="M15.5814 7.38757C15.0704 7.56449 14.5079 7.72801 13.9942 7.9076C13.4886 8.13813 13.0046 8.41423 12.5341 8.70641C12.3989 8.79219 12.2637 8.87261 12.1447 8.97715C12.3827 8.76807 12.6612 8.60455 12.9316 8.44104C13.275 8.23999 13.6156 8.03359 13.9834 7.87812C14.5025 7.70656 15.0595 7.54305 15.5814 7.38757Z" fill="#B76C26"/>
<path d="M15.8004 9.31764C14.827 8.96916 13.7914 8.78152 12.7585 8.91555C12.6125 8.93432 12.4638 8.95308 12.3259 9.00401C12.4638 8.94772 12.6125 8.92628 12.7558 8.90483C13.7887 8.7574 14.8459 8.91555 15.8004 9.31764Z" fill="#B76C26"/>
<path d="M15.0596 9.61515C14.6459 9.47308 14.2295 9.33101 13.8103 9.20502C13.3912 9.08708 12.9667 8.94769 12.5287 8.94233C12.9694 8.9182 13.4021 9.05759 13.8212 9.17285C14.2403 9.30152 14.654 9.44627 15.0596 9.61515Z" fill="#B76C26"/>
<path d="M15.9843 6.93994C16.0194 6.81931 15.6976 6.69064 15.603 6.80323C15.5084 6.91581 15.9518 7.06056 15.9843 6.93994Z" fill="#B76C26"/>
<path d="M15.6652 7.63421C15.7815 7.5806 15.6706 7.25625 15.5219 7.25893C15.3732 7.26161 15.5516 7.68782 15.6652 7.63421Z" fill="#B76C26"/>
<path d="M15.795 9.52128C15.9194 9.54004 16.014 9.21033 15.887 9.12992C15.7626 9.0495 15.6679 9.50252 15.795 9.52128Z" fill="#B76C26"/>
<path d="M15.0136 9.84567C15.1407 9.86175 15.2191 9.52668 15.0893 9.45162C14.9595 9.37657 14.8892 9.82958 15.0136 9.84567Z" fill="#B76C26"/>
<path d="M12.169 9.03076C11.6472 9.94752 11.0848 10.8643 10.3358 11.6175C10.0302 11.9043 9.6625 12.1483 9.35696 12.4324C9.20013 12.5745 9.0433 12.7219 8.94055 12.9069C9.03519 12.7165 9.18931 12.5611 9.34073 12.4163C9.68413 12.0839 10.087 11.8186 10.4169 11.4754C11.0983 10.7356 11.6391 9.88318 12.169 9.03076Z" fill="#B76C26"/>
<path d="M12.388 8.96643C11.8013 9.35779 11.201 9.73307 10.5953 10.0976C9.98425 10.4461 9.38668 10.8428 8.71881 11.0841L8.84319 11.0385C9.89231 10.5158 11.366 9.56688 12.388 8.96643Z" fill="#B76C26"/>
<path d="M12.361 8.96375C11.9257 9.71162 11.4903 10.4568 11.0766 11.2154C10.7224 11.8802 10.3412 12.5423 10.1005 13.2553C10.0708 13.3572 10.041 13.4644 10.0545 13.5716C10.0356 13.4644 10.0627 13.3545 10.0897 13.2527C10.306 12.5262 10.6846 11.8614 11.0361 11.194C11.4552 10.4381 11.8959 9.69286 12.361 8.96375Z" fill="#B76C26"/>
<path d="M11.3362 12.419C11.7202 11.4379 11.9906 10.3522 12.4584 9.40601C12.0474 10.3791 11.7797 11.462 11.3362 12.419Z" fill="#B76C26"/>
<path d="M9.22714 12.9551C9.17847 13.1132 8.73233 13.0355 8.70799 12.8425C8.68095 12.6495 9.27311 12.7969 9.22714 12.9551Z" fill="#B76C26"/>
<path d="M10.4142 13.5663C10.3655 13.7244 9.91935 13.6467 9.89502 13.4537C9.87068 13.2607 10.4628 13.4081 10.4142 13.5663Z" fill="#B76C26"/>
<path d="M8.6377 9.51586C9.83283 9.38988 11.0956 9.32018 12.2745 9.11378C12.3556 9.10037 12.4313 9.07625 12.5097 9.05212C11.8905 9.25853 11.2308 9.29874 10.5845 9.37647C9.93828 9.43813 9.28934 9.48906 8.6377 9.51586Z" fill="#B76C26"/>
<path d="M8.93512 8.76538C9.88149 8.83776 11.2145 9.00931 12.1474 8.98787L12.2042 8.98519L12.1663 9.0254C11.804 9.41944 11.2605 9.97432 10.8819 10.363C10.4439 10.7999 10.0194 11.2529 9.52728 11.6309C10.0059 11.2395 10.425 10.7785 10.8603 10.3416C11.1794 10.0092 11.8202 9.33366 12.1366 8.99591L12.1555 9.03344C11.8824 9.04684 11.6147 9.0254 11.347 9.00663C10.5385 8.94498 9.73548 8.86188 8.93512 8.76538Z" fill="#B76C26"/>
<path d="M9.17578 7.66626C10.2168 8.04154 11.2416 8.46507 12.2393 8.94221C12.1122 8.88592 11.9852 8.83499 11.8554 8.78406C11.0036 8.44094 10.0194 8.02009 9.17578 7.66626Z" fill="#B76C26"/>
<path d="M7.95361 7.24809C9.53541 7.21056 11.2118 7.7011 12.3123 8.86715L12.0906 8.66879L11.9798 8.56961C10.8549 7.66894 9.38399 7.27221 7.95361 7.24809Z" fill="#B76C26"/>
<path d="M8.96759 6.54846C10.3736 6.86209 11.7067 7.64749 12.48 8.87519L12.3177 8.66075C11.4985 7.58584 10.2628 6.9023 8.96759 6.54846Z" fill="#B76C26"/>
<path d="M8.97567 9.78132C8.83507 9.86978 8.54845 9.5213 8.65661 9.35779C8.76477 9.19695 9.11628 9.69286 8.97567 9.78132Z" fill="#B76C26"/>
<path d="M8.85944 8.99859C8.70532 8.93426 8.8324 8.50269 9.02979 8.49732C9.22447 8.49464 9.01356 9.06292 8.85944 8.99859Z" fill="#B76C26"/>
<path d="M8.95679 6.79781C8.80267 6.73348 8.92975 6.30191 9.12714 6.29655C9.32452 6.29119 9.11091 6.86215 8.95679 6.79781Z" fill="#B76C26"/>
<path d="M8.97302 7.83782C8.90542 7.68771 9.29479 7.45718 9.4408 7.58585C9.58681 7.71452 9.04332 7.98793 8.97302 7.83782Z" fill="#B76C26"/>
<path d="M7.82923 7.01766C7.97795 6.94528 8.22401 7.32324 8.09963 7.47335C7.97525 7.62346 7.68052 7.09003 7.82923 7.01766Z" fill="#B76C26"/>
<path d="M11.5093 12.5047C11.4119 12.6388 11.0172 12.4163 11.0577 12.2259C11.101 12.0356 11.6093 12.3707 11.5093 12.5047Z" fill="#B76C26"/>
<path d="M9.53 11.8024C9.36506 11.8345 9.22716 11.4057 9.3894 11.2931C9.54623 11.1805 9.69224 11.7702 9.53 11.8024Z" fill="#B76C26"/>
<path d="M8.83508 10.7999C8.99191 10.8589 8.87564 11.2958 8.67825 11.3039C8.48087 11.3119 8.68096 10.7383 8.83508 10.7999Z" fill="#B76C26"/>
<path d="M13.4994 7.36882C14.389 6.7094 15.4868 5.80337 15.8329 4.72578C15.895 4.5301 15.9086 4.2272 15.9437 4.02079C16.0032 3.54901 16.0708 3.07455 16.0681 2.60277C16.06 2.26234 16.0302 1.87098 15.7517 1.63509C15.6598 1.56003 15.5625 1.48766 15.4678 1.41528C15.0379 1.09362 14.6377 0.729058 14.2375 0.372543C13.905 0.12057 13.475 0.0642779 13.0667 0.0910836C12.5854 0.115209 12.1204 0.238515 11.6364 0.26264C11.4579 0.273362 11.2659 0.257279 11.0929 0.227792C10.8036 0.225112 10.5332 0.375224 10.2817 0.511932C9.71659 0.865767 9.05683 1.37507 8.94867 2.06398C8.94056 2.29719 8.92434 2.5438 8.8973 2.77701C8.6945 4.50061 8.98382 5.40128 10.2601 6.60218C10.9388 7.26696 11.7148 7.87009 12.4773 8.41424L13.4994 7.36882ZM13.4994 7.36882L12.4827 8.41692C11.6959 7.88081 10.9388 7.275 10.2411 6.61826C8.94056 5.42273 8.63502 4.50598 8.82159 2.76629C8.84322 2.52772 8.85944 2.29719 8.86755 2.05326C8.9703 1.33219 9.6544 0.796072 10.2357 0.428835C10.498 0.284084 10.7873 0.12057 11.1037 0.131292C11.2849 0.158098 11.4525 0.176862 11.6364 0.166139C12.1123 0.144695 12.5854 0.0240694 13.0667 -5.56735e-05C13.548 -0.034903 14.0807 0.0642779 14.4268 0.426154C14.7702 0.758544 15.1325 1.06681 15.5084 1.36435C15.603 1.43941 15.6977 1.51178 15.7896 1.58952C16.0789 1.83613 16.1087 2.24894 16.1141 2.59741C16.1114 3.07723 16.0384 3.54901 15.9735 4.02079C15.9329 4.2272 15.9194 4.52742 15.8545 4.72578C15.4868 5.81677 14.4025 6.70404 13.4994 7.36882Z" fill="#FCB116"/>
</g>
<defs>
<clipPath id="clip0_43_4120">
<rect width="10" height="10" fill="white" transform="translate(0 12)"/>
</clipPath>
<clipPath id="clip1_43_4120">
<rect width="10" height="10" fill="white" transform="translate(16 1)"/>
</clipPath>
<clipPath id="clip2_43_4120">
<rect width="18" height="18" fill="white" transform="translate(3)"/>
</clipPath>
</defs>
</svg>
