<svg width="48" height="109" viewBox="0 0 48 109" fill="none" xmlns="http://www.w3.org/2000/svg">
<g clip-path="url(#clip0_43_4645)">
<path d="M24.9498 50.9212L41.9566 59.3061C43.1933 59.9799 45.0456 58.945 46.0613 57.003C46.4959 56.172 46.8561 55.211 46.7085 54.2337C46.5144 52.95 45.6695 52.4362 44.4597 51.8264C39.1099 49.1256 37.369 48.0092 32.6282 45.5489C31.4677 44.9464 30.347 44.3091 29.2059 43.7734C28.3499 43.3711 26.7334 44.598 25.5719 46.5299C24.3974 48.4828 24.1077 50.4559 24.9498 50.9212Z" fill="#EB3333"/>
<path d="M30.6655 45.6731C30.2328 45.9182 29.6154 46.4731 29.5773 46.7511C29.5652 46.8809 29.6507 46.9458 29.7899 47.029C32.8344 48.4169 40.4265 52.3072 44.1858 53.7719C44.6696 53.7938 45.0725 53.5936 44.9416 53.2992C44.9008 53.1191 44.1747 52.7835 43.7337 52.5303C39.7199 50.3323 37.8258 49.163 34.1853 47.1735C32.9764 46.5134 32.021 45.9895 31.4955 45.7042C31.2337 45.5479 30.9598 45.4939 30.6813 45.664L30.6655 45.6731Z" fill="#EF5959"/>
<path d="M33.2206 50.5417C35.8871 51.5538 40.7746 54.6724 46.3761 56.3318C46.2814 56.5622 46.1737 56.7872 46.0613 57.002C45.0456 58.944 43.1933 59.9789 41.9566 59.3051L27.3397 52.0987C28.5792 51.2192 31.1055 49.7389 33.2206 50.5417Z" fill="#DA3333"/>
<path d="M25.5727 46.528C26.7342 44.5961 28.3507 43.3691 29.2068 43.7714C30.0758 44.1801 29.8474 46.1147 28.6729 48.1088C27.4835 50.1275 25.8058 51.3929 24.9507 50.9202C24.1076 50.4557 24.3973 48.4827 25.5727 46.528Z" fill="#BC3333"/>
<path d="M44.4607 51.8253C44.1116 51.6488 43.7792 51.4806 43.4607 51.3179C43.8098 51.9835 44.2778 53.2168 43.9547 54.6294C43.6065 56.1471 42.4598 57.4893 40.5565 58.6148L41.8108 59.2328C42.0429 59.0811 42.2639 58.9247 42.4728 58.7656C43.9277 57.6548 44.8218 56.372 45.1347 54.9439C45.3715 53.8632 45.2313 52.8804 44.9862 52.1005C44.8191 52.0082 44.6445 51.9176 44.4607 51.8253Z" fill="#FFAF33"/>
<path d="M24.9619 77.9035L41.8962 86.4283C43.1274 87.1122 44.988 86.0927 46.0205 84.159C46.4625 83.3316 46.8311 82.3743 46.6918 81.3952C46.5089 80.1097 45.6677 79.5894 44.4644 78.9696C39.1378 76.2249 37.4062 75.0939 32.6868 72.5943C31.5317 71.9826 30.4157 71.3353 29.2802 70.7904C28.4279 70.3808 26.8003 71.5949 25.622 73.5168C24.4299 75.4596 24.1235 77.4308 24.9619 77.9035Z" fill="#EB3333"/>
<path d="M30.7221 72.7029C30.2867 72.9443 29.6655 73.4947 29.6256 73.7717C29.6126 73.9016 29.6971 73.9674 29.8363 74.0506C32.8687 75.4632 40.4274 79.4165 44.1738 80.9123C44.6575 80.9388 45.0614 80.7413 44.9333 80.446C44.8933 80.2659 44.171 79.924 43.7318 79.667C39.7366 77.4362 37.8527 76.2513 34.2289 74.2316C33.0256 73.5615 32.0749 73.0303 31.5522 72.7404C31.2922 72.5813 31.0183 72.5256 30.7379 72.6938L30.7221 72.7029Z" fill="#EF5959"/>
<path d="M33.2355 77.5925C35.8928 78.6266 40.7533 81.7854 46.3408 83.4915C46.2433 83.7219 46.1347 83.945 46.0205 84.1589C44.988 86.0926 43.1265 87.1121 41.8962 86.4282L27.3416 79.1011C28.5885 78.2307 31.1269 76.7724 33.2355 77.5925Z" fill="#DA3333"/>
<path d="M25.6211 73.5158C26.7993 71.594 28.426 70.3798 29.2793 70.7894C30.1446 71.2054 29.9004 73.1382 28.7083 75.1222C27.5022 77.1309 25.8133 78.3825 24.9619 77.9025C24.1235 77.4308 24.4299 75.4596 25.6211 73.5158Z" fill="#BC3333"/>
<path d="M44.4634 78.9685C44.1162 78.7893 43.7847 78.6175 43.4672 78.4529C43.8107 79.1221 44.2685 80.3592 43.9333 81.769C43.5721 83.284 42.4143 84.6161 40.5007 85.7269L41.7495 86.356C41.9826 86.206 42.2045 86.0515 42.4152 85.8942C43.8794 84.7962 44.7847 83.5198 45.1097 82.0945C45.3557 81.0156 45.2239 80.0318 44.9852 79.2501C44.82 79.155 44.6463 79.0627 44.4634 78.9685Z" fill="#FFAF33"/>
<path d="M25.8653 61.2626L43.8349 67.3975C45.1496 67.9067 46.8496 66.6432 47.6008 64.5879C47.922 63.7083 48.1523 62.7099 47.8765 61.7591C47.5144 60.5111 46.6092 60.1106 45.3288 59.6599C39.6679 57.6677 37.7933 56.7836 32.7685 54.9513C31.5382 54.5033 30.3424 54.0142 29.1409 53.6293C28.2385 53.3404 26.7984 54.7639 25.9015 56.8274C24.9953 58.9157 24.9684 60.9088 25.8653 61.2626Z" fill="#EB3333"/>
<path d="M30.8391 55.328C30.4417 55.627 29.9041 56.256 29.9032 56.5358C29.9088 56.6665 30.0016 56.7196 30.1511 56.7836C33.3525 57.7701 41.3949 60.6546 45.3149 61.6256C45.7977 61.5854 46.17 61.3349 46.001 61.0606C45.9369 60.8878 45.1719 60.6473 44.7021 60.4526C40.432 58.7877 38.3996 57.8706 34.527 56.3648C33.241 55.8656 32.2253 55.4679 31.6664 55.253C31.386 55.1315 31.1083 55.1132 30.853 55.318L30.8391 55.328Z" fill="#EF5959"/>
<path d="M34.0154 59.8272C36.7924 60.4891 42.0503 62.9549 47.8236 63.8829C47.7595 64.1243 47.6834 64.3602 47.5998 64.5879C46.8487 66.6432 45.1486 67.9067 43.8339 67.3974L28.3898 62.1248C29.503 61.0935 31.8121 59.3024 34.0154 59.8272Z" fill="#DA3333"/>
<path d="M25.9024 56.8274C26.7993 54.7638 28.2393 53.3394 29.1418 53.6292C30.0573 53.9227 30.087 55.871 29.1854 57.9986C28.2728 60.1517 26.7761 61.6219 25.8662 61.2626C24.9683 60.9088 24.9953 58.9156 25.9024 56.8274Z" fill="#BC3333"/>
<path d="M45.3297 59.6599C44.9602 59.5301 44.6083 59.4048 44.2713 59.285C44.7058 59.9003 45.3325 61.0633 45.1988 62.5051C45.054 64.0549 44.0949 65.5323 42.3558 66.8928L43.6808 67.3454C43.8906 67.1652 44.0893 66.9824 44.275 66.7968C45.5711 65.5095 46.2879 64.1225 46.4095 62.6661C46.5015 61.5643 46.2322 60.6071 45.8868 59.8656C45.7085 59.7961 45.5238 59.7285 45.3297 59.6599Z" fill="#FFAF33"/>
<path d="M25.7121 69.0067L42.8674 77.0908C44.1162 77.7426 45.949 76.6748 46.9295 74.7155C47.3491 73.8771 47.6918 72.9097 47.5265 71.9351C47.3092 70.6551 46.455 70.1568 45.235 69.5671C39.8369 66.9614 38.0756 65.8752 33.2912 63.499C32.1204 62.9175 30.9877 62.2995 29.8373 61.7838C28.9738 61.3962 27.3796 62.6524 26.2534 64.6035C25.1151 66.5783 24.8616 68.5559 25.7121 69.0067Z" fill="#EB3333"/>
<path d="M31.3322 63.6598C30.9041 63.9131 30.2969 64.4781 30.2644 64.756C30.2551 64.8868 30.3415 64.9499 30.4826 65.0294C33.5512 66.3633 41.2139 70.1201 44.9983 71.5181C45.482 71.5318 45.8813 71.3242 45.7448 71.0326C45.7002 70.8534 44.9686 70.5297 44.5229 70.2847C40.4701 68.1581 38.5547 67.0225 34.8789 65.0971C33.658 64.4589 32.6942 63.9515 32.1631 63.6753C31.8985 63.5236 31.6237 63.4742 31.3479 63.6497L31.3322 63.6598Z" fill="#EF5959"/>
<path d="M33.9746 68.4827C36.6588 69.4473 41.6019 72.48 47.2331 74.0407C47.1421 74.2729 47.0391 74.4987 46.9304 74.7163C45.95 76.6756 44.1162 77.7426 42.8684 77.0916L28.1234 70.1431C29.3471 69.2407 31.8456 67.7175 33.9746 68.4827Z" fill="#DA3333"/>
<path d="M26.2552 64.6034C27.3814 62.6514 28.9756 61.3961 29.8391 61.7837C30.7155 62.1769 30.5224 64.1161 29.3841 66.1302C28.2319 68.1691 26.5774 69.4637 25.713 69.0066C24.8615 68.5558 25.115 66.5782 26.2552 64.6034Z" fill="#BC3333"/>
<path d="M45.2359 69.5679C44.884 69.3979 44.5479 69.2351 44.2267 69.0779C44.5879 69.738 45.0781 70.9622 44.781 72.3803C44.4607 73.9035 43.3381 75.2658 41.4552 76.4251L42.7198 77.0212C42.9491 76.8648 43.1664 76.7058 43.3734 76.5421C44.8079 75.4066 45.6788 74.1074 45.9657 72.6738C46.183 71.5894 46.0251 70.6084 45.7652 69.8331C45.5971 69.7444 45.4216 69.6566 45.2359 69.5679Z" fill="#FFAF33"/>
<path d="M24.8513 83.8966L40.9761 93.8276C42.1422 94.6129 44.0855 93.7553 45.2842 91.9167C45.7967 91.1304 46.2479 90.207 46.195 89.2196C46.1254 87.924 45.3334 87.3334 44.1876 86.613C39.121 83.4267 37.4952 82.1522 33.0126 79.2612C31.9151 78.5535 30.8604 77.8148 29.7759 77.1748C28.9626 76.6948 27.2347 77.7654 25.8931 79.5803C24.5347 81.4171 24.0575 83.3545 24.8513 83.8966Z" fill="#EB3333"/>
<path d="M31.0452 79.2045C30.5903 79.4084 29.9236 79.9039 29.8586 80.1764C29.8345 80.3044 29.9134 80.3775 30.0443 80.4726C32.9412 82.1375 40.1266 86.7181 43.7272 88.5266C44.2063 88.5933 44.6269 88.4315 44.5247 88.127C44.5015 87.9442 43.8107 87.5419 43.3957 87.2484C39.6113 84.6866 37.8379 83.3462 34.4044 81.0267C33.2643 80.2569 32.3636 79.647 31.8678 79.3142C31.6227 79.1341 31.3553 79.0555 31.061 79.199L31.0452 79.2045Z" fill="#EF5959"/>
<path d="M33.1204 84.2897C35.6774 85.5459 40.2436 89.1052 45.6603 91.2794C45.5433 91.5007 45.4152 91.7137 45.2824 91.9167C44.0847 93.7553 42.1414 94.6129 40.9743 93.8275L27.116 85.2918C28.4353 84.5311 31.0926 83.2931 33.1204 84.2897Z" fill="#DA3333"/>
<path d="M25.8922 79.5813C27.2339 77.7664 28.9617 76.6958 29.7751 77.1758C30.6014 77.6631 30.1882 79.5685 28.8262 81.4446C27.4483 83.3426 25.6564 84.4471 24.8505 83.8967C24.0576 83.3545 24.5348 81.4171 25.8922 79.5813Z" fill="#BC3333"/>
<path d="M44.1867 86.6139C43.8562 86.4063 43.5415 86.207 43.2397 86.015C43.5238 86.7108 43.8711 87.9816 43.4133 89.3576C42.9212 90.836 41.6502 92.0657 39.6475 93.0093L40.8368 93.7416C41.0819 93.6118 41.3168 93.4774 41.5406 93.3384C43.0958 92.3684 44.1088 91.1743 44.5581 89.7819C44.898 88.7286 44.8525 87.7366 44.6835 86.9375C44.5256 86.8296 44.3613 86.7236 44.1867 86.6139Z" fill="#FFAF33"/>
<path d="M25.311 81.9911C25.2572 81.9911 25.2033 81.9838 25.1495 81.9674C24.8542 81.8796 24.6871 81.5724 24.7762 81.2826L26.0584 77.1043C26.1476 76.8135 26.4595 76.649 26.7539 76.7367C27.0491 76.8245 27.2163 77.1317 27.1271 77.4215L25.8449 81.5998C25.7725 81.8384 25.5506 81.9911 25.311 81.9911Z" fill="#FFB27A"/>
<path d="M25.402 72.3619C25.3017 72.3619 25.1996 72.3354 25.1086 72.2797C24.8468 72.1197 24.766 71.7805 24.9285 71.5226C25.35 70.8525 25.5914 70.0826 25.6267 69.2954C25.6397 68.9919 25.9024 68.7578 26.2088 68.7697C26.5171 68.7825 26.7557 69.0394 26.7427 69.343C26.7 70.3185 26.401 71.2721 25.8783 72.1014C25.7715 72.2696 25.5896 72.3619 25.402 72.3619Z" fill="#FFB27A"/>
<path d="M24.1959 68.5622C24.0641 68.5622 23.9322 68.5165 23.8255 68.4232C23.5952 68.2221 23.5738 67.8746 23.7781 67.647C24.6267 66.7053 25.2748 65.5725 25.6518 64.3693C25.7427 64.0794 26.0556 63.9167 26.35 64.0063C26.6443 64.0959 26.8096 64.404 26.7186 64.6938C26.2943 66.0452 25.5663 67.3188 24.6128 68.3766C24.5032 68.4991 24.35 68.5622 24.1959 68.5622Z" fill="#FFB27A"/>
<path d="M25.5107 57.0761C25.415 57.0761 25.3175 57.0514 25.2293 57.0002C24.9638 56.8466 24.8737 56.5101 25.0297 56.2477C25.6898 55.1387 26.1309 53.9328 26.3388 52.6638C26.3881 52.3639 26.675 52.1609 26.9786 52.2084C27.2831 52.2569 27.4901 52.5394 27.4409 52.8384C27.2107 54.2427 26.7232 55.5767 25.9925 56.8027C25.8885 56.9792 25.7019 57.0761 25.5107 57.0761Z" fill="#FFB27A"/>
<path d="M24.3073 47.7558C24.259 47.7558 24.2089 47.7494 24.1597 47.7366C23.8626 47.6571 23.6871 47.3545 23.7679 47.0619L24.4856 44.4717C24.5664 44.1791 24.8737 44.0063 25.1708 44.0859C25.4679 44.1654 25.6434 44.4681 25.5626 44.7606L24.8449 47.3508C24.7781 47.5949 24.5524 47.7558 24.3073 47.7558Z" fill="#FFB27A"/>
<path d="M27.985 66.1942C27.9005 66.1942 27.8151 66.175 27.7352 66.1357C26.726 65.6365 25.9953 64.6427 25.8282 63.5428C25.7827 63.2429 25.9925 62.9631 26.298 62.9183C26.6034 62.8735 26.8866 63.0802 26.9321 63.381C27.0463 64.1334 27.5458 64.8127 28.2357 65.1538C28.5114 65.29 28.6219 65.62 28.4836 65.8916C28.3861 66.0836 28.1893 66.1942 27.985 66.1942Z" fill="#FFC194"/>
<path d="M28.1734 57.9822C28.0082 57.9822 27.8448 57.9099 27.7343 57.7719C26.9637 56.8064 26.6313 55.4414 26.5626 54.8544C26.5273 54.5527 26.7473 54.2802 27.0537 54.2455C27.361 54.2107 27.6368 54.4274 27.6721 54.7291C27.7166 55.115 27.9738 56.2916 28.6126 57.0916C28.8029 57.3303 28.7612 57.6759 28.5188 57.8633C28.4158 57.9438 28.2941 57.9822 28.1734 57.9822Z" fill="#FFC194"/>
<path d="M27.5263 47.8116C27.4855 47.8116 27.4437 47.807 27.4028 47.7979C26.0101 47.487 24.8514 46.4146 24.4503 45.0642C24.3639 44.7725 24.5339 44.4672 24.8291 44.3821C25.1253 44.2971 25.4354 44.4644 25.5217 44.7552C25.8068 45.7124 26.6619 46.5042 27.6498 46.7254C27.9506 46.7922 28.1391 47.0866 28.0704 47.3828C28.011 47.6388 27.7807 47.8116 27.5263 47.8116Z" fill="#FFC194"/>
<path d="M27.8819 74.0123C27.7789 74.0123 27.674 73.9839 27.5802 73.9245C26.8588 73.4674 26.5152 72.9023 26.0807 72.1864L25.9953 72.0456C25.8365 71.7851 25.9219 71.4477 26.1865 71.2914C26.4512 71.135 26.7938 71.2191 26.9525 71.4797L27.0398 71.6223C27.4409 72.2834 27.6832 72.682 28.1855 73.0002C28.4446 73.1647 28.5198 73.5048 28.3527 73.7599C28.245 73.9236 28.0648 74.0123 27.8819 74.0123Z" fill="#FFC194"/>
<path d="M28.1855 80.8557C28.101 80.8557 28.0156 80.8365 27.9348 80.7972C27.1493 80.4077 26.5152 79.7229 26.1939 78.9165C26.0816 78.634 26.2227 78.3149 26.5096 78.2043C26.7965 78.0937 27.1206 78.2326 27.2329 78.5151C27.4548 79.0719 27.894 79.5464 28.4362 79.8152C28.712 79.9515 28.8224 80.2824 28.6841 80.5531C28.5866 80.7451 28.3898 80.8557 28.1855 80.8557Z" fill="#FFC194"/>
<path d="M26.4308 96.9324C26.2144 96.9324 26.0092 96.808 25.9182 96.6005C24.8533 94.1694 25.1903 90.9694 25.6165 86.9173C25.9377 83.8663 26.3017 80.4076 26.103 76.6307C26.0194 75.038 25.9284 73.6017 25.8477 72.3345C25.48 66.5562 25.2776 63.3736 26.5589 58.5462C27.2302 56.0173 26.4233 52.9562 25.5682 49.7151C24.5292 45.7764 23.4559 41.7032 24.9173 38.0781C25.0315 37.7956 25.3556 37.6584 25.6425 37.77C25.9294 37.8824 26.0686 38.2015 25.9554 38.484C24.6286 41.7745 25.6555 45.6712 26.6489 49.439C27.5412 52.8227 28.3842 56.0191 27.6387 58.8241C26.4029 63.4806 26.6007 66.601 26.9609 72.265C27.0417 73.5349 27.1336 74.974 27.2172 76.5731C27.4196 80.435 27.051 83.9386 26.726 87.0298C26.3165 90.9219 25.9925 93.9966 26.9423 96.1644C27.0649 96.4432 26.934 96.7669 26.6508 96.8867C26.5793 96.9177 26.505 96.9324 26.4308 96.9324Z" fill="#FFC194"/>
<path d="M46.5079 19.2055C38.9706 10.4741 31.2828 4.72688 24.3481 0.458999C23.2646 -0.206599 21.8152 -0.1426 20.7948 0.612599C13.2845 6.17693 6.52799 13.2837 0.497579 21.3705C-0.206201 22.315 -0.161635 23.5904 0.613637 24.5321C6.50385 31.6873 14.3364 37.8048 22.96 43.2566C23.9674 43.893 25.2663 43.8317 26.2022 43.0966C33.2948 37.5168 40.1571 30.6733 46.5264 22.4786C47.3073 21.4747 47.3082 20.1353 46.5079 19.2055Z" fill="#EB3333"/>
<path d="M46.5266 22.4796C47.3065 21.4748 47.3074 20.1354 46.5071 19.2055C43.3939 15.5996 40.2557 12.5029 37.1555 9.80945C33.6942 17.6677 26.6267 27.862 12.2363 35.723C15.5974 38.3808 19.2036 40.8823 22.9601 43.2576C23.9675 43.894 25.2665 43.8327 26.2014 43.0976C33.2949 37.5177 40.1582 30.6743 46.5266 22.4796Z" fill="#DA3333"/>
<path d="M24.3649 41.5561C23.8979 41.5561 23.4299 41.4262 23.0242 41.1638C14.4971 35.6452 7.93656 30.1906 2.96739 24.4891C2.22833 23.6416 2.17077 22.4494 2.82905 21.589C8.57999 14.0727 14.7283 7.73671 21.1013 2.75661C21.9945 2.05901 23.2786 1.99501 24.2238 2.60118C31.8214 7.46517 38.3393 12.9902 44.1487 19.4917C44.8831 20.3145 44.9036 21.5525 44.197 22.4366C38.6095 29.4372 32.4593 35.6873 25.9182 41.0121C25.4744 41.3723 24.9201 41.5561 24.3649 41.5561ZM22.7828 3.39661C22.455 3.39661 22.1254 3.49992 21.8645 3.70381C15.5732 8.61991 9.49824 14.8828 3.80859 22.3168C3.49569 22.7255 3.5319 23.2823 3.89772 23.7019C8.79168 29.3166 15.2678 34.698 23.6973 40.1536C24.1383 40.4397 24.7298 40.4086 25.1346 40.0795C31.6079 34.8096 37.6959 28.6217 43.2295 21.6887C43.5749 21.2562 43.5731 20.6811 43.224 20.2898C37.4916 13.8725 31.0573 8.41786 23.5534 3.61421C23.3259 3.46884 23.0548 3.39661 22.7828 3.39661Z" fill="#FFAF33"/>
<path d="M5.21711 78.6385L23.6974 72.1727C24.9007 71.8152 25.3296 69.7443 24.6565 67.5482C24.3659 66.601 23.9406 65.5953 23.1876 64.9114C22.184 64.0008 21.2898 64.1544 20.0773 64.4799C14.4266 65.9985 12.2874 66.3158 6.61631 67.7539C5.15583 68.1242 3.66563 68.4387 2.22186 68.8684C1.11884 69.1967 0.89601 71.6497 1.72328 74.3468C2.54961 77.0458 4.11408 78.9667 5.21711 78.6385Z" fill="#EB3333"/>
<path d="M5.15491 69.4142C5.02399 69.9783 5.02028 70.9658 5.23754 71.241C5.34432 71.3653 5.46966 71.3534 5.65535 71.3132C9.23646 70.1127 17.7579 67.7182 21.2806 66.2645C21.6046 65.9482 21.7197 65.5084 21.431 65.3603C21.2787 65.2414 20.5749 65.4682 20.1088 65.566C15.7859 66.5827 13.5399 66.9749 9.22067 67.9907C7.72584 68.3427 6.51976 68.6243 5.85033 68.7852C5.50123 68.852 5.23383 69.0211 5.15955 69.3959L5.15491 69.4142Z" fill="#EF5959"/>
<path d="M11.2902 71.6241C14.0375 70.4346 19.717 69.3932 24.4002 66.8094C24.4967 67.0554 24.5812 67.3041 24.6564 67.5482C25.3305 69.7443 24.9006 71.8152 23.6973 72.1726L8.13525 77.6181C8.34323 75.8746 9.0303 72.6024 11.2902 71.6241Z" fill="#DA3333"/>
<path d="M5.22068 78.6394C6.3232 78.3114 6.54604 75.8585 5.7184 73.1607C4.89076 70.463 3.32606 68.5419 2.22353 68.8699C1.12101 69.1979 0.898168 71.6507 1.72581 74.3485C2.55345 77.0462 4.11815 78.9673 5.22068 78.6394Z" fill="#BC3333"/>
<path d="M5.26257 68.0849C6.64785 69.95 8.58742 73.3301 8.44815 77.5075L9.57438 77.1134C9.59852 73.0549 7.85672 69.78 6.44359 67.7969C6.05177 67.8956 5.6581 67.9907 5.26257 68.0849Z" fill="#FFAF33"/>
<path d="M8.26896 61.854L24.9276 51.6625C26.0259 51.0609 25.9972 48.948 24.8644 46.943C24.376 46.0781 23.7428 45.1848 22.8589 44.6746C21.6816 43.9953 20.8414 44.3327 19.7272 44.905C14.5343 47.5738 12.513 48.3318 7.282 50.9256C5.93479 51.5939 4.54673 52.2129 3.2283 52.9352C2.22184 53.4865 2.53381 55.9304 3.92558 58.3926C5.31736 60.8566 7.26157 62.4054 8.26896 61.854Z" fill="#EB3333"/>
<path d="M6.21334 52.8539C6.20684 53.4326 6.41761 54.3981 6.68872 54.6212C6.81963 54.7199 6.94033 54.6815 7.11303 54.6038C10.3525 52.6802 18.1609 48.554 21.2889 46.3954C21.5368 46.0187 21.5544 45.5652 21.2406 45.4802C21.0661 45.3961 20.4273 45.7645 19.9928 45.9584C15.9892 47.8582 13.8788 48.7113 9.87894 50.6102C8.49459 51.2676 7.37764 51.7961 6.75743 52.0923C6.43153 52.2313 6.20591 52.4525 6.21427 52.8338L6.21334 52.8539Z" fill="#EF5959"/>
<path d="M12.6857 53.727C15.1127 51.9889 20.4365 49.78 24.454 46.2747C24.6017 46.495 24.7381 46.7199 24.8644 46.943C25.9971 48.948 26.0259 51.0609 24.9275 51.6625L10.8993 60.2449C10.7248 58.4977 10.6895 55.1569 12.6857 53.727Z" fill="#DA3333"/>
<path d="M8.2678 61.8546C9.27416 61.3031 8.96177 58.8598 7.57007 56.3974C6.17836 53.9349 4.23435 52.3858 3.22799 52.9373C2.22164 53.4888 2.53402 55.9321 3.92573 58.3946C5.31743 60.857 7.26144 62.4062 8.2678 61.8546Z" fill="#BC3333"/>
<path d="M6.03137 51.5327C7.78804 53.0641 10.4137 55.9615 11.1807 60.0721L12.1964 59.4504C11.3422 55.4805 8.93284 52.6444 7.12418 51.0033C6.76208 51.1816 6.39719 51.3571 6.03137 51.5327Z" fill="#FFAF33"/>
<path d="M8.18353 69.9601L26.1336 62.1805C27.3072 61.737 27.5811 59.6415 26.7464 57.4993C26.3862 56.5759 25.8876 55.6031 25.0854 54.9759C24.0167 54.1402 23.1365 54.3578 21.9518 54.7702C16.4283 56.692 14.3198 57.1629 8.7694 59.0051C7.34048 59.4797 5.87722 59.9002 4.46873 60.4333C3.39356 60.8401 3.35271 63.3023 4.37867 65.9336C5.40462 68.564 7.10837 70.367 8.18353 69.9601Z" fill="#EB3333"/>
<path d="M7.4361 60.7651C7.34696 61.3375 7.41753 62.3221 7.65429 62.5809C7.76942 62.697 7.89476 62.676 8.07674 62.6229C11.5594 61.1674 19.8794 58.1658 23.2851 56.4616C23.584 56.1233 23.6667 55.6762 23.3677 55.5491C23.2071 55.4422 22.5219 55.7183 22.0641 55.849C17.8285 57.1747 15.6178 57.7269 11.3858 59.0517C9.92161 59.5107 8.73967 59.8783 8.08324 60.0867C7.74064 60.1791 7.48531 60.3665 7.43981 60.745L7.4361 60.7651Z" fill="#EF5959"/>
<path d="M13.7191 62.5269C16.3708 61.1427 21.9574 59.6945 26.4363 56.7806C26.5506 57.0193 26.6536 57.2606 26.7465 57.4993C27.5812 59.6414 27.3073 61.737 26.1337 62.1804L11.0182 68.7312C11.0953 66.9786 11.5381 63.6661 13.7191 62.5269Z" fill="#DA3333"/>
<path d="M8.1826 69.9631C9.25783 69.5567 9.298 67.0944 8.27233 64.4634C7.24665 61.8324 5.54353 60.0291 4.4683 60.4355C3.39307 60.842 3.3529 63.3043 4.37858 65.9353C5.40425 68.5663 7.10737 70.3696 8.1826 69.9631Z" fill="#BC3333"/>
<path d="M7.44543 59.4322C8.96627 61.1922 11.151 64.4242 11.3227 68.6006L12.4174 68.1261C12.1398 64.0767 10.1594 60.9353 8.60324 59.0601C8.21792 59.1862 7.83168 59.3097 7.44543 59.4322Z" fill="#FFAF33"/>
<path d="M10.8204 87.988L26.661 76.6024C27.7102 75.9213 27.5227 73.8166 26.2414 71.9012C25.6889 71.0747 24.9898 70.2308 24.0697 69.7864C22.8441 69.1958 22.0317 69.5935 20.9639 70.2463C15.9873 73.2891 14.0292 74.1933 9.00897 77.1638C7.71654 77.9291 6.37862 78.6486 5.11869 79.466C4.15679 80.0904 4.65352 82.5041 6.22728 84.8575C7.80196 87.21 9.85852 88.6125 10.8204 87.988Z" fill="#EB3333"/>
<path d="M8.08976 79.1642C8.1269 79.7421 8.41008 80.6893 8.6979 80.8922C8.83532 80.9809 8.95323 80.9343 9.11943 80.8438C12.2047 78.6879 19.678 73.9994 22.6342 71.6168C22.8533 71.2228 22.8357 70.7693 22.5163 70.708C22.3362 70.6376 21.7271 71.0518 21.3084 71.2767C17.4599 73.4655 15.42 74.4712 11.5743 76.6582C10.2438 77.4161 9.16957 78.0241 8.57349 78.3661C8.25874 78.5279 8.05076 78.7656 8.0879 79.145L8.08976 79.1642Z" fill="#EF5959"/>
<path d="M14.6095 79.5602C16.8982 77.6484 22.0401 75.0555 25.7809 71.2649C25.9443 71.4733 26.0975 71.6882 26.2405 71.9012C27.5217 73.8176 27.7102 75.9223 26.6601 76.6025L13.3217 86.1906C13.0163 84.4608 12.7275 81.1318 14.6095 79.5602Z" fill="#DA3333"/>
<path d="M10.8202 87.9877C11.782 87.3639 11.2855 84.9503 9.71119 82.5969C8.1369 80.2435 6.081 78.8415 5.11922 79.4654C4.15743 80.0892 4.65396 82.5028 6.22825 84.8562C7.80254 87.2096 9.85843 88.6116 10.8202 87.9877Z" fill="#BC3333"/>
<path d="M7.80847 77.8604C9.67655 79.2584 12.514 81.9546 13.59 85.9976L14.5557 85.3036C13.4034 81.4069 10.7861 78.7564 8.85764 77.2524C8.50947 77.4563 8.15943 77.6584 7.80847 77.8604Z" fill="#FFAF33"/>
<path d="M8.5874 94.5937L25.7093 85.1766C26.8346 84.6253 26.9061 82.5142 25.869 80.4598C25.4215 79.5739 24.8319 78.6523 23.9731 78.1028C22.8292 77.3704 21.9731 77.6685 20.8339 78.1896C15.5203 80.6171 13.4656 81.2827 8.1176 83.6333C6.74068 84.2385 5.32476 84.7944 3.97384 85.4554C2.94231 85.9601 3.13914 88.4159 4.413 90.9393C5.68686 93.4618 7.55587 95.0984 8.5874 94.5937Z" fill="#EB3333"/>
<path d="M6.95981 85.5094C6.92638 86.0872 7.09072 87.0618 7.35069 87.2968C7.47696 87.4019 7.59859 87.369 7.775 87.2995C11.1026 85.5258 19.0968 81.7626 22.3232 79.7494C22.5887 79.3846 22.6277 78.932 22.3176 78.8333C22.1477 78.7418 21.4922 79.0801 21.0484 79.2538C16.9594 80.9681 14.8109 81.7242 10.7257 83.4367C9.31162 84.0301 8.17053 84.5064 7.53731 84.7743C7.20492 84.8977 6.96909 85.1089 6.95981 85.4902V85.5094Z" fill="#EF5959"/>
<path d="M13.3839 86.6779C15.8908 85.0523 21.313 83.0902 25.4921 79.7732C25.6285 79.9999 25.7548 80.2313 25.8699 80.4598C26.907 82.5142 26.8356 84.6262 25.7102 85.1766L11.292 93.1062C11.1992 91.3535 11.3218 88.0145 13.3839 86.6779Z" fill="#DA3333"/>
<path d="M8.58382 94.5971C9.61517 94.0923 9.41863 91.6373 8.14484 89.1137C6.87104 86.5901 5.00235 84.9535 3.971 85.4583C2.93965 85.9631 3.13619 88.4181 4.40999 90.9417C5.68379 93.4653 7.55247 95.1019 8.58382 94.5971Z" fill="#BC3333"/>
<path d="M6.84003 84.1809C8.52241 85.791 11.0089 88.8054 11.5808 92.9471L12.6244 92.3729C11.9587 88.3684 9.68579 85.4253 7.95605 83.7028C7.58652 83.8646 7.2142 84.0228 6.84003 84.1809Z" fill="#FFAF33"/>
<path d="M31.1687 89.6995C30.8056 89.4554 30.2513 89.7608 29.7843 89.908C28.9032 90.2646 27.9042 90.4319 26.9655 90.2252C25.8801 90.0643 24.6183 89.1848 23.804 88.9251C23.5608 88.8511 23.2962 88.8118 23.0715 88.9306C22.5376 89.2799 22.5255 90.1347 22.3937 90.7308C22.1997 92.2613 21.4773 93.4865 20.0168 93.9601C19.4152 94.2408 18.21 94.2792 18.0002 94.8908C17.9853 95.3416 18.5108 95.8143 18.8479 96.2367C19.5498 97.0037 20.0948 97.9418 20.2099 98.9548C20.4597 100.131 19.8014 101.738 20.0725 102.477C20.4207 103 21.4002 102.483 21.9193 102.39C24.5468 101.557 26.9005 102.02 29.074 103.917C29.3229 104.072 29.4733 104.227 29.7342 104.186C29.983 104.073 29.9923 103.641 30.0341 103.33C30.0833 101.878 30.4287 100.116 31.9356 99.486C32.7155 99.0956 33.8417 99.0069 34.3366 98.7994C34.8073 98.633 34.7293 98.2856 34.3877 97.9226C32.696 96.3418 31.2439 94.4931 31.372 91.8773C31.3377 91.2081 31.5596 90.2106 31.1854 89.716C31.1807 89.7105 31.1752 89.705 31.1687 89.6995Z" fill="#FF3B3B"/>
<path d="M28.8002 92.8438C28.5997 92.7085 28.297 92.8767 28.0416 92.9581C27.5598 93.1547 27.012 93.247 26.4967 93.1318C25.9006 93.0413 25.2089 92.5521 24.7632 92.4068C24.6295 92.3656 24.4856 92.3428 24.363 92.4086C24.0715 92.6015 24.0641 93.0769 23.9907 93.407C23.883 94.2564 23.4819 94.9366 22.676 95.199C22.3436 95.3544 21.6807 95.3754 21.56 95.7146C21.547 95.9661 21.833 96.2294 22.0159 96.4644C22.3956 96.8922 22.6909 97.4143 22.7457 97.9784C22.8747 98.634 22.4866 99.53 22.6277 99.9414C22.8162 100.233 23.3742 99.9441 23.6667 99.8911C25.1532 99.4248 26.467 99.6817 27.7092 100.73C27.8513 100.816 27.9377 100.902 28.0862 100.879C28.2292 100.815 28.231 100.575 28.2533 100.402C28.2747 99.5958 28.4613 98.6175 29.3025 98.2664C29.738 98.0488 30.3712 97.9985 30.646 97.8833C30.9088 97.7901 30.8595 97.5981 30.6636 97.3978C29.6925 96.5238 28.8745 95.498 28.9265 94.0488C28.9033 93.6776 29.0175 93.1254 28.8076 92.8502C28.8067 92.8493 28.8039 92.8465 28.8002 92.8438Z" fill="#FFB133"/>
<path d="M35.746 105.15C35.5761 105.15 35.4062 105.085 35.2781 104.957C34.8426 104.52 34.3877 104.07 33.9253 103.619C33.6681 103.368 33.6663 102.959 33.9216 102.706C34.176 102.453 34.591 102.451 34.8482 102.702C35.3152 103.158 35.7748 103.613 36.214 104.054C36.4675 104.308 36.4638 104.717 36.2047 104.966C36.0775 105.089 35.9122 105.15 35.746 105.15Z" fill="#FFC533"/>
<path d="M35.0766 93.8723C34.8074 93.8723 34.5548 93.7077 34.4592 93.4435C34.3376 93.108 34.5158 92.7386 34.8566 92.6197C35.5102 92.3912 36.1648 92.1617 36.8212 91.9322C37.162 91.8133 37.5371 91.9889 37.6578 92.3244C37.7785 92.66 37.6002 93.0293 37.2595 93.1482C36.604 93.3777 35.9494 93.6072 35.2957 93.8357C35.2233 93.8604 35.15 93.8723 35.0766 93.8723Z" fill="#FFC533"/>
<path d="M24.7437 109C24.7242 109 24.7047 108.999 24.6852 108.997C24.325 108.966 24.0585 108.653 24.0901 108.298C24.1699 107.408 24.2581 106.488 24.3537 105.561C24.39 105.207 24.7103 104.949 25.0715 104.984C25.4317 105.02 25.6935 105.336 25.6573 105.691C25.5626 106.612 25.4744 107.527 25.3955 108.411C25.3658 108.748 25.0798 109 24.7437 109Z" fill="#FFC533"/>
<path d="M14.0616 101.052C13.7515 101.052 13.4767 100.835 13.4182 100.524C13.3523 100.174 13.5881 99.8371 13.9437 99.7722L15.9808 99.4028C16.3373 99.3379 16.6781 99.5702 16.744 99.9203C16.8099 100.271 16.5741 100.607 16.2185 100.672L14.1814 101.041C14.1415 101.049 14.1016 101.052 14.0616 101.052Z" fill="#FFC533"/>
<path d="M17.5722 90.7729C17.3986 90.7729 17.2249 90.7052 17.0959 90.5708C16.6029 90.057 16.108 89.5441 15.6113 89.0311C15.3615 88.7733 15.3717 88.3646 15.6335 88.1187C15.8954 87.8727 16.3095 87.8828 16.5602 88.1406C17.0587 88.6554 17.5545 89.1701 18.0494 89.6849C18.2982 89.9436 18.2862 90.3523 18.0234 90.5964C17.8953 90.7143 17.7337 90.7729 17.5722 90.7729Z" fill="#FFC533"/>
<path d="M37.6596 100.001C37.6253 100.001 37.5909 99.9981 37.5556 99.9926L37.2214 99.9405C36.8639 99.8847 36.6207 99.5537 36.6773 99.2026C36.734 98.8506 37.0701 98.6111 37.4266 98.6669L37.7618 98.7199C38.1192 98.7757 38.3625 99.1066 38.3058 99.4586C38.2548 99.775 37.9762 100.001 37.6596 100.001Z" fill="#FFC533"/>
<path d="M33.0089 87.6104C32.8947 87.6104 32.7796 87.5811 32.6747 87.5199C32.3636 87.3379 32.2615 86.9421 32.4472 86.6358L32.6357 86.324C32.8214 86.0177 33.2234 85.9181 33.5344 86.1009C33.8455 86.2838 33.9467 86.6797 33.761 86.9859L33.5734 87.2959C33.4499 87.4979 33.2327 87.6104 33.0089 87.6104Z" fill="#FFC533"/>
<path d="M31.126 108.039C31.1139 108.039 31.1018 108.039 31.0888 108.038C30.7277 108.018 30.451 107.715 30.4714 107.358L30.4798 107.209C30.4993 106.853 30.8075 106.58 31.1687 106.599C31.5299 106.618 31.8075 106.922 31.788 107.278L31.7796 107.428C31.7601 107.774 31.4714 108.039 31.126 108.039Z" fill="#FFC533"/>
<path d="M18.5127 105.403C18.3725 105.403 18.2305 105.359 18.1116 105.268C17.8257 105.049 17.7737 104.644 17.9956 104.363L18.1803 104.129C18.4023 103.848 18.8145 103.797 19.0995 104.016C19.3846 104.235 19.4356 104.641 19.2137 104.921L19.0299 105.155C18.9008 105.318 18.7077 105.403 18.5127 105.403Z" fill="#FFC533"/>
<path d="M14.511 94.9941C14.4349 94.9941 14.3569 94.9813 14.2817 94.953L13.8267 94.7857C13.4879 94.6613 13.3152 94.2901 13.4414 93.9564C13.5677 93.6227 13.9447 93.4526 14.2836 93.577L14.7404 93.7452C15.0793 93.8695 15.251 94.2417 15.1247 94.5754C15.0263 94.8341 14.7766 94.9941 14.511 94.9941Z" fill="#FFC533"/>
<path d="M27.2461 17.0343C27.6845 17.5406 27.9037 17.9387 27.9037 18.2286C27.8386 18.4795 27.793 19.0853 27.7669 20.0459C27.7843 20.1541 27.8755 20.2493 28.0404 20.3315C30.4275 20.4267 32.0899 20.5392 33.0274 20.669H33.2162V20.7859L30.9961 21.026L31.2826 21.013C31.4084 21.013 31.5018 21.0866 31.5625 21.2337C31.5625 21.3246 31.3281 21.4219 30.8594 21.5258C30.8594 21.7162 30.4992 21.846 29.7787 21.9152C29.2795 22.2917 28.75 22.4799 28.1901 22.4799C28.0035 22.4799 27.8451 22.5578 27.7149 22.7135L27.6693 24.9852V26.8545C27.6693 27.6377 27.7322 28.2998 27.8581 28.8406V29.2431C27.6454 29.8099 27.474 30.0933 27.3438 30.0933C27.2179 30.0933 27.1051 29.8856 27.0052 29.4702L27.0573 26.1146V25.3812L27.1029 24.135H27.0573C26.9662 24.2172 26.7795 24.5937 26.4974 25.2643L26.1198 25.4396V25.3812L26.543 24.4141C26.6906 24.029 26.8164 23.5379 26.9206 22.9407L26.4453 22.3176L26.3086 21.4609C26.3086 20.8594 26.4323 20.5587 26.6797 20.5587C27.0269 20.2644 27.2005 19.7517 27.2005 19.0204C27.2005 18.6699 27.1354 18.1961 27.0052 17.599C27.0052 17.348 27.0855 17.1598 27.2461 17.0343Z" fill="#FFEB33"/>
<path d="M30.1497 12.1728C30.4318 11.9478 30.6445 11.9219 30.7877 12.0949L30.9245 12.5038C31.2804 12.9712 31.0395 13.5856 30.2018 14.3472C29.1992 14.8794 28.0729 15.5869 26.8229 16.4696L24.7331 18.1247H24.6289C24.5942 17.9689 24.898 17.5816 25.5403 16.9629C27.9145 14.7344 29.4509 13.1378 30.1497 12.1728ZM23.7109 17.0732C23.6805 17.1035 23.6241 17.1186 23.5416 17.1186C23.5937 17.1186 23.648 17.1251 23.7044 17.1381C23.7608 17.1468 23.8216 17.1511 23.8867 17.1511C23.9865 17.1511 24.0473 17.1554 24.069 17.1641C24.3685 17.2073 24.4987 17.2182 24.4596 17.1965C24.5204 17.1965 24.5833 17.2117 24.6484 17.242C24.6875 17.242 24.7179 17.2484 24.7396 17.2614C24.9045 17.3134 25.0022 17.3436 25.0325 17.3523C25.0325 17.3523 25.1562 17.4172 25.4036 17.547C25.3646 17.5254 25.4644 17.5924 25.7031 17.7482C25.7639 17.8218 25.8094 17.8391 25.8398 17.8001C25.8094 17.7352 25.7725 17.6768 25.7291 17.6249C25.46 17.3912 25.3429 17.2809 25.3776 17.2939C25.408 17.3155 25.2734 17.2571 24.9739 17.1186C24.9609 17.1186 24.9457 17.1165 24.9284 17.1121C24.9153 17.1078 24.9045 17.1057 24.8958 17.1057C24.8133 17.084 24.6983 17.0624 24.5508 17.0407C24.4596 17.0407 24.3403 17.0299 24.1927 17.0083C24.1102 17.0299 24.0278 17.0407 23.9453 17.0407C23.8628 17.0407 23.7847 17.0516 23.7109 17.0732ZM26.0612 17.5146C26.0612 17.5362 26.0612 17.5557 26.0612 17.573C26.0612 17.586 26.0612 17.5968 26.0612 17.6054C26.1089 17.6487 26.1436 17.7028 26.1653 17.7677C26.1653 17.798 26.1914 17.8239 26.2435 17.8456C26.2218 17.8239 26.2022 17.772 26.1849 17.6898C26.276 17.7071 26.2348 17.6487 26.0612 17.5146ZM26.2435 17.8456C26.2652 18.0143 26.2912 18.1182 26.3216 18.1571C26.2999 18.1398 26.3259 18.2047 26.3997 18.3518C26.3997 18.2956 26.378 18.2155 26.3346 18.1117C26.3346 17.9646 26.3042 17.8759 26.2435 17.8456ZM22.8581 21.5841C22.8581 21.6058 22.8559 21.6253 22.8515 21.6426C22.8472 21.6555 22.845 21.662 22.845 21.662C22.832 21.6837 22.8233 21.7031 22.819 21.7204C22.8146 21.7334 22.8125 21.7442 22.8125 21.7529C22.8125 21.7745 22.8016 21.7962 22.7799 21.8178C22.7799 21.8481 22.7756 21.8632 22.7669 21.8632C22.7582 21.8979 22.743 21.9346 22.7213 21.9736C22.6996 22.0168 22.6888 22.045 22.6888 22.058C22.6801 22.0753 22.6693 22.0947 22.6562 22.1164C22.6475 22.138 22.6432 22.1553 22.6432 22.1683C22.5998 22.2289 22.5694 22.2808 22.5521 22.3241C22.539 22.3673 22.4956 22.4344 22.4219 22.5253C22.4045 22.5599 22.3871 22.5902 22.3698 22.6161C22.3568 22.6421 22.3437 22.6659 22.3307 22.6875C22.2916 22.7395 22.2548 22.7914 22.22 22.8433C22.1896 22.8952 22.1593 22.9363 22.1289 22.9666C22.0551 23.0229 21.9878 23.1029 21.9271 23.2068C21.9401 23.2154 21.9661 23.2306 22.0052 23.2522C22.0052 23.2522 22.0117 23.2479 22.0247 23.2392C22.0421 23.2263 22.0573 23.2154 22.0703 23.2068C22.1007 23.1852 22.1354 23.1635 22.1745 23.1419C22.2179 23.1202 22.2591 23.0943 22.2982 23.064C22.2678 23.0856 22.3307 23.0337 22.487 22.9082C22.5911 22.813 22.6996 22.6335 22.8125 22.3695C22.7821 22.4128 22.7929 22.3608 22.845 22.2137C22.845 22.2007 22.8472 22.1878 22.8515 22.1748C22.8559 22.1575 22.8646 22.138 22.8776 22.1164C22.8776 22.0947 22.8798 22.0774 22.8841 22.0644C22.8884 22.0471 22.8906 22.0277 22.8906 22.006C22.934 21.9238 22.9492 21.887 22.9362 21.8957C22.9362 21.8438 22.9362 21.7897 22.9362 21.7334C22.9362 21.6728 22.9362 21.6123 22.9362 21.5517C22.9058 21.5517 22.8798 21.5625 22.8581 21.5841ZM24.0234 16.7097C24.1276 16.6967 24.2339 16.6967 24.3424 16.7097C24.4509 16.7184 24.5616 16.7076 24.6745 16.6773C24.8611 16.6773 25.0022 16.6881 25.0976 16.7097C25.2018 16.753 25.3081 16.7855 25.4166 16.8071C25.5252 16.8244 25.625 16.8698 25.7161 16.9434C25.8811 17.1035 25.9744 17.1944 25.9961 17.216C26.0568 17.2679 26.1046 17.3285 26.1393 17.3977C26.1784 17.4626 26.2283 17.5167 26.289 17.56C26.289 17.6249 26.3042 17.679 26.3346 17.7223C26.3693 17.7612 26.391 17.8066 26.3997 17.8586C26.4431 17.9321 26.4735 17.9689 26.4909 17.9689C26.4909 18.0338 26.5126 18.129 26.556 18.2545C26.5647 18.2761 26.5733 18.2956 26.582 18.3129C26.595 18.3259 26.6124 18.3389 26.6341 18.3518C26.6341 18.5725 26.6493 18.7283 26.6797 18.8192V18.9035C26.6493 18.9338 26.6493 18.9706 26.6797 19.0139V19.3124C26.6797 19.2995 26.6645 19.3665 26.6341 19.5137C26.6211 19.5483 26.6037 19.5807 26.582 19.611C26.5647 19.6413 26.556 19.6673 26.556 19.6889C26.5039 19.9528 26.493 20.0221 26.5234 19.8966C26.5017 19.9485 26.4713 19.9788 26.4323 19.9875C26.4019 20.0221 26.3758 20.0589 26.3541 20.0978C26.3324 20.1324 26.3107 20.18 26.289 20.2406C26.2804 20.2536 26.2717 20.2644 26.263 20.2731L26.2435 20.286C26.2348 20.3077 26.1936 20.3553 26.1198 20.4288L26.0091 20.5911H25.8854V20.6495C25.855 20.6841 25.8203 20.7101 25.7812 20.7274L25.7291 20.7404L25.7031 20.7469C25.7031 20.8074 25.6923 20.8377 25.6706 20.8377C25.6272 20.8377 25.5968 20.8442 25.5794 20.8572C25.5794 20.9005 25.562 20.9221 25.5273 20.9221C25.4883 20.9394 25.4449 20.9524 25.3971 20.9611C25.3494 20.9654 25.3103 20.9719 25.2799 20.9805C25.2626 21.0022 25.1953 21.0389 25.0781 21.0909C25.0477 21.1038 25.0217 21.1168 25 21.1298C24.9826 21.1385 24.9631 21.1428 24.9414 21.1428C24.911 21.1601 24.8546 21.1796 24.7721 21.2012C24.707 21.2228 24.6441 21.2228 24.5833 21.2012L24.4271 21.1233C24.3446 21.093 24.2882 21.0043 24.2578 20.8572C24.2274 20.762 24.2122 20.7101 24.2122 20.7014C24.2209 20.7101 24.21 20.682 24.1797 20.6171C24.1883 20.6603 24.1775 20.5608 24.1471 20.3185C24.1471 20.2882 24.1493 20.2493 24.1536 20.2017C24.1623 20.1541 24.171 20.1043 24.1797 20.0524C24.1883 20.0437 24.1927 20.0286 24.1927 20.0069C24.2144 19.942 24.2318 19.8988 24.2448 19.8771V19.8187C24.2838 19.7452 24.3446 19.6802 24.4271 19.624C24.4488 19.624 24.4726 19.6197 24.4987 19.611C24.5247 19.6024 24.5529 19.5915 24.5833 19.5786C24.592 19.5786 24.6072 19.5742 24.6289 19.5656C24.6506 19.5526 24.6723 19.5418 24.694 19.5331L24.9739 19.3903C25.23 19.2129 25.3993 19.0701 25.4818 18.962C25.5338 18.9317 25.5707 18.8906 25.5924 18.8386C25.6228 18.7002 25.6337 18.5833 25.625 18.4881C25.5946 18.4276 25.5837 18.4016 25.5924 18.4103C25.5317 18.2761 25.3971 18.1182 25.1888 17.9364C25.128 17.8975 24.9978 17.8239 24.7982 17.7158C24.7808 17.7158 24.6788 17.6855 24.4922 17.6249C24.3576 17.5816 24.1146 17.5708 23.763 17.5924C23.8238 17.5708 23.7391 17.5816 23.5091 17.6249C23.4787 17.6336 23.4288 17.6379 23.3594 17.6379C23.316 17.6595 23.2791 17.6703 23.2487 17.6703C23.2877 17.6487 23.2465 17.6595 23.125 17.7028C23.1033 17.7114 23.0664 17.7158 23.0143 17.7158C22.8798 17.759 22.7669 17.7872 22.6758 17.8001C22.6541 17.8088 22.6345 17.8153 22.6172 17.8196C22.6041 17.8239 22.5911 17.8261 22.5781 17.8261C22.5607 17.8391 22.5434 17.8477 22.526 17.8521C22.5087 17.8564 22.4956 17.8586 22.487 17.8586L22.4349 17.865L22.4088 17.878C22.3871 17.8997 22.335 17.9191 22.2526 17.9364C22.2135 17.9364 22.1723 17.9473 22.1289 17.9689C22.0681 18.0035 22.0421 18.0143 22.0508 18.0014C22.0117 18.023 21.977 18.0338 21.9466 18.0338C21.9249 18.0425 21.9075 18.0511 21.8945 18.0598C21.8858 18.0641 21.8771 18.0663 21.8685 18.0663C21.8164 18.0879 21.7274 18.1355 21.6015 18.209L21.4909 18.3194C21.4518 18.3194 21.365 18.3865 21.2304 18.5206C21.0829 18.7326 21.0156 18.8321 21.0286 18.8192C20.9982 18.8841 20.957 18.9425 20.9049 18.9944V19.0593C20.8919 19.0809 20.8811 19.0983 20.8724 19.1112C20.8637 19.1199 20.8594 19.1285 20.8594 19.1372C20.8463 19.1588 20.8333 19.1761 20.8203 19.1891C20.8116 19.1978 20.8073 19.2064 20.8073 19.2151C20.7769 19.267 20.7617 19.3146 20.7617 19.3579C20.6575 19.505 20.6054 19.6153 20.6054 19.6889C20.6054 19.7019 20.5968 19.717 20.5794 19.7343C20.5664 19.7473 20.5512 19.8685 20.5338 20.0978C20.5121 20.1411 20.5165 20.2146 20.5469 20.3185C20.5555 20.3401 20.5642 20.3574 20.5729 20.3704C20.5859 20.3791 20.5968 20.3834 20.6054 20.3834C20.6185 20.392 20.625 20.4137 20.625 20.4483C20.5946 20.405 20.6054 20.457 20.6575 20.6041C20.6749 20.6127 20.6944 20.6171 20.7161 20.6171C20.7378 20.6171 20.7639 20.6171 20.7943 20.6171C20.7552 20.6906 20.8485 20.6127 21.0742 20.3834C21.1046 20.3834 21.1306 20.3791 21.1523 20.3704C21.174 20.3574 21.2109 20.3509 21.263 20.3509C21.2934 20.299 21.3607 20.2731 21.4648 20.2731C21.4952 20.2514 21.5451 20.2298 21.6146 20.2081C21.6797 20.1865 21.888 20.1757 22.2396 20.1757C22.5911 20.2622 22.8342 20.4375 22.9687 20.7014C22.9687 20.7317 22.9839 20.7555 23.0143 20.7728C23.0447 20.7858 23.0664 20.8031 23.0794 20.8247C23.1489 20.9805 23.1836 21.0498 23.1836 21.0324C23.2487 21.2618 23.2856 21.4349 23.2943 21.5517V22.1358C23.2943 22.1748 23.2834 22.2267 23.2617 22.2916C23.253 22.3349 23.2357 22.3782 23.2096 22.4214C23.1836 22.4604 23.1706 22.5015 23.1706 22.5447L23.1445 22.5577L23.125 22.5772V22.6356C23.0295 22.826 22.9926 22.8952 23.0143 22.8433L22.8776 22.9861C22.8863 23.0597 22.8537 23.0964 22.7799 23.0964C22.7495 23.1484 22.7409 23.1743 22.7539 23.1743C22.6584 23.2263 22.5803 23.3063 22.5195 23.4145C22.4891 23.4318 22.4566 23.4513 22.4219 23.4729C22.3915 23.4945 22.3611 23.5118 22.3307 23.5248C22.3003 23.5421 22.2548 23.5616 22.194 23.5832C22.1506 23.6049 22.1159 23.6352 22.0898 23.6741C22.0638 23.7087 22.0312 23.726 21.9922 23.726C21.9705 23.739 21.9336 23.7455 21.8815 23.7455C21.8077 23.8191 21.7513 23.8558 21.7122 23.8558C21.6905 23.8645 21.6732 23.871 21.6601 23.8753C21.6515 23.8796 21.6428 23.8818 21.6341 23.8818C21.5907 23.9034 21.5538 23.9207 21.5234 23.9337C21.5017 23.9554 21.4822 23.9662 21.4648 23.9662C21.4518 23.9748 21.4301 23.9792 21.3997 23.9792C21.391 23.9878 21.3802 23.9986 21.3672 24.0116L21.3541 24.0246C21.3238 24.0246 21.2977 24.0311 21.276 24.0441C21.2543 24.0527 21.2174 24.0571 21.1653 24.0571C21.0221 24.1003 20.8789 24.1003 20.7357 24.0571C20.6923 24.0571 20.6597 24.0527 20.638 24.0441C20.7118 24.0441 20.625 24.0008 20.3776 23.9143C20.3038 23.884 20.204 23.7736 20.0781 23.5832C20.026 23.5313 19.9696 23.4426 19.9088 23.3171C19.835 23.3171 19.7938 23.3431 19.7851 23.395C19.7851 23.408 19.783 23.4231 19.7786 23.4404C19.7743 23.4534 19.7721 23.4642 19.7721 23.4729C19.7591 23.5075 19.7526 23.6352 19.7526 23.8558L19.7656 23.8688L19.7721 23.8818C19.7721 23.9164 19.7765 23.9381 19.7851 23.9467C19.8285 24.0722 19.8394 24.1198 19.8177 24.0895C19.8394 24.1544 19.8502 24.202 19.8502 24.2323C19.9501 24.44 20.0108 24.5547 20.0325 24.5763C20.0976 24.6499 20.1541 24.7234 20.2018 24.797L20.345 24.8943C20.3667 24.8857 20.3928 24.8814 20.4232 24.8814C20.4535 24.9116 20.5924 24.9376 20.8398 24.9592C21.0482 24.916 21.1263 24.9052 21.0742 24.9268H21.289C21.2717 24.9354 21.3715 24.903 21.5885 24.8294C21.6059 24.8294 21.6232 24.8251 21.6406 24.8164C21.658 24.8035 21.6818 24.7926 21.7122 24.784C21.7209 24.784 21.7361 24.7818 21.7578 24.7775C21.7795 24.7689 21.799 24.7602 21.8164 24.7515C21.8685 24.7515 21.914 24.7342 21.9531 24.6996C21.9965 24.6607 22.0443 24.6369 22.0963 24.6282C22.1397 24.6066 22.1918 24.5633 22.2526 24.4984C22.1918 24.4984 22.2439 24.4768 22.4088 24.4335C22.5955 24.321 22.6736 24.2691 22.6432 24.2777C22.7864 24.1522 22.8993 24.0635 22.9818 24.0116C23.0642 23.9381 23.1467 23.8537 23.2291 23.7585C23.2639 23.7282 23.2964 23.6914 23.3268 23.6481C23.3572 23.6049 23.3876 23.5638 23.4179 23.5248C23.47 23.4166 23.5004 23.3582 23.5091 23.3496C23.5091 23.3366 23.5113 23.3236 23.5156 23.3106C23.5243 23.2933 23.533 23.2739 23.5416 23.2522C23.5416 23.2133 23.5482 23.183 23.5612 23.1614C23.5785 23.1181 23.5872 23.0921 23.5872 23.0835C23.6176 22.9666 23.6849 22.8974 23.789 22.8758C23.8021 22.8758 23.8129 22.8736 23.8216 22.8693C23.8303 22.8606 23.8455 22.852 23.8672 22.8433C23.9496 22.7784 24.0017 22.7373 24.0234 22.72C24.0451 22.6984 24.082 22.6335 24.1341 22.5253C24.1341 22.5166 24.1449 22.5015 24.1666 22.4798C24.1666 22.4496 24.1753 22.402 24.1927 22.3371C24.2057 22.3371 24.2209 22.3327 24.2383 22.3241C24.26 22.3111 24.2817 22.3003 24.3034 22.2916C24.4075 22.2916 24.5117 22.3046 24.6159 22.3306C24.72 22.3565 24.822 22.3695 24.9219 22.3695C24.9436 22.4214 24.987 22.4539 25.0521 22.4669C25.0911 22.4885 25.115 22.4993 25.1237 22.4993C25.2278 22.6032 25.1475 22.8887 24.8828 23.3561C24.6224 23.8234 24.3055 24.2626 23.9323 24.6737C23.776 24.7991 23.7022 24.8576 23.7109 24.8489C23.6198 24.9095 23.5351 24.9765 23.457 25.0501C23.3789 25.1237 23.2943 25.1929 23.2031 25.2578H23.125C22.9774 25.353 22.7951 25.4266 22.5781 25.4785L22.3502 25.5564C22.2634 25.578 22.1962 25.5932 22.1484 25.6018C22.1267 25.6148 22.1072 25.6234 22.0898 25.6278C22.0768 25.6321 22.0638 25.6343 22.0508 25.6343C22.0291 25.6343 22.0095 25.6386 21.9922 25.6472C21.9791 25.6516 21.964 25.6537 21.9466 25.6537C21.9032 25.671 21.8663 25.6797 21.8359 25.6797C21.875 25.6624 21.8337 25.6732 21.7122 25.7121C21.6905 25.7121 21.671 25.7143 21.6536 25.7186C21.6406 25.7273 21.6276 25.7316 21.6146 25.7316C21.4496 25.7835 21.3368 25.7944 21.276 25.7641C21.1415 25.7295 21.085 25.7186 21.1068 25.7316C20.8463 25.6883 20.7574 25.6819 20.8398 25.7121C20.7574 25.6905 20.6966 25.671 20.6575 25.6537C20.5534 25.6407 20.408 25.5715 20.2213 25.446C19.9522 25.2556 19.7873 25.1237 19.7265 25.0501C19.7873 25.0934 19.7135 25.009 19.5052 24.797C19.3186 24.5027 19.2252 24.3405 19.2252 24.3102L19.1797 24.1674C19.158 24.1241 19.1471 24.0982 19.1471 24.0895C19.1384 24.0679 19.1341 24.0268 19.1341 23.9662C19.1124 23.9445 19.1015 23.9164 19.1015 23.8818C19.1232 23.9467 19.1124 23.8948 19.069 23.726C19.0603 23.7044 19.056 23.6157 19.056 23.4599C19.056 23.3215 19.0603 23.2371 19.069 23.2068C19.1037 23.0294 19.1146 22.9493 19.1015 22.9666C19.1015 22.9363 19.1059 22.9082 19.1146 22.8823C19.1276 22.8563 19.1384 22.8282 19.1471 22.7979C19.1775 22.733 19.1883 22.707 19.1797 22.72C19.1797 22.707 19.1818 22.694 19.1862 22.6811C19.1905 22.6637 19.1927 22.6486 19.1927 22.6356C19.2144 22.5967 19.2252 22.5707 19.2252 22.5577C19.2556 22.4972 19.2665 22.4712 19.2578 22.4798C19.2578 22.4712 19.26 22.4625 19.2643 22.4539C19.2686 22.4409 19.2708 22.4236 19.2708 22.402C19.3142 22.2548 19.3359 22.1553 19.3359 22.1034L19.3034 22.0385L19.6289 21.8503C19.6506 21.8719 19.6766 21.8719 19.707 21.8503C19.707 21.82 19.7179 21.8048 19.7396 21.8048V21.7724L19.7461 21.7529C19.7504 21.7442 19.7591 21.7356 19.7721 21.7269C19.8025 21.662 19.9219 21.5149 20.1302 21.2856C20.1606 21.251 20.191 21.2099 20.2213 21.1623C20.2517 21.1147 20.2821 21.0757 20.3125 21.0454L20.1758 20.9481C20.1627 20.9611 20.1519 20.9675 20.1432 20.9675C20.0477 20.9373 19.9956 20.9156 19.987 20.9026C19.8828 20.894 19.796 20.8096 19.7265 20.6495C19.7048 20.6106 19.694 20.5695 19.694 20.5262C19.681 20.5132 19.6723 20.4981 19.6679 20.4807C19.6636 20.4591 19.6614 20.4375 19.6614 20.4158C19.6397 20.3639 19.6397 20.312 19.6614 20.2601C19.7048 20.0697 19.7157 20.0004 19.694 20.0524C19.694 19.9875 19.7048 19.9464 19.7265 19.929C19.7265 19.8944 19.7352 19.8468 19.7526 19.7863C19.7743 19.7516 19.796 19.704 19.8177 19.6435C19.8481 19.5483 19.8589 19.5115 19.8502 19.5331L19.9088 19.4033C19.8871 19.4769 19.9392 19.3882 20.0651 19.1372C20.0738 19.1069 20.0911 19.0766 20.1172 19.0463C20.1432 19.0117 20.1671 18.9793 20.1888 18.949C20.2105 18.9187 20.3038 18.8019 20.4687 18.5985C20.5121 18.5466 20.562 18.5033 20.6185 18.4687C20.6749 18.4297 20.7291 18.38 20.7812 18.3194C20.8203 18.2761 20.868 18.2372 20.9245 18.2026C20.9809 18.1636 21.0351 18.1182 21.0872 18.0663C21.1002 18.0533 21.1371 18.0316 21.1979 18.0014L21.3867 17.8131C21.4258 17.7482 21.5082 17.6855 21.6341 17.6249C21.7166 17.5384 21.8207 17.4583 21.9466 17.3847C22.0681 17.3025 22.1593 17.2463 22.22 17.216C22.2548 17.1814 22.2916 17.1641 22.3307 17.1641L22.6107 17.0213C22.6193 17.0213 22.6324 17.0191 22.6497 17.0148C22.6671 17.0105 22.6801 17.0083 22.6888 17.0083C22.8146 16.9347 22.9232 16.9023 23.0143 16.9109L23.1706 16.833C23.2009 16.8244 23.2574 16.8093 23.3398 16.7876C23.4744 16.7876 23.5785 16.7725 23.6523 16.7422C23.7131 16.7292 23.7739 16.727 23.8346 16.7357C23.8997 16.74 23.9627 16.7314 24.0234 16.7097Z" fill="#FFEB33"/>
<path d="M23.4179 11.2188C23.4874 11.2447 23.5243 11.2707 23.5286 11.2966L23.5156 11.3226H23.3984L23.3073 11.2966V11.2772C23.3073 11.2469 23.3442 11.2274 23.4179 11.2188ZM22.8646 11.2317L22.8971 11.2772L22.832 11.3226H22.8125C22.7387 11.3226 22.6996 11.301 22.6953 11.2577L22.7148 11.2317H22.8646ZM21.6601 11.2966H21.6732L21.7187 11.3356C21.7187 11.3875 21.4518 11.4394 20.9179 11.4914C20.8442 11.5303 20.7465 11.5498 20.625 11.5498H20.4752L20.4297 11.5822V11.5952H20.4752V11.6212L20.4948 11.5952H20.6575L20.7747 11.6212V11.6341C20.7747 11.6731 20.6597 11.7077 20.4297 11.738C20.4297 11.7553 20.1779 11.8051 19.6745 11.8873L19.2318 11.9976C18.3854 12.2659 17.9318 12.439 17.8711 12.5169H17.8841C18.7348 12.2399 19.566 12.0236 20.3776 11.8678C20.6988 11.8245 20.9982 11.7769 21.276 11.725L21.4062 11.738H21.4193L21.7187 11.6861L21.8164 11.6991L22.6041 11.6601L22.6237 11.6861H22.6367L23.0534 11.6341L24.1732 11.725V11.751L23.0859 11.7899L22.7669 11.764L22.6953 11.8029L22.5846 11.7899H22.4544L22.1224 11.8029L22.0117 11.7899L21.9922 11.8029V11.8418H22.2461C23.2443 11.8592 23.7435 11.8808 23.7435 11.9068L23.763 11.8873H23.7825L23.9258 11.9068L24.2318 11.8678L24.2448 11.8873V11.9522L24.2122 11.9846H23.8281L23.6588 11.9522H23.3528L22.7669 11.9846L22.6367 11.9652C21.9379 12.0257 21.4844 12.0928 21.276 12.1664L21.2174 12.2313H21.2435L21.4583 12.1988L21.6601 12.2118L23.0208 12.1015L23.0534 12.1144L23.1445 12.1015H23.1966L23.3528 12.1339L23.6458 12.1015L25.1497 12.2313C25.1714 12.2529 25.4383 12.3005 25.9505 12.3741C26.0937 12.4044 26.1653 12.4303 26.1653 12.452L26.1133 12.5039L25.1953 12.3741L25.1823 12.3871H25.1237L24.7265 12.4065C24.6397 12.3416 24.4791 12.3092 24.2448 12.3092C24.2448 12.3524 24.1818 12.3849 24.056 12.4065L24.0429 12.3871H24.0169L24.0429 12.3741V12.3221H23.8672L23.8411 12.426L23.6458 12.4065L22.6367 12.5428C22.6454 12.5774 22.6888 12.5948 22.7669 12.5948H22.7799C22.9449 12.5601 23.1749 12.5342 23.47 12.5169L23.5677 12.5428L23.8281 12.5169L23.9518 12.5558L24.2122 12.5169H24.3685L24.707 12.5558H24.8893L24.9414 12.5948L24.8893 12.6337L24.0429 12.6532H23.9258C23.9041 12.6532 23.8845 12.6921 23.8672 12.77L23.763 12.7895H23.7435C23.7131 12.7851 23.6849 12.7505 23.6588 12.6856L22.8971 12.744L22.7799 12.7311L22.2916 12.8414L22.2265 12.8284C22.1788 12.9496 22.1397 13.0101 22.1094 13.0101C22.0356 13.0101 21.8945 13.0556 21.6862 13.1464H21.6601V13.1984L22.2591 13.0751C22.4067 12.9885 22.5586 12.9452 22.7148 12.9452L22.7799 12.9972V13.0101C22.6671 13.1226 22.589 13.1811 22.5456 13.1854C22.4674 13.194 22.4284 13.2157 22.4284 13.2503V13.2957L22.4544 13.2763H22.5L22.5456 13.3217V13.3477H22.513L22.4153 13.3217L22.3047 13.445H22.2916C22.1918 13.445 22.1419 13.4255 22.1419 13.3866L22.0508 13.4126L22.0638 13.5034L21.6732 13.6981L21.5495 13.6787C21.5495 13.7912 21.3824 13.9058 21.0482 14.0227C20.9917 14.027 20.8811 14.0919 20.7161 14.2174C20.6423 14.2174 20.5751 14.3212 20.5143 14.5289C20.2843 14.7323 20.0412 15.0179 19.7851 15.3857C19.681 15.4333 19.5421 15.615 19.3685 15.9309C19.0994 16.3247 18.8107 16.9499 18.5026 17.8067C18.4635 17.837 18.342 18.1074 18.138 18.618C17.9644 18.8257 17.7691 19.5894 17.5521 20.9092C17.4653 21.3808 17.4002 22.164 17.3568 23.2588L17.3372 23.3821C17.3372 23.9403 17.4609 24.8619 17.7083 26.1471C17.7083 26.2942 17.8081 26.5322 18.0078 26.861C18.355 27.5923 18.585 28.0163 18.6979 28.1332C19.2318 28.501 19.5725 28.6849 19.72 28.6849H19.7331C19.9544 28.6113 20.1497 28.4144 20.319 28.0942L20.3776 27.9579V27.7827L20.3906 27.7697L20.3776 27.7502V27.1985L20.319 26.5365V26.5105L20.3776 26.4781C20.3993 26.4781 20.4666 26.6793 20.5794 27.0817C20.6054 27.3024 20.664 27.4127 20.7552 27.4127V27.3089C20.7552 27.2267 20.7943 27.1855 20.8724 27.1855L20.8919 27.2505H20.9179V27.2115L20.8203 26.8805V26.861L20.8333 26.7637H20.8463C21.0156 26.967 21.1002 27.0925 21.1002 27.1401H21.1458C21.1805 27.1401 21.1979 27.086 21.1979 26.9778L21.2435 26.9454C21.3737 26.9454 21.5451 27.1293 21.7578 27.4971C21.8229 27.5404 21.8728 27.6702 21.9075 27.8865C22.0377 28.0207 22.1267 28.2803 22.1745 28.6654C22.2526 28.7692 22.2916 28.8817 22.2916 29.0029V29.0938C22.2916 29.5092 22.1419 29.9613 21.8424 30.4503C21.4822 30.8311 21.2456 31.0215 21.1328 31.0215C20.9375 31.1816 20.5165 31.2616 19.8698 31.2616C19.3576 31.1794 19.0082 31.0864 18.8216 30.9825C18.1011 30.5239 17.6693 30.115 17.526 29.7558C17.2048 29.375 16.9444 28.9034 16.7448 28.3409C16.3628 27.2418 16.1719 26.2293 16.1719 25.3033C16.1545 25.3033 16.1458 24.9744 16.1458 24.3167V24.2258C16.1458 23.7023 16.2391 22.9905 16.4258 22.0905C16.6645 20.8789 16.8923 20.0243 17.1094 19.5267C17.5738 18.3108 17.9535 17.5038 18.2487 17.1057C18.5612 16.4869 18.8954 15.9179 19.2513 15.3987L19.2838 15.3532V15.3273H19.2513L18.9648 15.5739L17.9622 16.4372C17.9622 16.5367 17.9188 16.6102 17.832 16.6578C17.832 16.7747 17.717 16.9002 17.487 17.0343C17.487 17.0646 17.3871 17.1576 17.1875 17.3134C17.1875 17.3437 17.0399 17.4497 16.7448 17.6314C16.6189 17.7786 16.3975 17.8932 16.0807 17.9754C16.0807 18.01 15.931 18.062 15.6315 18.1312C14.9023 18.1312 14.2882 17.8456 13.789 17.2744C13.5416 16.8937 13.3897 16.4458 13.3333 15.9309V15.5609L13.3724 14.9443V14.8794C13.3724 14.7237 13.5113 14.4727 13.789 14.1265C14.4054 13.5727 14.8307 13.2957 15.0651 13.2957C15.447 13.0318 15.8572 12.8219 16.2956 12.6661C17.1332 12.3113 17.8016 12.0733 18.3008 11.9522L18.9323 11.751V11.764C19.5529 11.5952 19.9696 11.5108 20.1823 11.5108C20.2734 11.4546 20.6185 11.3962 21.2174 11.3356H21.4193L21.6601 11.2966ZM23.0534 11.4329C23.4483 11.4502 23.6458 11.4805 23.6458 11.5238L23.5156 11.5692C23.5156 11.5433 23.4831 11.5238 23.4179 11.5108L23.3398 11.5498L23.2552 11.5238L23.125 11.5692L22.7474 11.5108L22.6953 11.5238L22.6497 11.5108V11.4914L22.7148 11.4459H22.9427L23.0534 11.4329ZM22.4153 11.4459L22.4284 11.4654V11.5108H22.3047V11.4654L22.4153 11.4459ZM21.9726 11.4914C22.0985 11.5043 22.1614 11.5238 22.1614 11.5498L21.9726 11.5952L21.7773 11.5822H21.6406V11.5498H21.6862L21.9726 11.4914ZM23.8281 11.5498H23.8932V11.5822H23.8281V11.5498ZM20.0911 11.6341V11.6601H20.2018V11.6341H20.0911ZM21.2435 11.9197H21.276L21.5364 11.9068V11.8873H21.289L21.2435 11.9197ZM20.7552 11.9976H20.7877V12.0236C20.9049 12.0063 20.9635 11.9868 20.9635 11.9652H20.7877L20.7552 11.9976ZM26.4062 11.9522H26.4648L26.4909 11.9846V11.9976H26.4778L26.4062 11.9846V11.9522ZM20.3906 12.056V12.0885H20.4948V12.056H20.3906ZM24.3685 12.3741H24.414L24.4596 12.4065H24.3685V12.3741ZM22.0117 12.5558V12.6142H22.0312L22.194 12.5948L22.1614 12.5558H22.0117ZM25.319 12.5428H25.3841L25.5078 12.5558L25.5794 12.5428C25.6619 12.5428 25.7291 12.5796 25.7812 12.6532V12.6661C25.3906 12.6661 25.1953 12.6359 25.1953 12.5753L25.319 12.5428ZM21.7187 12.6337H21.8034L21.8424 12.5948L21.8164 12.5753H21.7773L21.7187 12.6337ZM21.289 12.6661V12.6856C21.289 12.7159 21.3324 12.7354 21.4193 12.744L21.5495 12.7311V12.7181L21.5234 12.6661H21.289ZM20.7552 12.8544H20.8203C20.9852 12.7981 21.1024 12.77 21.1719 12.77V12.7311H21.0482C20.8528 12.796 20.7552 12.8371 20.7552 12.8544ZM23.2747 12.8024H23.3398L23.3789 12.8414L23.2552 12.8674L23.2096 12.8414L23.2747 12.8024ZM22.8776 12.9972C22.921 12.9972 22.9427 13.0231 22.9427 13.0751C22.9166 13.1226 22.8949 13.1464 22.8776 13.1464C22.8472 13.1464 22.8255 13.1097 22.8125 13.0361L22.8776 12.9972Z" fill="#FFEB33"/>
</g>
<defs>
<clipPath id="clip0_43_4645">
<rect width="48" height="109" fill="white"/>
</clipPath>
</defs>
</svg>
