<svg width="69" height="92" viewBox="0 0 69 92" fill="none" xmlns="http://www.w3.org/2000/svg">
<g clip-path="url(#clip0_43_5075)">
<path d="M53.8936 84.39C53.6166 84.39 53.389 84.1705 53.3811 83.8929C53.0027 69.5989 43.8796 61.4974 35.8303 54.3504C30.1615 49.3166 25.2655 44.9692 24.3371 39.3317C24.2916 39.0534 24.4808 38.7909 24.7602 38.7448C25.0396 38.6994 25.303 38.8879 25.3493 39.1663C26.2187 44.4466 30.9894 48.6827 36.5128 53.5876C40.4421 57.0768 44.8967 61.0321 48.3118 65.8543C52.2387 71.3995 54.2328 77.2915 54.4061 83.8659C54.4133 84.1474 54.1905 84.3821 53.9071 84.39C53.9031 84.39 53.8984 84.39 53.8936 84.39Z" fill="#FFC194"/>
<path d="M40.2417 62.0972C37.3654 61.8411 34.9274 62.5895 34.9058 63.7897C34.8364 70.7657 35.2188 78.1052 36.0769 85.6921C36.2645 87.1269 38.6595 88.1561 41.3234 87.9907C43.9059 87.83 46.0087 86.5877 46.0653 85.2213C46.245 78.0607 46.0238 71.1849 45.4307 64.5986C45.3205 63.4588 43.0246 62.3453 40.2417 62.0972Z" fill="#EB3333"/>
<path d="M46.0653 85.2213C46.2019 79.7803 46.1069 74.5087 45.7947 69.4081C44.6563 74.1349 41.4519 81.1554 35.9213 84.2605C35.9716 84.7369 36.0234 85.2141 36.0777 85.6921C36.2653 87.1269 38.6603 88.1561 41.3242 87.9907C43.9059 87.83 46.0087 86.5877 46.0653 85.2213Z" fill="#DA3333"/>
<path d="M45.4307 64.5985C45.5393 65.7454 43.3264 66.5336 40.419 66.3459C37.4093 66.1518 34.8875 64.9994 34.9059 63.7897C34.9274 62.5903 37.3654 61.841 40.2417 62.0971C43.0246 62.3453 45.3198 63.4588 45.4307 64.5985Z" fill="#F94848"/>
<path d="M40.5179 68.701C37.4732 68.5467 34.9035 67.4101 34.9003 66.1781C34.9027 66.6211 34.9067 67.0665 34.9122 67.5127C34.9274 68.7558 37.5163 69.8829 40.573 70.0149C43.5244 70.1421 45.7924 69.2871 45.7109 68.1156C45.6822 67.6948 45.6519 67.2757 45.6199 66.8573C45.7101 68.0193 43.4581 68.8505 40.5179 68.701Z" fill="#FFAF33"/>
<path d="M41.1757 84.4609C38.3577 84.5778 35.8638 83.574 35.7161 82.2219C35.7624 82.7087 35.8103 83.197 35.8606 83.6854C36.0218 85.0462 38.4758 86.0388 41.2356 85.9012C43.9091 85.7676 46.0645 84.6096 46.1028 83.3195C46.11 82.8574 46.1156 82.3961 46.1188 81.9364C46.0924 83.2153 43.9043 84.3479 41.1757 84.4609Z" fill="#FFAF33"/>
<path d="M36.0004 68.8704C36.5089 69.1719 37.1675 69.432 37.9259 69.6292C37.9107 69.1846 37.8971 68.7408 37.8836 68.2986C37.13 68.0974 36.4753 67.8341 35.9724 67.5319C35.9796 67.9765 35.9892 68.4234 36.0004 68.8704Z" fill="#FFC873"/>
<path d="M38.705 84.2676C37.9914 84.1181 37.3607 83.8906 36.861 83.6067C36.9049 84.0942 36.9512 84.5826 36.9991 85.0725C37.4924 85.3549 38.1127 85.5792 38.8136 85.7247C38.7753 85.238 38.7394 84.752 38.705 84.2676Z" fill="#FFC873"/>
<path d="M41.6682 64.7043C41.511 65.0113 40.9346 64.8252 40.6895 64.8117C40.2584 64.7886 39.777 64.8284 39.3499 64.6216C38.9947 64.4498 38.8478 64.0116 39.1496 63.7507C39.5647 63.3904 42.172 63.7117 41.6682 64.7043Z" fill="#EB3333"/>
<path d="M40.0693 64.2033C40.1579 64.2104 40.2457 64.2168 40.3343 64.2239C40.498 64.2367 40.6417 64.1213 40.692 63.932C40.9905 62.7995 40.6728 61.4999 40.4198 60.4166C40.217 59.5552 40.0334 58.7464 40.2018 58.324C40.2545 58.1912 40.2521 58.021 40.1763 57.8842C40.0118 57.5859 39.7308 57.5987 39.6294 57.8452C39.3388 58.5475 39.5472 59.5234 39.7851 60.5637C40.0501 61.7353 40.3407 62.9514 39.9208 63.8843C39.8609 64.0148 39.944 64.1937 40.0693 64.2033Z" fill="#FFC194"/>
<path d="M32.5621 55.0312C29.7632 54.9947 27.4513 55.8847 27.441 57.0212C27.4362 63.4715 27.8401 69.9783 28.6528 76.4604C28.826 77.6622 30.9687 78.5856 33.3979 78.526C35.8088 78.4663 37.8357 77.4546 37.9203 76.2648C38.2572 69.8654 38.1957 63.466 37.7431 57.1214C37.6545 56.0024 35.3354 55.067 32.5621 55.0312Z" fill="#EB3333"/>
<path d="M37.9203 76.2648C38.175 71.4275 38.2021 66.5909 38.005 61.7791C36.7668 66.276 33.5784 72.6412 28.5067 75.2547C28.5538 75.6564 28.6025 76.0588 28.6528 76.4605C28.826 77.6622 30.9687 78.5856 33.3979 78.526C35.808 78.4663 37.8357 77.4547 37.9203 76.2648Z" fill="#DA3333"/>
<path d="M37.7431 57.1214C37.8285 58.2421 35.5757 59.1361 32.7074 59.1178C29.8127 59.0987 27.4345 58.1594 27.4409 57.0212C27.4505 55.8847 29.7632 54.9947 32.5621 55.0312C35.3362 55.067 37.6545 56.0024 37.7431 57.1214Z" fill="#F94848"/>
<path d="M32.7865 61.3424C29.8758 61.3337 27.4689 60.4007 27.4562 59.2594C27.4618 59.6714 27.4689 60.0826 27.4785 60.4946C27.5025 61.6375 29.9198 62.5673 32.8312 62.5697C35.7155 62.5728 38.0058 61.6622 37.9499 60.5383C37.93 60.1327 37.9084 59.7279 37.8853 59.323C37.9507 60.4461 35.67 61.3504 32.7865 61.3424Z" fill="#FFAF33"/>
<path d="M33.2902 75.5124C30.6989 75.5633 28.4516 74.6741 28.3127 73.5249C28.3567 73.94 28.403 74.3544 28.4501 74.7696C28.6009 75.9197 30.8051 76.8049 33.3349 76.75C35.844 76.6951 37.9331 75.7304 37.9994 74.5938C38.0162 74.1842 38.0321 73.7746 38.0457 73.365C37.9898 74.5 35.8607 75.4615 33.2902 75.5124Z" fill="#FFAF33"/>
<path d="M28.4971 61.6971C28.9729 61.9532 29.59 62.1664 30.3037 62.3175C30.2893 61.9063 30.2757 61.4959 30.2629 61.0855C29.5509 60.9328 28.9354 60.7188 28.4628 60.4619C28.4731 60.8731 28.4843 61.2851 28.4971 61.6971Z" fill="#FFC873"/>
<path d="M31.015 75.3056C30.3667 75.1664 29.7952 74.9636 29.3441 74.7155C29.3856 75.1298 29.4279 75.5442 29.4718 75.9578C29.9157 76.2051 30.4753 76.4072 31.11 76.5456C31.078 76.1328 31.0461 75.7192 31.015 75.3056Z" fill="#FFC873"/>
<path d="M33.9487 57.4675C33.7899 57.7737 33.2231 57.6297 32.982 57.6329C32.5605 57.6369 32.0895 57.7053 31.6752 57.5335C31.3311 57.3911 31.1906 56.9807 31.4836 56.7103C31.8907 56.3349 34.4612 56.4693 33.9487 57.4675Z" fill="#EB3333"/>
<path d="M32.3793 57.0857C32.4656 57.0865 32.5526 57.0873 32.6388 57.0881C32.7992 57.0896 32.9413 56.9695 32.9916 56.7826C33.2958 55.6612 32.9916 54.4125 32.7482 53.3658C32.5526 52.5307 32.3761 51.7433 32.5454 51.3066C32.5989 51.169 32.5973 50.9988 32.523 50.8684C32.361 50.5845 32.0816 50.625 31.9794 50.8811C31.6888 51.6073 31.89 52.5561 32.1191 53.5623C32.3737 54.6901 32.6516 55.8545 32.2348 56.7866C32.1774 56.9178 32.2572 57.0849 32.3793 57.0857Z" fill="#FFC194"/>
<path d="M25.5234 47.9326C22.8211 47.0744 20.3623 47.2995 20.0901 48.4592C18.5837 55.1091 17.4509 62.0223 16.7205 69.1089C16.6071 70.4379 18.5334 72.0032 20.969 72.5917C23.3703 73.1723 25.5968 72.6387 25.9497 71.4051C27.7171 64.7917 29.0782 58.1585 30.0354 51.5547C30.1959 50.395 28.1833 48.7773 25.5234 47.9326Z" fill="#EB3333"/>
<path d="M25.9497 71.4051C27.2884 66.3968 28.3925 61.3797 29.2658 56.3754C27.0745 60.6567 22.513 66.4143 16.8618 67.7871C16.8131 68.2277 16.766 68.6683 16.7205 69.1098C16.6071 70.4388 18.5334 72.004 20.969 72.5926C23.3703 73.1724 25.5976 72.6387 25.9497 71.4051Z" fill="#DA3333"/>
<path d="M30.0362 51.554C29.8733 52.716 27.5143 52.9832 24.7466 52.1401C21.9334 51.2827 19.821 49.6244 20.0909 48.4592C20.3631 47.2988 22.8219 47.0737 25.5241 47.9327C28.1833 48.7782 30.195 50.3951 30.0362 51.554Z" fill="#F94848"/>
<path d="M24.3203 54.4443C21.4816 53.5996 19.3333 51.9405 19.5856 50.761C19.4954 51.1865 19.4068 51.6128 19.3197 52.0407C19.0771 53.2282 21.2389 54.8865 24.084 55.7208C26.8829 56.5424 29.2906 56.2553 29.4838 55.0909C29.5532 54.6717 29.6219 54.2526 29.6881 53.8326C29.5069 54.997 27.1128 55.2754 24.3203 54.4443Z" fill="#FFAF33"/>
<path d="M21.5654 69.3651C18.9797 68.7145 16.9464 67.1556 17.0813 65.8973C17.0262 66.3491 16.9735 66.8017 16.9225 67.255C16.7987 68.518 18.7929 70.061 21.3219 70.6869C23.8134 71.3033 26.0846 70.8444 26.4063 69.6657C26.5157 69.2402 26.6227 68.8147 26.7288 68.3884C26.4175 69.5655 24.1128 70.0053 21.5654 69.3651Z" fill="#FFAF33"/>
<path d="M20.0447 53.5773C20.4526 53.979 21.0106 54.3767 21.6756 54.7386C21.7562 54.3099 21.8377 53.8828 21.9191 53.4557C21.2573 53.093 20.7025 52.6945 20.2977 52.2928C20.2115 52.72 20.1277 53.1479 20.0447 53.5773Z" fill="#FFC873"/>
<path d="M19.3549 68.5268C18.7418 68.2023 18.2197 67.8308 17.8285 67.4435C17.7711 67.8944 17.7152 68.3462 17.6609 68.798C18.0457 69.1821 18.5566 69.5496 19.1569 69.8685C19.2232 69.4215 19.2886 68.9737 19.3549 68.5268Z" fill="#FFC873"/>
<path d="M26.3177 50.8135C26.0958 51.0799 25.5808 50.7697 25.3469 50.7021C24.9374 50.5844 24.4664 50.5168 24.1032 50.2217C23.8014 49.9768 23.7575 49.5163 24.104 49.3262C24.5822 49.0621 27.033 49.9465 26.3177 50.8135Z" fill="#EB3333"/>
<path d="M24.8864 49.9696C24.9702 49.9958 25.0532 50.0213 25.137 50.0475C25.2919 50.096 25.4564 50.0141 25.5466 49.8391C26.091 48.7877 26.0758 47.4316 26.075 46.3006C26.0726 45.3995 26.0782 44.5516 26.3385 44.1619C26.4199 44.0394 26.4566 43.8668 26.4143 43.7141C26.3217 43.3809 26.0439 43.3379 25.889 43.5654C25.4476 44.2112 25.4292 45.2293 25.426 46.3141C25.4196 47.5326 25.4268 48.7956 24.8145 49.6236C24.7283 49.7389 24.7682 49.933 24.8864 49.9696Z" fill="#FFC194"/>
<path d="M29.4167 42.5537C30.0825 39.8615 31.6416 37.9431 32.871 38.3471C39.6238 40.6186 45.9767 43.1646 51.8619 45.93C52.9116 46.4462 53.1288 48.5658 52.3784 50.613C51.6415 52.6213 50.1647 54.0354 49.0638 53.7857C43.011 52.3063 36.7699 50.4055 30.3627 48.0663C29.1987 47.6329 28.7677 45.1808 29.4167 42.5537Z" fill="#EB3333"/>
<path d="M49.0629 53.7857C44.5134 52.6738 39.8609 51.3248 35.1157 49.7317C39.9295 49.9767 46.9123 49.07 50.7897 45.4313C51.1489 45.5967 51.5065 45.7629 51.8618 45.93C52.9116 46.4461 53.1287 48.5658 52.3783 50.613C51.6415 52.6213 50.1638 54.0354 49.0629 53.7857Z" fill="#DA3333"/>
<path d="M30.3619 48.0663C31.5163 48.4934 33.0155 46.7198 33.7284 44.0673C34.4596 41.348 34.0892 38.7512 32.8702 38.3471C31.6408 37.9431 30.0817 39.8615 29.4159 42.5537C28.7677 45.1808 29.1988 47.6329 30.3619 48.0663Z" fill="#F94848"/>
<path d="M36.0155 44.8698C36.773 42.1704 36.4441 39.5807 35.2491 39.1639C35.681 39.3159 36.1113 39.4686 36.5399 39.6221C37.7214 40.0452 38.0296 42.6253 37.26 45.3064C36.5096 47.9224 34.9976 49.6968 33.864 49.3063C33.4529 49.1647 33.0402 49.0215 32.6274 48.8768C33.7682 49.2808 35.2762 47.5032 36.0155 44.8698Z" fill="#FFAF33"/>
<path d="M49.6648 49.661C50.4464 47.4412 50.2644 45.2038 49.2274 44.7211C49.605 44.8905 49.9802 45.0599 50.3538 45.2309C51.3772 45.7184 51.5568 47.9017 50.7865 50.0539C50.0313 52.1624 48.572 53.6513 47.511 53.3976C47.1286 53.2997 46.7454 53.2011 46.3615 53.1001C47.428 53.3658 48.8993 51.8355 49.6648 49.661Z" fill="#FFAF33"/>
<path d="M37.5154 41.0036C37.6519 41.5365 37.7054 42.1855 37.6711 42.8997C37.2536 42.7494 36.8337 42.5991 36.413 42.4488C36.4433 41.7313 36.3842 41.0792 36.2429 40.5447C36.6684 40.6974 37.0931 40.8501 37.5154 41.0036Z" fill="#FFC873"/>
<path d="M50.1183 47.6384C50.1742 47.0324 50.1494 46.4732 50.0472 46.0016C50.4208 46.1646 50.7929 46.3285 51.1625 46.4923C51.2631 46.9528 51.2878 47.4992 51.2327 48.0886C50.8623 47.9383 50.4911 47.7887 50.1183 47.6384Z" fill="#FFC873"/>
<path d="M31.675 44.6773C32.039 44.6304 32.0311 44.0546 32.0949 43.8303C32.2067 43.4366 32.3991 43.0182 32.3232 42.5705C32.2602 42.1974 31.8586 41.923 31.4946 42.1084C30.9893 42.3645 30.4863 44.8261 31.675 44.6773Z" fill="#EB3333"/>
<path d="M31.6679 43.0811C31.6471 43.163 31.6256 43.2441 31.6048 43.326C31.5657 43.4771 31.402 43.5702 31.1905 43.5551C29.914 43.4636 28.6399 42.751 27.5574 42.1584C26.6865 41.6796 25.857 41.2327 25.3293 41.2422C25.1633 41.2454 24.9725 41.1833 24.8456 41.0656C24.5669 40.8071 24.6795 40.5494 24.9908 40.5415C25.8738 40.5184 26.878 41.0505 27.9286 41.6248C29.0957 42.2595 30.2836 42.922 31.3869 42.8448C31.5394 42.8337 31.6974 42.9657 31.6679 43.0811Z" fill="#FFC194"/>
<path d="M38.1749 52.8091C38.3417 49.9378 39.4147 47.555 40.5762 47.5971C47.365 47.8978 54.5202 48.6748 61.9365 49.9569C63.3455 50.2273 64.0224 52.7128 63.4628 55.4027C62.92 58.0099 61.3649 60.0611 59.9918 60.0317C52.8629 59.7612 46.1492 59.1106 39.8402 58.1141C38.7561 57.9351 38.0128 55.588 38.1749 52.8091Z" fill="#EB3333"/>
<path d="M59.991 60.0317C54.5665 59.8257 49.3879 59.4001 44.4496 58.771C49.2322 57.9224 56.6253 55.1251 60.5291 49.7191C60.9969 49.7963 61.4663 49.8758 61.9357 49.9569C63.3447 50.2273 64.0217 52.7128 63.462 55.4027C62.9192 58.0107 61.3641 60.0611 59.991 60.0317Z" fill="#DA3333"/>
<path d="M39.8394 58.1149C40.933 58.2931 42.0155 56.1361 42.2542 53.2283C42.5017 50.2179 41.7497 47.6433 40.5762 47.598C39.4147 47.5558 38.3417 49.9387 38.1749 52.8099C38.0128 55.5881 38.7561 57.9352 39.8394 58.1149Z" fill="#F94848"/>
<path d="M44.527 53.4613C44.8184 50.4127 44.0848 47.7864 42.8897 47.718C43.3192 47.7435 43.7511 47.7713 44.1837 47.8007C45.3916 47.8819 46.1141 50.5304 45.7987 53.5925C45.4946 56.5488 44.3322 58.7631 43.2058 58.6096C42.8019 58.5547 42.3995 58.499 41.9988 58.441C43.1124 58.6024 44.246 56.4049 44.527 53.4613Z" fill="#FFAF33"/>
<path d="M59.9544 55.0432C60.486 52.2014 59.8538 49.6245 58.5294 49.401C59.0068 49.4742 59.4858 49.5497 59.9655 49.6277C61.2995 49.8655 61.9294 52.405 61.3841 55.1904C60.8564 57.8866 59.3828 59.9935 58.0927 59.9506C57.6321 59.9283 57.1731 59.9044 56.7164 59.8798C57.9905 59.9323 59.4403 57.7936 59.9544 55.0432Z" fill="#FFAF33"/>
<path d="M45.3477 48.9596C45.5673 49.4837 45.7253 50.1566 45.8076 50.9249C45.3765 50.8851 44.9462 50.8462 44.5183 50.8088C44.4321 50.0452 44.2708 49.3779 44.0497 48.8594C44.4808 48.8904 44.9135 48.9238 45.3477 48.9596Z" fill="#FFC873"/>
<path d="M60.1259 52.5339C60.082 51.8038 59.9479 51.1532 59.7388 50.6322C60.2186 50.7046 60.6991 50.7778 61.1805 50.8533C61.3897 51.3679 61.5222 52.009 61.5645 52.7264C61.0839 52.6619 60.6041 52.5975 60.1259 52.5339Z" fill="#FFC873"/>
<path d="M40.4845 54.3767C40.8038 54.2375 40.7072 53.6537 40.7296 53.4087C40.7695 52.9784 40.8773 52.5012 40.7391 52.0646C40.6242 51.7011 40.2218 51.5309 39.9265 51.8164C39.5185 52.2093 39.4531 54.8205 40.4845 54.3767Z" fill="#EB3333"/>
<path d="M40.2314 52.7573C40.225 52.8456 40.2186 52.9339 40.213 53.0222C40.2018 53.186 40.0701 53.322 39.8793 53.361C38.7433 53.5933 37.5379 53.2035 36.532 52.8902C35.7345 52.6404 34.9849 52.413 34.5562 52.5553C34.4213 52.5999 34.2584 52.5879 34.1387 52.5052C33.8769 52.3255 33.9295 52.0487 34.1794 51.962C34.8939 51.7138 35.7992 51.9739 36.7643 52.2682C37.8532 52.5975 38.9828 52.9546 39.944 52.5903C40.0789 52.5394 40.2402 52.6325 40.2314 52.7573Z" fill="#FFC194"/>
<path d="M46.2746 61.4537C47.2142 58.8442 48.9625 57.0952 50.144 57.6225C56.6271 60.5725 62.6846 63.7547 68.2536 67.1071C69.2451 67.7275 69.2427 69.8582 68.2847 71.818C67.3451 73.7403 65.7301 74.9954 64.6604 74.6351C58.7921 72.5449 52.7792 70.0157 46.6474 67.0339C45.5346 66.4835 45.3582 64.0004 46.2746 61.4537Z" fill="#EB3333"/>
<path d="M64.6604 74.635C60.2489 73.0634 55.7608 71.246 51.2041 69.1765C55.9676 69.9122 63.0071 69.7245 67.2381 66.501C67.5782 66.7022 67.9166 66.9042 68.2535 67.107C69.245 67.7274 69.2426 69.8582 68.2847 71.8179C67.3451 73.7403 65.7301 74.9961 64.6604 74.635Z" fill="#DA3333"/>
<path d="M46.6475 67.0339C47.7523 67.5771 49.4256 65.9657 50.4083 63.4007C51.4158 60.7705 51.3152 58.1498 50.1441 57.6233C48.9626 57.0951 47.2143 58.8441 46.2747 61.4545C45.359 64.0004 45.5346 66.4835 46.6475 67.0339Z" fill="#F94848"/>
<path d="M52.6004 64.4323C53.6318 61.8251 53.5712 59.2148 52.4256 58.6787C52.8399 58.8736 53.2519 59.0692 53.6622 59.2665C54.7942 59.8081 54.8349 62.4057 53.7931 64.9946C52.7769 67.5198 51.09 69.1304 50.0027 68.6262C49.6084 68.4433 49.2132 68.2587 48.8173 68.0726C49.9109 68.5904 51.5946 66.9758 52.6004 64.4323Z" fill="#FFAF33"/>
<path d="M65.6846 70.594C66.6913 68.4656 66.7408 66.2219 65.7581 65.6357C66.1157 65.8425 66.4718 66.0501 66.8262 66.2585C67.7946 66.8479 67.7483 69.0383 66.76 71.1006C65.7916 73.1208 64.187 74.453 63.158 74.0919C62.7876 73.9559 62.4164 73.8183 62.0452 73.6783C63.0774 74.0506 64.6987 72.6786 65.6846 70.594Z" fill="#FFAF33"/>
<path d="M54.4907 60.7403C54.5714 61.2843 54.5586 61.9357 54.45 62.642C54.0501 62.4495 53.6485 62.257 53.2454 62.0646C53.3491 61.3535 53.3579 60.6997 53.2725 60.1533C53.6804 60.3482 54.086 60.5438 54.4907 60.7403Z" fill="#FFC873"/>
<path d="M66.3431 68.6278C66.4613 68.0313 66.494 67.4714 66.4413 66.9926C66.7958 67.193 67.1486 67.3934 67.4999 67.5946C67.5526 68.0631 67.5214 68.6095 67.4057 69.1901C67.0528 69.0032 66.6992 68.8155 66.3431 68.6278Z" fill="#FFC873"/>
<path d="M48.3031 63.7968C48.6703 63.7873 48.7214 63.2138 48.8076 62.9967C48.9593 62.6165 49.1932 62.2196 49.1644 61.7663C49.1405 61.3885 48.7685 61.0751 48.3877 61.2222C47.8592 61.4259 47.1048 63.8231 48.3031 63.7968Z" fill="#EB3333"/>
<path d="M48.4596 62.2085C48.43 62.2872 48.4005 62.3668 48.3718 62.4455C48.3175 62.5918 48.145 62.6674 47.9359 62.6308C46.6754 62.4097 45.4811 61.5706 44.4656 60.8699C43.649 60.3052 42.869 59.7747 42.3437 59.731C42.1777 59.7166 41.9949 59.6363 41.8807 59.5051C41.6301 59.2195 41.7682 58.9746 42.0795 58.9984C42.96 59.066 43.9036 59.6976 44.8903 60.376C45.9856 61.1268 47.0993 61.907 48.2049 61.9436C48.3582 61.9492 48.5011 62.0963 48.4596 62.2085Z" fill="#FFC194"/>
<path d="M42.7812 15.4419C34.8061 8.06896 27.0258 3.51636 20.1093 0.270531C19.0292 -0.235313 17.6904 -0.0157955 16.8282 0.805804C10.4801 6.85685 5.00372 14.2743 0.312077 22.5324C-0.235561 23.4972 -0.051152 24.6894 0.774297 25.4896C7.04419 31.5629 15.0001 36.4479 23.617 40.6204C24.6237 41.1079 25.8228 40.9075 26.6083 40.1137C32.5676 34.0937 38.171 26.9117 43.166 18.5143C43.7767 17.4851 43.6282 16.2269 42.7812 15.4419Z" fill="#EB3333"/>
<path d="M43.1651 18.515C43.7766 17.4858 43.6273 16.2268 42.7803 15.4425C39.4865 12.3971 36.2262 9.8345 33.0466 7.6449C30.7139 15.4059 25.295 25.7583 12.8175 34.7227C16.2351 36.8502 19.8634 38.8028 23.6162 40.621C24.6229 41.1086 25.8219 40.9081 26.6074 40.1144C32.5668 34.0935 38.1709 26.9115 43.1651 18.515Z" fill="#DA3333"/>
<path d="M24.4553 38.8839C24.1097 38.8839 23.7616 38.8068 23.4407 38.6469C14.9068 34.4005 8.20501 29.9991 2.95295 25.1904C2.17221 24.4761 1.9854 23.3618 2.49951 22.4814C6.99717 14.7895 11.9946 8.16265 17.3528 2.78448C18.104 2.03128 19.2887 1.83006 20.2339 2.29534C27.8322 6.02872 34.502 10.5018 40.6226 15.969C41.397 16.661 41.5542 17.8214 40.9978 18.7297C36.5944 25.9197 31.5858 32.4654 26.111 38.1856C25.6735 38.6421 25.0676 38.8839 24.4553 38.8839ZM19.1522 3.19091C18.7913 3.19091 18.4265 3.33009 18.1679 3.59017C12.8775 8.89995 7.93997 15.4489 3.49181 23.0572C3.24752 23.4756 3.34332 23.9941 3.7297 24.3481C8.90193 29.0836 15.5167 33.4262 23.9532 37.6241C24.3947 37.8444 24.9407 37.7506 25.2792 37.3966C30.6989 31.7353 35.6572 25.254 40.0175 18.134C40.2897 17.6894 40.2235 17.1493 39.8555 16.8209C33.8139 11.4236 27.2294 7.0078 19.7254 3.32135C19.5481 3.23386 19.3502 3.19091 19.1522 3.19091Z" fill="#FFAF33"/>
<path d="M56.2016 72.7835C55.8008 72.6944 55.4264 73.1549 55.0736 73.4452C54.4341 74.0632 53.6255 74.5555 52.7385 74.6987C51.7399 74.9325 50.334 74.5961 49.5357 74.6502C49.2986 74.6692 49.0552 74.7265 48.9019 74.9079C48.561 75.3986 48.8524 76.1542 48.9482 76.7228C49.3194 78.1338 49.1238 79.4597 48.023 80.3807C47.5998 80.8348 46.5676 81.2858 46.6004 81.895C46.7465 82.2959 47.3699 82.5297 47.8106 82.7842C48.6903 83.2145 49.4942 83.85 49.9517 84.701C50.5831 85.6483 50.5783 87.2867 51.0741 87.8411C51.5602 88.1799 52.2284 87.3877 52.6467 87.126C54.6345 85.486 56.841 85.0796 59.3956 85.9935C59.6662 86.0436 59.8515 86.1287 60.0638 86.0022C60.2402 85.8169 60.0957 85.4335 60.0223 85.1464C59.5537 83.854 59.2328 82.1877 60.3185 81.1132C60.8581 80.5 61.8041 80.0331 62.161 79.68C62.5106 79.3706 62.3206 79.0922 61.8967 78.8926C59.8714 78.0885 57.9587 76.9678 57.1484 74.6263C56.8826 74.0505 56.7237 73.0976 56.224 72.7922C56.216 72.789 56.2088 72.7866 56.2016 72.7835Z" fill="#FF3B3B"/>
<path d="M55.2539 76.3642C55.032 76.3149 54.8284 76.567 54.636 76.7269C54.2872 77.0665 53.8433 77.3361 53.3555 77.4133C52.8063 77.5405 52.0327 77.3496 51.5953 77.3759C51.4652 77.3854 51.3318 77.4156 51.2488 77.5159C51.0636 77.7863 51.2249 78.2062 51.2784 78.5212C51.4843 79.3046 51.3757 80.0411 50.7682 80.5501C50.5343 80.8015 49.9659 81.0496 49.9819 81.3892C50.0593 81.6143 50.4002 81.7471 50.6421 81.8903C51.1227 82.1345 51.5625 82.4908 51.8092 82.968C52.1517 83.4993 52.1317 84.4203 52.3992 84.7329C52.665 84.9238 53.0474 84.4768 53.2837 84.3297C54.4101 83.4055 55.6403 83.1772 57.0892 83.6687C57.2425 83.695 57.3479 83.7403 57.4692 83.6687C57.5706 83.5637 57.4884 83.3522 57.4469 83.1923C57.1818 82.4765 56.9982 81.5523 57.6049 80.9542C57.9067 80.613 58.4384 80.3497 58.6363 80.1533C58.8319 79.9807 58.721 79.8295 58.4807 79.7206C57.3295 79.2887 56.2582 78.6707 55.792 77.3799C55.6411 77.0625 55.5453 76.5368 55.2667 76.3682C55.2611 76.3666 55.2571 76.3658 55.2539 76.3642Z" fill="#FFB133"/>
<path d="M65.3932 84.814C65.311 84.814 65.2272 84.7973 65.1466 84.7623C64.6149 84.5292 64.0609 84.2906 63.5004 84.0544C63.1891 83.9232 63.0438 83.5653 63.1755 83.2543C63.3073 82.9441 63.6665 82.7985 63.9786 82.9306C64.5438 83.1692 65.1034 83.4094 65.6399 83.6448C65.9497 83.7808 66.0902 84.1403 65.9536 84.4489C65.8531 84.678 65.6287 84.814 65.3932 84.814Z" fill="#FFC533"/>
<path d="M60.8373 75.1402C60.6672 75.1402 60.4988 75.0702 60.3774 74.9334C60.1539 74.6805 60.1779 74.2947 60.4317 74.072C60.9179 73.6449 61.4057 73.217 61.8942 72.7891C62.1481 72.5664 62.5353 72.5911 62.7588 72.844C62.9823 73.0969 62.9576 73.4827 62.7037 73.7054C62.2151 74.1333 61.7282 74.5612 61.242 74.9883C61.1255 75.0901 60.981 75.1402 60.8373 75.1402Z" fill="#FFC533"/>
<path d="M57.1995 92C56.9361 92 56.6934 91.8298 56.6135 91.5658C56.3685 90.7561 56.121 89.917 55.8775 89.0715C55.7841 88.7478 55.9717 88.4098 56.2974 88.3167C56.6223 88.2237 56.9616 88.4106 57.055 88.7351C57.2969 89.5758 57.5436 90.4101 57.7862 91.2142C57.8836 91.5371 57.7 91.8775 57.3767 91.9746C57.3176 91.9913 57.2578 92 57.1995 92Z" fill="#FFC533"/>
<path d="M45.1275 88.7128C44.9239 88.7128 44.7251 88.6118 44.6086 88.4281C44.4282 88.1434 44.5136 87.7664 44.8002 87.5866L46.4383 86.5574C46.7241 86.3777 47.1025 86.4628 47.2829 86.7483C47.4633 87.0331 47.3779 87.4101 47.0913 87.5898L45.4532 88.619C45.3526 88.6826 45.2392 88.7128 45.1275 88.7128Z" fill="#FFC533"/>
<path d="M44.5495 78.4719C44.4633 78.4719 44.3762 78.4536 44.2924 78.4154C43.6833 78.1347 43.0726 77.8555 42.4603 77.5763C42.153 77.4364 42.0173 77.0745 42.1578 76.7675C42.2983 76.4613 42.6615 76.326 42.9696 76.466C43.5835 76.746 44.1958 77.026 44.8065 77.3075C45.1131 77.4491 45.2472 77.8118 45.1051 78.1172C45.0021 78.3407 44.781 78.4719 44.5495 78.4719Z" fill="#FFC533"/>
<path d="M64.9286 79.6998C64.6492 79.6998 64.3961 79.5074 64.3323 79.2242C64.2572 78.8957 64.464 78.5688 64.7945 78.4941L65.1042 78.4241C65.4339 78.3501 65.762 78.5561 65.8363 78.8846C65.9105 79.2131 65.7038 79.54 65.3741 79.6139L65.0651 79.6839C65.0188 79.6951 64.9733 79.6998 64.9286 79.6998Z" fill="#FFC533"/>
<path d="M56.837 70.3561C56.8051 70.3561 56.7731 70.3537 56.7404 70.3481C56.4067 70.2956 56.1784 69.9831 56.2311 69.6506L56.2854 69.3118C56.3388 68.9793 56.6534 68.7527 56.9863 68.8052C57.32 68.8584 57.5483 69.171 57.4948 69.5035L57.4413 69.8407C57.3934 70.1413 57.1332 70.3561 56.837 70.3561Z" fill="#FFC533"/>
<path d="M62.4004 88.949C62.1449 88.949 61.9062 88.7883 61.82 88.5338L61.7745 88.4002C61.666 88.0813 61.8376 87.7345 62.1577 87.6263C62.4778 87.5182 62.8259 87.6892 62.9345 88.0081L62.9808 88.1433C63.0893 88.4622 62.9169 88.809 62.5968 88.9164C62.5313 88.9387 62.4651 88.949 62.4004 88.949Z" fill="#FFC533"/>
<path d="M50.524 90.9955C50.4681 90.9955 50.4114 90.9875 50.3547 90.9716C50.0298 90.8785 49.8414 90.5405 49.9348 90.2168C49.9612 90.1269 49.9867 90.0363 50.013 89.9464C50.1072 89.6227 50.4465 89.4366 50.7714 89.5304C51.0963 89.6243 51.2832 89.9623 51.189 90.286L51.1115 90.5532C51.0357 90.8213 50.7906 90.9955 50.524 90.9955Z" fill="#FFC533"/>
<path d="M42.9257 83.2472C42.5944 83.2472 42.3214 82.9839 42.3134 82.6515C42.3054 82.3142 42.5729 82.0351 42.9113 82.0271L43.36 82.0168C43.7009 82.0088 43.9819 82.2761 43.9891 82.6133C43.9962 82.9505 43.732 83.2297 43.3935 83.2369L42.9401 83.2472C42.9353 83.2472 42.9305 83.2472 42.9257 83.2472Z" fill="#FFC533"/>
<path d="M27.2459 17.0343C27.6843 17.5406 27.9035 17.9387 27.9035 18.2286C27.8384 18.4795 27.7928 19.0853 27.7668 20.0459C27.7841 20.1541 27.8753 20.2493 28.0402 20.3315C30.4274 20.4267 32.0897 20.5392 33.0272 20.669H33.216V20.7859L30.9959 21.026L31.2824 21.013C31.4083 21.013 31.5016 21.0866 31.5623 21.2337C31.5623 21.3246 31.328 21.4219 30.8592 21.5258C30.8592 21.7162 30.499 21.846 29.7785 21.9152C29.2794 22.2917 28.7498 22.4799 28.1899 22.4799C28.0033 22.4799 27.8449 22.5578 27.7147 22.7135L27.6691 24.9852V26.8545C27.6691 27.6377 27.732 28.2998 27.8579 28.8406V29.2431C27.6452 29.8099 27.4738 30.0933 27.3436 30.0933C27.2177 30.0933 27.1049 29.8856 27.005 29.4702L27.0571 26.1146V25.3812L27.1027 24.135H27.0571C26.966 24.2172 26.7794 24.5937 26.4972 25.2643L26.1196 25.4396V25.3812L26.5428 24.4141C26.6904 24.029 26.8162 23.5379 26.9204 22.9407L26.4451 22.3176L26.3084 21.4609C26.3084 20.8594 26.4321 20.5587 26.6795 20.5587C27.0267 20.2644 27.2004 19.7517 27.2004 19.0204C27.2004 18.6699 27.1353 18.1961 27.005 17.599C27.005 17.348 27.0853 17.1598 27.2459 17.0343Z" fill="#FFEB33"/>
<path d="M30.1497 12.1728C30.4318 11.9478 30.6445 11.9219 30.7877 12.0949L30.9244 12.5038C31.2803 12.9712 31.0394 13.5856 30.2017 14.3472C29.1991 14.8794 28.0728 15.5869 26.8228 16.4696L24.733 18.1247H24.6288C24.5941 17.9689 24.8979 17.5816 25.5403 16.9629C27.9144 14.7344 29.4509 13.1378 30.1497 12.1728ZM23.7109 17.0732C23.6805 17.1035 23.6241 17.1186 23.5416 17.1186C23.5937 17.1186 23.6479 17.1251 23.7043 17.1381C23.7608 17.1468 23.8215 17.1511 23.8866 17.1511C23.9865 17.1511 24.0472 17.1554 24.0689 17.1641C24.3684 17.2073 24.4986 17.2182 24.4596 17.1965C24.5203 17.1965 24.5833 17.2117 24.6484 17.242C24.6874 17.242 24.7178 17.2484 24.7395 17.2614C24.9044 17.3134 25.0021 17.3436 25.0325 17.3523C25.0325 17.3523 25.1562 17.4172 25.4036 17.547C25.3645 17.5254 25.4643 17.5924 25.703 17.7482C25.7638 17.8218 25.8094 17.8391 25.8398 17.8001C25.8094 17.7352 25.7725 17.6768 25.7291 17.6249C25.46 17.3912 25.3428 17.2809 25.3775 17.2939C25.4079 17.3155 25.2734 17.2571 24.9739 17.1186C24.9609 17.1186 24.9457 17.1165 24.9283 17.1121C24.9153 17.1078 24.9044 17.1057 24.8958 17.1057C24.8133 17.084 24.6983 17.0624 24.5507 17.0407C24.4596 17.0407 24.3402 17.0299 24.1926 17.0083C24.1102 17.0299 24.0277 17.0407 23.9452 17.0407C23.8628 17.0407 23.7846 17.0516 23.7109 17.0732ZM26.0611 17.5146C26.0611 17.5362 26.0611 17.5557 26.0611 17.573C26.0611 17.586 26.0611 17.5968 26.0611 17.6054C26.1089 17.6487 26.1436 17.7028 26.1653 17.7677C26.1653 17.798 26.1913 17.8239 26.2434 17.8456C26.2217 17.8239 26.2022 17.772 26.1848 17.6898C26.276 17.7071 26.2347 17.6487 26.0611 17.5146ZM26.2434 17.8456C26.2651 18.0143 26.2912 18.1182 26.3215 18.1571C26.2998 18.1398 26.3259 18.2047 26.3997 18.3518C26.3997 18.2956 26.378 18.2155 26.3346 18.1117C26.3346 17.9646 26.3042 17.8759 26.2434 17.8456ZM22.858 21.5841C22.858 21.6058 22.8558 21.6253 22.8515 21.6426C22.8471 21.6555 22.845 21.662 22.845 21.662C22.8319 21.6837 22.8233 21.7031 22.8189 21.7204C22.8146 21.7334 22.8124 21.7442 22.8124 21.7529C22.8124 21.7745 22.8016 21.7962 22.7799 21.8178C22.7799 21.8481 22.7755 21.8632 22.7668 21.8632C22.7582 21.8979 22.743 21.9346 22.7213 21.9736C22.6996 22.0168 22.6887 22.045 22.6887 22.058C22.68 22.0753 22.6692 22.0947 22.6562 22.1164C22.6475 22.138 22.6431 22.1553 22.6431 22.1683C22.5997 22.2289 22.5694 22.2808 22.552 22.3241C22.539 22.3673 22.4956 22.4344 22.4218 22.5253C22.4044 22.5599 22.3871 22.5902 22.3697 22.6161C22.3567 22.6421 22.3437 22.6659 22.3306 22.6875C22.2916 22.7395 22.2547 22.7914 22.22 22.8433C22.1896 22.8952 22.1592 22.9363 22.1288 22.9666C22.055 23.0229 21.9878 23.1029 21.927 23.2068C21.94 23.2154 21.9661 23.2306 22.0051 23.2522C22.0051 23.2522 22.0116 23.2479 22.0247 23.2392C22.042 23.2263 22.0572 23.2154 22.0702 23.2068C22.1006 23.1852 22.1353 23.1635 22.1744 23.1419C22.2178 23.1202 22.259 23.0943 22.2981 23.064C22.2677 23.0856 22.3306 23.0337 22.4869 22.9082C22.5911 22.813 22.6996 22.6335 22.8124 22.3695C22.782 22.4128 22.7929 22.3608 22.845 22.2137C22.845 22.2007 22.8471 22.1878 22.8515 22.1748C22.8558 22.1575 22.8645 22.138 22.8775 22.1164C22.8775 22.0947 22.8797 22.0774 22.884 22.0644C22.8884 22.0471 22.8905 22.0277 22.8905 22.006C22.9339 21.9238 22.9491 21.887 22.9361 21.8957C22.9361 21.8438 22.9361 21.7897 22.9361 21.7334C22.9361 21.6728 22.9361 21.6123 22.9361 21.5517C22.9057 21.5517 22.8797 21.5625 22.858 21.5841ZM24.0234 16.7097C24.1275 16.6967 24.2339 16.6967 24.3424 16.7097C24.4509 16.7184 24.5616 16.7076 24.6744 16.6773C24.861 16.6773 25.0021 16.6881 25.0976 16.7097C25.2017 16.753 25.3081 16.7855 25.4166 16.8071C25.5251 16.8244 25.6249 16.8698 25.7161 16.9434C25.881 17.1035 25.9743 17.1944 25.996 17.216C26.0568 17.2679 26.1045 17.3285 26.1392 17.3977C26.1783 17.4626 26.2282 17.5167 26.289 17.56C26.289 17.6249 26.3042 17.679 26.3346 17.7223C26.3693 17.7612 26.391 17.8066 26.3997 17.8586C26.4431 17.9321 26.4734 17.9689 26.4908 17.9689C26.4908 18.0338 26.5125 18.129 26.5559 18.2545C26.5646 18.2761 26.5733 18.2956 26.5819 18.3129C26.595 18.3259 26.6123 18.3389 26.634 18.3518C26.634 18.5725 26.6492 18.7283 26.6796 18.8192V18.9035C26.6492 18.9338 26.6492 18.9706 26.6796 19.0139V19.3124C26.6796 19.2995 26.6644 19.3665 26.634 19.5137C26.621 19.5483 26.6037 19.5807 26.5819 19.611C26.5646 19.6413 26.5559 19.6673 26.5559 19.6889C26.5038 19.9528 26.493 20.0221 26.5234 19.8966C26.5017 19.9485 26.4713 19.9788 26.4322 19.9875C26.4018 20.0221 26.3758 20.0589 26.3541 20.0978C26.3324 20.1324 26.3107 20.18 26.289 20.2406C26.2803 20.2536 26.2716 20.2644 26.2629 20.2731L26.2434 20.286C26.2347 20.3077 26.1935 20.3553 26.1197 20.4288L26.009 20.5911H25.8853V20.6495C25.855 20.6841 25.8202 20.7101 25.7812 20.7274L25.7291 20.7404L25.703 20.7469C25.703 20.8074 25.6922 20.8377 25.6705 20.8377C25.6271 20.8377 25.5967 20.8442 25.5793 20.8572C25.5793 20.9005 25.562 20.9221 25.5273 20.9221C25.4882 20.9394 25.4448 20.9524 25.3971 20.9611C25.3493 20.9654 25.3102 20.9719 25.2799 20.9805C25.2625 21.0022 25.1952 21.0389 25.078 21.0909C25.0477 21.1038 25.0216 21.1168 24.9999 21.1298C24.9826 21.1385 24.963 21.1428 24.9413 21.1428C24.9109 21.1601 24.8545 21.1796 24.7721 21.2012C24.7069 21.2228 24.644 21.2228 24.5833 21.2012L24.427 21.1233C24.3445 21.093 24.2881 21.0043 24.2577 20.8572C24.2273 20.762 24.2122 20.7101 24.2122 20.7014C24.2208 20.7101 24.21 20.682 24.1796 20.6171C24.1883 20.6603 24.1774 20.5608 24.1471 20.3185C24.1471 20.2882 24.1492 20.2493 24.1536 20.2017C24.1622 20.1541 24.1709 20.1043 24.1796 20.0524C24.1883 20.0437 24.1926 20.0286 24.1926 20.0069C24.2143 19.942 24.2317 19.8988 24.2447 19.8771V19.8187C24.2838 19.7452 24.3445 19.6802 24.427 19.624C24.4487 19.624 24.4726 19.6197 24.4986 19.611C24.5247 19.6024 24.5529 19.5915 24.5833 19.5786C24.5919 19.5786 24.6071 19.5742 24.6288 19.5656C24.6505 19.5526 24.6722 19.5418 24.6939 19.5331L24.9739 19.3903C25.23 19.2129 25.3992 19.0701 25.4817 18.962C25.5338 18.9317 25.5707 18.8906 25.5924 18.8386C25.6227 18.7002 25.6336 18.5833 25.6249 18.4881C25.5945 18.4276 25.5837 18.4016 25.5924 18.4103C25.5316 18.2761 25.3971 18.1182 25.1887 17.9364C25.128 17.8975 24.9977 17.8239 24.7981 17.7158C24.7807 17.7158 24.6787 17.6855 24.4921 17.6249C24.3576 17.5816 24.1145 17.5708 23.7629 17.5924C23.8237 17.5708 23.7391 17.5816 23.509 17.6249C23.4787 17.6336 23.4287 17.6379 23.3593 17.6379C23.3159 17.6595 23.279 17.6703 23.2486 17.6703C23.2877 17.6487 23.2464 17.6595 23.1249 17.7028C23.1032 17.7114 23.0663 17.7158 23.0142 17.7158C22.8797 17.759 22.7668 17.7872 22.6757 17.8001C22.654 17.8088 22.6345 17.8153 22.6171 17.8196C22.6041 17.8239 22.5911 17.8261 22.578 17.8261C22.5607 17.8391 22.5433 17.8477 22.526 17.8521C22.5086 17.8564 22.4956 17.8586 22.4869 17.8586L22.4348 17.865L22.4088 17.878C22.3871 17.8997 22.335 17.9191 22.2525 17.9364C22.2135 17.9364 22.1722 17.9473 22.1288 17.9689C22.0681 18.0035 22.042 18.0143 22.0507 18.0014C22.0116 18.023 21.9769 18.0338 21.9465 18.0338C21.9248 18.0425 21.9075 18.0511 21.8944 18.0598C21.8858 18.0641 21.8771 18.0663 21.8684 18.0663C21.8163 18.0879 21.7273 18.1355 21.6015 18.209L21.4908 18.3194C21.4517 18.3194 21.3649 18.3865 21.2304 18.5206C21.0828 18.7326 21.0155 18.8321 21.0286 18.8192C20.9982 18.8841 20.9569 18.9425 20.9049 18.9944V19.0593C20.8918 19.0809 20.881 19.0983 20.8723 19.1112C20.8636 19.1199 20.8593 19.1285 20.8593 19.1372C20.8463 19.1588 20.8333 19.1761 20.8202 19.1891C20.8116 19.1978 20.8072 19.2064 20.8072 19.2151C20.7768 19.267 20.7616 19.3146 20.7616 19.3579C20.6575 19.505 20.6054 19.6153 20.6054 19.6889C20.6054 19.7019 20.5967 19.717 20.5793 19.7343C20.5663 19.7473 20.5511 19.8685 20.5338 20.0978C20.5121 20.1411 20.5164 20.2146 20.5468 20.3185C20.5555 20.3401 20.5642 20.3574 20.5728 20.3704C20.5859 20.3791 20.5967 20.3834 20.6054 20.3834C20.6184 20.392 20.6249 20.4137 20.6249 20.4483C20.5945 20.405 20.6054 20.457 20.6575 20.6041C20.6748 20.6127 20.6944 20.6171 20.7161 20.6171C20.7378 20.6171 20.7638 20.6171 20.7942 20.6171C20.7551 20.6906 20.8484 20.6127 21.0741 20.3834C21.1045 20.3834 21.1306 20.3791 21.1523 20.3704C21.174 20.3574 21.2109 20.3509 21.2629 20.3509C21.2933 20.299 21.3606 20.2731 21.4648 20.2731C21.4951 20.2514 21.5451 20.2298 21.6145 20.2081C21.6796 20.1865 21.8879 20.1757 22.2395 20.1757C22.5911 20.2622 22.8341 20.4375 22.9687 20.7014C22.9687 20.7317 22.9839 20.7555 23.0142 20.7728C23.0446 20.7858 23.0663 20.8031 23.0793 20.8247C23.1488 20.9805 23.1835 21.0498 23.1835 21.0324C23.2486 21.2618 23.2855 21.4349 23.2942 21.5517V22.1358C23.2942 22.1748 23.2833 22.2267 23.2616 22.2916C23.253 22.3349 23.2356 22.3782 23.2096 22.4214C23.1835 22.4604 23.1705 22.5015 23.1705 22.5447L23.1444 22.5577L23.1249 22.5772V22.6356C23.0294 22.826 22.9925 22.8952 23.0142 22.8433L22.8775 22.9861C22.8862 23.0597 22.8537 23.0964 22.7799 23.0964C22.7495 23.1484 22.7408 23.1743 22.7538 23.1743C22.6583 23.2263 22.5802 23.3063 22.5194 23.4145C22.4891 23.4318 22.4565 23.4513 22.4218 23.4729C22.3914 23.4945 22.361 23.5118 22.3306 23.5248C22.3003 23.5421 22.2547 23.5616 22.1939 23.5832C22.1505 23.6049 22.1158 23.6352 22.0898 23.6741C22.0637 23.7087 22.0312 23.726 21.9921 23.726C21.9704 23.739 21.9335 23.7455 21.8814 23.7455C21.8076 23.8191 21.7512 23.8558 21.7122 23.8558C21.6905 23.8645 21.6731 23.871 21.6601 23.8753C21.6514 23.8796 21.6427 23.8818 21.634 23.8818C21.5906 23.9034 21.5537 23.9207 21.5234 23.9337C21.5017 23.9554 21.4821 23.9662 21.4648 23.9662C21.4517 23.9748 21.43 23.9792 21.3997 23.9792C21.391 23.9878 21.3801 23.9986 21.3671 24.0116L21.3541 24.0246C21.3237 24.0246 21.2977 24.0311 21.276 24.0441C21.2543 24.0527 21.2174 24.0571 21.1653 24.0571C21.0221 24.1003 20.8788 24.1003 20.7356 24.0571C20.6922 24.0571 20.6596 24.0527 20.6379 24.0441C20.7117 24.0441 20.6249 24.0008 20.3775 23.9143C20.3037 23.884 20.2039 23.7736 20.078 23.5832C20.026 23.5313 19.9695 23.4426 19.9088 23.3171C19.835 23.3171 19.7938 23.3431 19.7851 23.395C19.7851 23.408 19.7829 23.4231 19.7786 23.4404C19.7742 23.4534 19.7721 23.4642 19.7721 23.4729C19.759 23.5075 19.7525 23.6352 19.7525 23.8558L19.7655 23.8688L19.7721 23.8818C19.7721 23.9164 19.7764 23.9381 19.7851 23.9467C19.8285 24.0722 19.8393 24.1198 19.8176 24.0895C19.8393 24.1544 19.8502 24.202 19.8502 24.2323C19.95 24.44 20.0108 24.5547 20.0325 24.5763C20.0976 24.6499 20.154 24.7234 20.2017 24.797L20.345 24.8943C20.3667 24.8857 20.3927 24.8814 20.4231 24.8814C20.4535 24.9116 20.5924 24.9376 20.8398 24.9592C21.0481 24.916 21.1262 24.9052 21.0741 24.9268H21.289C21.2716 24.9354 21.3714 24.903 21.5885 24.8294C21.6058 24.8294 21.6232 24.8251 21.6405 24.8164C21.6579 24.8035 21.6818 24.7926 21.7122 24.784C21.7208 24.784 21.736 24.7818 21.7577 24.7775C21.7794 24.7689 21.799 24.7602 21.8163 24.7515C21.8684 24.7515 21.914 24.7342 21.953 24.6996C21.9964 24.6607 22.0442 24.6369 22.0963 24.6282C22.1397 24.6066 22.1918 24.5633 22.2525 24.4984C22.1918 24.4984 22.2438 24.4768 22.4088 24.4335C22.5954 24.321 22.6735 24.2691 22.6431 24.2777C22.7864 24.1522 22.8992 24.0635 22.9817 24.0116C23.0642 23.9381 23.1466 23.8537 23.2291 23.7585C23.2638 23.7282 23.2964 23.6914 23.3267 23.6481C23.3571 23.6049 23.3875 23.5638 23.4179 23.5248C23.47 23.4166 23.5004 23.3582 23.509 23.3496C23.509 23.3366 23.5112 23.3236 23.5155 23.3106C23.5242 23.2933 23.5329 23.2739 23.5416 23.2522C23.5416 23.2133 23.5481 23.183 23.5611 23.1614C23.5785 23.1181 23.5872 23.0921 23.5872 23.0835C23.6175 22.9666 23.6848 22.8974 23.789 22.8758C23.802 22.8758 23.8129 22.8736 23.8215 22.8693C23.8302 22.8606 23.8454 22.852 23.8671 22.8433C23.9496 22.7784 24.0017 22.7373 24.0234 22.72C24.0451 22.6984 24.0819 22.6335 24.134 22.5253C24.134 22.5166 24.1449 22.5015 24.1666 22.4798C24.1666 22.4496 24.1753 22.402 24.1926 22.3371C24.2056 22.3371 24.2208 22.3327 24.2382 22.3241C24.2599 22.3111 24.2816 22.3003 24.3033 22.2916C24.4075 22.2916 24.5116 22.3046 24.6158 22.3306C24.72 22.3565 24.822 22.3695 24.9218 22.3695C24.9435 22.4214 24.9869 22.4539 25.052 22.4669C25.0911 22.4885 25.1149 22.4993 25.1236 22.4993C25.2278 22.6032 25.1475 22.8887 24.8827 23.3561C24.6223 23.8234 24.3055 24.2626 23.9322 24.6737C23.776 24.7991 23.7022 24.8576 23.7109 24.8489C23.6197 24.9095 23.5351 24.9765 23.4569 25.0501C23.3788 25.1237 23.2942 25.1929 23.203 25.2578H23.1249C22.9773 25.353 22.7951 25.4266 22.578 25.4785L22.3502 25.5564C22.2634 25.578 22.1961 25.5932 22.1484 25.6018C22.1267 25.6148 22.1071 25.6234 22.0898 25.6278C22.0767 25.6321 22.0637 25.6343 22.0507 25.6343C22.029 25.6343 22.0095 25.6386 21.9921 25.6472C21.9791 25.6516 21.9639 25.6537 21.9465 25.6537C21.9031 25.671 21.8662 25.6797 21.8359 25.6797C21.8749 25.6624 21.8337 25.6732 21.7122 25.7121C21.6905 25.7121 21.6709 25.7143 21.6536 25.7186C21.6405 25.7273 21.6275 25.7316 21.6145 25.7316C21.4496 25.7835 21.3367 25.7944 21.276 25.7641C21.1414 25.7295 21.085 25.7186 21.1067 25.7316C20.8463 25.6883 20.7573 25.6819 20.8398 25.7121C20.7573 25.6905 20.6965 25.671 20.6575 25.6537C20.5533 25.6407 20.4079 25.5715 20.2213 25.446C19.9522 25.2556 19.7872 25.1237 19.7265 25.0501C19.7872 25.0934 19.7135 25.009 19.5051 24.797C19.3185 24.5027 19.2252 24.3405 19.2252 24.3102L19.1796 24.1674C19.1579 24.1241 19.1471 24.0982 19.1471 24.0895C19.1384 24.0679 19.134 24.0268 19.134 23.9662C19.1123 23.9445 19.1015 23.9164 19.1015 23.8818C19.1232 23.9467 19.1123 23.8948 19.0689 23.726C19.0602 23.7044 19.0559 23.6157 19.0559 23.4599C19.0559 23.3215 19.0602 23.2371 19.0689 23.2068C19.1037 23.0294 19.1145 22.9493 19.1015 22.9666C19.1015 22.9363 19.1058 22.9082 19.1145 22.8823C19.1275 22.8563 19.1384 22.8282 19.1471 22.7979C19.1774 22.733 19.1883 22.707 19.1796 22.72C19.1796 22.707 19.1818 22.694 19.1861 22.6811C19.1905 22.6637 19.1926 22.6486 19.1926 22.6356C19.2143 22.5967 19.2252 22.5707 19.2252 22.5577C19.2556 22.4972 19.2664 22.4712 19.2577 22.4798C19.2577 22.4712 19.2599 22.4625 19.2642 22.4539C19.2686 22.4409 19.2708 22.4236 19.2708 22.402C19.3142 22.2548 19.3359 22.1553 19.3359 22.1034L19.3033 22.0385L19.6288 21.8503C19.6505 21.8719 19.6766 21.8719 19.7069 21.8503C19.7069 21.82 19.7178 21.8048 19.7395 21.8048V21.7724L19.746 21.7529C19.7504 21.7442 19.759 21.7356 19.7721 21.7269C19.8024 21.662 19.9218 21.5149 20.1301 21.2856C20.1605 21.251 20.1909 21.2099 20.2213 21.1623C20.2517 21.1147 20.282 21.0757 20.3124 21.0454L20.1757 20.9481C20.1627 20.9611 20.1518 20.9675 20.1431 20.9675C20.0477 20.9373 19.9956 20.9156 19.9869 20.9026C19.8827 20.894 19.7959 20.8096 19.7265 20.6495C19.7048 20.6106 19.6939 20.5695 19.6939 20.5262C19.6809 20.5132 19.6722 20.4981 19.6679 20.4807C19.6635 20.4591 19.6614 20.4375 19.6614 20.4158C19.6397 20.3639 19.6397 20.312 19.6614 20.2601C19.7048 20.0697 19.7156 20.0004 19.6939 20.0524C19.6939 19.9875 19.7048 19.9464 19.7265 19.929C19.7265 19.8944 19.7352 19.8468 19.7525 19.7863C19.7742 19.7516 19.7959 19.704 19.8176 19.6435C19.848 19.5483 19.8589 19.5115 19.8502 19.5331L19.9088 19.4033C19.8871 19.4769 19.9392 19.3882 20.065 19.1372C20.0737 19.1069 20.0911 19.0766 20.1171 19.0463C20.1431 19.0117 20.167 18.9793 20.1887 18.949C20.2104 18.9187 20.3037 18.8019 20.4687 18.5985C20.5121 18.5466 20.562 18.5033 20.6184 18.4687C20.6748 18.4297 20.7291 18.38 20.7812 18.3194C20.8202 18.2761 20.868 18.2372 20.9244 18.2026C20.9808 18.1636 21.0351 18.1182 21.0872 18.0663C21.1002 18.0533 21.1371 18.0316 21.1978 18.0014L21.3866 17.8131C21.4257 17.7482 21.5082 17.6855 21.634 17.6249C21.7165 17.5384 21.8207 17.4583 21.9465 17.3847C22.0681 17.3025 22.1592 17.2463 22.22 17.216C22.2547 17.1814 22.2916 17.1641 22.3306 17.1641L22.6106 17.0213C22.6193 17.0213 22.6323 17.0191 22.6497 17.0148C22.667 17.0105 22.68 17.0083 22.6887 17.0083C22.8146 16.9347 22.9231 16.9023 23.0142 16.9109L23.1705 16.833C23.2009 16.8244 23.2573 16.8093 23.3398 16.7876C23.4743 16.7876 23.5785 16.7725 23.6523 16.7422C23.713 16.7292 23.7738 16.727 23.8346 16.7357C23.8997 16.74 23.9626 16.7314 24.0234 16.7097Z" fill="#FFEB33"/>
<path d="M23.4179 11.2188C23.4873 11.2447 23.5242 11.2707 23.5286 11.2966L23.5155 11.3226H23.3984L23.3072 11.2966V11.2772C23.3072 11.2469 23.3441 11.2274 23.4179 11.2188ZM22.8645 11.2317L22.8971 11.2772L22.832 11.3226H22.8124C22.7386 11.3226 22.6996 11.301 22.6952 11.2577L22.7148 11.2317H22.8645ZM21.6601 11.2966H21.6731L21.7187 11.3356C21.7187 11.3875 21.4517 11.4394 20.9179 11.4914C20.8441 11.5303 20.7464 11.5498 20.6249 11.5498H20.4752L20.4296 11.5822V11.5952H20.4752V11.6212L20.4947 11.5952H20.6575L20.7747 11.6212V11.6341C20.7747 11.6731 20.6596 11.7077 20.4296 11.738C20.4296 11.7553 20.1779 11.8051 19.6744 11.8873L19.2317 11.9976C18.3853 12.2659 17.9318 12.439 17.871 12.5169H17.884C18.7347 12.2399 19.5659 12.0236 20.3775 11.8678C20.6987 11.8245 20.9982 11.7769 21.276 11.725L21.4062 11.738H21.4192L21.7187 11.6861L21.8163 11.6991L22.6041 11.6601L22.6236 11.6861H22.6366L23.0533 11.6341L24.1731 11.725V11.751L23.0859 11.7899L22.7668 11.764L22.6952 11.8029L22.5846 11.7899H22.4543L22.1223 11.8029L22.0116 11.7899L21.9921 11.8029V11.8418H22.246C23.2443 11.8592 23.7434 11.8808 23.7434 11.9068L23.7629 11.8873H23.7825L23.9257 11.9068L24.2317 11.8678L24.2447 11.8873V11.9522L24.2122 11.9846H23.828L23.6588 11.9522H23.3528L22.7668 11.9846L22.6366 11.9652C21.9379 12.0257 21.4843 12.0928 21.276 12.1664L21.2174 12.2313H21.2434L21.4583 12.1988L21.6601 12.2118L23.0208 12.1015L23.0533 12.1144L23.1445 12.1015H23.1965L23.3528 12.1339L23.6458 12.1015L25.1497 12.2313C25.1714 12.2529 25.4383 12.3005 25.9504 12.3741C26.0937 12.4044 26.1653 12.4303 26.1653 12.452L26.1132 12.5039L25.1952 12.3741L25.1822 12.3871H25.1236L24.7265 12.4065C24.6397 12.3416 24.4791 12.3092 24.2447 12.3092C24.2447 12.3524 24.1818 12.3849 24.0559 12.4065L24.0429 12.3871H24.0168L24.0429 12.3741V12.3221H23.8671L23.8411 12.426L23.6458 12.4065L22.6366 12.5428C22.6453 12.5774 22.6887 12.5948 22.7668 12.5948H22.7799C22.9448 12.5601 23.1748 12.5342 23.47 12.5169L23.5676 12.5428L23.828 12.5169L23.9517 12.5558L24.2122 12.5169H24.3684L24.707 12.5558H24.8892L24.9413 12.5948L24.8892 12.6337L24.0429 12.6532H23.9257C23.904 12.6532 23.8845 12.6921 23.8671 12.77L23.7629 12.7895H23.7434C23.713 12.7851 23.6848 12.7505 23.6588 12.6856L22.8971 12.744L22.7799 12.7311L22.2916 12.8414L22.2265 12.8284C22.1787 12.9496 22.1397 13.0101 22.1093 13.0101C22.0355 13.0101 21.8945 13.0556 21.6861 13.1464H21.6601V13.1984L22.259 13.0751C22.4066 12.9885 22.5585 12.9452 22.7148 12.9452L22.7799 12.9972V13.0101C22.667 13.1226 22.5889 13.1811 22.5455 13.1854C22.4674 13.194 22.4283 13.2157 22.4283 13.2503V13.2957L22.4543 13.2763H22.4999L22.5455 13.3217V13.3477H22.5129L22.4153 13.3217L22.3046 13.445H22.2916C22.1918 13.445 22.1418 13.4255 22.1418 13.3866L22.0507 13.4126L22.0637 13.5034L21.6731 13.6981L21.5494 13.6787C21.5494 13.7912 21.3823 13.9058 21.0481 14.0227C20.9917 14.027 20.881 14.0919 20.7161 14.2174C20.6423 14.2174 20.575 14.3212 20.5142 14.5289C20.2842 14.7323 20.0412 15.0179 19.7851 15.3857C19.6809 15.4333 19.542 15.615 19.3684 15.9309C19.0993 16.3247 18.8107 16.9499 18.5025 17.8067C18.4635 17.837 18.3419 18.1074 18.1379 18.618C17.9643 18.8257 17.769 19.5894 17.552 20.9092C17.4652 21.3808 17.4001 22.164 17.3567 23.2588L17.3372 23.3821C17.3372 23.9403 17.4609 24.8619 17.7083 26.1471C17.7083 26.2942 17.8081 26.5322 18.0077 26.861C18.355 27.5923 18.585 28.0163 18.6978 28.1332C19.2317 28.501 19.5724 28.6849 19.72 28.6849H19.733C19.9543 28.6113 20.1497 28.4144 20.3189 28.0942L20.3775 27.9579V27.7827L20.3905 27.7697L20.3775 27.7502V27.1985L20.3189 26.5365V26.5105L20.3775 26.4781C20.3992 26.4781 20.4665 26.6793 20.5793 27.0817C20.6054 27.3024 20.664 27.4127 20.7551 27.4127V27.3089C20.7551 27.2267 20.7942 27.1855 20.8723 27.1855L20.8918 27.2505H20.9179V27.2115L20.8202 26.8805V26.861L20.8333 26.7637H20.8463C21.0155 26.967 21.1002 27.0925 21.1002 27.1401H21.1458C21.1805 27.1401 21.1978 27.086 21.1978 26.9778L21.2434 26.9454C21.3736 26.9454 21.5451 27.1293 21.7577 27.4971C21.8228 27.5404 21.8727 27.6702 21.9075 27.8865C22.0377 28.0207 22.1267 28.2803 22.1744 28.6654C22.2525 28.7692 22.2916 28.8817 22.2916 29.0029V29.0938C22.2916 29.5092 22.1418 29.9613 21.8424 30.4503C21.4821 30.8311 21.2456 31.0215 21.1327 31.0215C20.9374 31.1816 20.5164 31.2616 19.8697 31.2616C19.3576 31.1794 19.0082 31.0864 18.8215 30.9825C18.101 30.5239 17.6692 30.115 17.526 29.7558C17.2048 29.375 16.9444 28.9034 16.7447 28.3409C16.3628 27.2418 16.1718 26.2293 16.1718 25.3033C16.1544 25.3033 16.1458 24.9744 16.1458 24.3167V24.2258C16.1458 23.7023 16.2391 22.9905 16.4257 22.0905C16.6644 20.8789 16.8923 20.0243 17.1093 19.5267C17.5737 18.3108 17.9535 17.5038 18.2486 17.1057C18.5611 16.4869 18.8953 15.9179 19.2512 15.3987L19.2838 15.3532V15.3273H19.2512L18.9648 15.5739L17.9622 16.4372C17.9622 16.5367 17.9188 16.6102 17.8319 16.6578C17.8319 16.7747 17.7169 16.9002 17.4869 17.0343C17.4869 17.0646 17.3871 17.1576 17.1874 17.3134C17.1874 17.3437 17.0398 17.4497 16.7447 17.6314C16.6188 17.7786 16.3975 17.8932 16.0806 17.9754C16.0806 18.01 15.9309 18.062 15.6314 18.1312C14.9023 18.1312 14.2881 17.8456 13.789 17.2744C13.5416 16.8937 13.3897 16.4458 13.3333 15.9309V15.5609L13.3723 14.9443V14.8794C13.3723 14.7237 13.5112 14.4727 13.789 14.1265C14.4053 13.5727 14.8306 13.2957 15.065 13.2957C15.447 13.0318 15.8571 12.8219 16.2955 12.6661C17.1332 12.3113 17.8016 12.0733 18.3007 11.9522L18.9322 11.751V11.764C19.5529 11.5952 19.9695 11.5108 20.1822 11.5108C20.2734 11.4546 20.6184 11.3962 21.2174 11.3356H21.4192L21.6601 11.2966ZM23.0533 11.4329C23.4483 11.4502 23.6458 11.4805 23.6458 11.5238L23.5155 11.5692C23.5155 11.5433 23.483 11.5238 23.4179 11.5108L23.3398 11.5498L23.2551 11.5238L23.1249 11.5692L22.7473 11.5108L22.6952 11.5238L22.6497 11.5108V11.4914L22.7148 11.4459H22.9426L23.0533 11.4329ZM22.4153 11.4459L22.4283 11.4654V11.5108H22.3046V11.4654L22.4153 11.4459ZM21.9726 11.4914C22.0984 11.5043 22.1614 11.5238 22.1614 11.5498L21.9726 11.5952L21.7773 11.5822H21.6405V11.5498H21.6861L21.9726 11.4914ZM23.828 11.5498H23.8931V11.5822H23.828V11.5498ZM20.0911 11.6341V11.6601H20.2017V11.6341H20.0911ZM21.2434 11.9197H21.276L21.5364 11.9068V11.8873H21.289L21.2434 11.9197ZM20.7551 11.9976H20.7877V12.0236C20.9049 12.0063 20.9635 11.9868 20.9635 11.9652H20.7877L20.7551 11.9976ZM26.4062 11.9522H26.4648L26.4908 11.9846V11.9976H26.4778L26.4062 11.9846V11.9522ZM20.3905 12.056V12.0885H20.4947V12.056H20.3905ZM24.3684 12.3741H24.414L24.4596 12.4065H24.3684V12.3741ZM22.0116 12.5558V12.6142H22.0312L22.1939 12.5948L22.1614 12.5558H22.0116ZM25.3189 12.5428H25.384L25.5077 12.5558L25.5793 12.5428C25.6618 12.5428 25.7291 12.5796 25.7812 12.6532V12.6661C25.3905 12.6661 25.1952 12.6359 25.1952 12.5753L25.3189 12.5428ZM21.7187 12.6337H21.8033L21.8424 12.5948L21.8163 12.5753H21.7773L21.7187 12.6337ZM21.289 12.6661V12.6856C21.289 12.7159 21.3324 12.7354 21.4192 12.744L21.5494 12.7311V12.7181L21.5234 12.6661H21.289ZM20.7551 12.8544H20.8202C20.9852 12.7981 21.1023 12.77 21.1718 12.77V12.7311H21.0481C20.8528 12.796 20.7551 12.8371 20.7551 12.8544ZM23.2747 12.8024H23.3398L23.3788 12.8414L23.2551 12.8674L23.2096 12.8414L23.2747 12.8024ZM22.8775 12.9972C22.9209 12.9972 22.9426 13.0231 22.9426 13.0751C22.9166 13.1226 22.8949 13.1464 22.8775 13.1464C22.8471 13.1464 22.8254 13.1097 22.8124 13.0361L22.8775 12.9972Z" fill="#FFEB33"/>
</g>
<defs>
<clipPath id="clip0_43_5075">
<rect width="69" height="92" fill="white"/>
</clipPath>
</defs>
</svg>
